<mxfile host="app.diagrams.net" modified="2024-05-11T05:26:57.850Z" agent="Mozilla/5.0 (Macintosh; Intel Mac OS X 10_15_7) AppleWebKit/605.1.15 (KHTML, like Gecko) Version/17.2.1 Safari/605.1.15" etag="-zmf6KOfL_hnZWmwGehW" version="24.3.1" type="github">
  <diagram name="Page-1" id="KuhQ7tOnlOyqI3bvCngF">
    <mxGraphModel dx="1314" dy="901" grid="1" gridSize="10" guides="1" tooltips="1" connect="1" arrows="1" fold="1" page="1" pageScale="1" pageWidth="850" pageHeight="1100" math="0" shadow="0">
      <root>
        <mxCell id="0" />
        <mxCell id="1" parent="0" />
        <mxCell id="_rtk_seP__OtfE_5Taxq-46" value="" style="rounded=0;whiteSpace=wrap;html=1;fillColor=#f8cecc;strokeColor=#b85450;opacity=30;" vertex="1" parent="1">
          <mxGeometry x="743.17" y="320" width="380" height="130" as="geometry" />
        </mxCell>
        <mxCell id="_rtk_seP__OtfE_5Taxq-27" value="" style="rounded=0;whiteSpace=wrap;html=1;fillColor=#ffe6cc;strokeColor=#d79b00;opacity=30;" vertex="1" parent="1">
          <mxGeometry x="343.17" y="160" width="550" height="110" as="geometry" />
        </mxCell>
        <mxCell id="_rtk_seP__OtfE_5Taxq-17" value="" style="rounded=0;whiteSpace=wrap;html=1;fillColor=#d5e8d4;strokeColor=#82b366;opacity=30;" vertex="1" parent="1">
          <mxGeometry x="203.17" y="320" width="380" height="130" as="geometry" />
        </mxCell>
        <mxCell id="_rtk_seP__OtfE_5Taxq-9" value="" style="edgeStyle=orthogonalEdgeStyle;rounded=0;orthogonalLoop=1;jettySize=auto;html=1;" edge="1" parent="1" source="_rtk_seP__OtfE_5Taxq-3" target="_rtk_seP__OtfE_5Taxq-7">
          <mxGeometry relative="1" as="geometry" />
        </mxCell>
        <mxCell id="_rtk_seP__OtfE_5Taxq-3" value="" style="shape=image;verticalLabelPosition=bottom;labelBackgroundColor=default;verticalAlign=top;aspect=fixed;imageAspect=0;image=data:image/png,iVBORw0KGgoAAAANSUhEUgAAAJ4AAACqCAYAAABcbvbAAAAAAXNSR0IArs4c6QAAAIRlWElmTU0AKgAAAAgABQESAAMAAAABAAEAAAEaAAUAAAABAAAASgEbAAUAAAABAAAAUgEoAAMAAAABAAIAAIdpAAQAAAABAAAAWgAAAAAAAACQAAAAAQAAAJAAAAABAAOgAQADAAAAAQABAACgAgAEAAAAAQAAAJ6gAwAEAAAAAQAAAKoAAAAAh7KzrAAAAAlwSFlzAAAWJQAAFiUBSVIk8AAAQABJREFUeAHt3VmXLFdx6PGyBsxsMQjEYEmY63Wx3/3937386AebB7AvBjMahM0gEPjWL/v8pdBWZlV3nz7S0Voda+2KvWOO2JE7s4bT5y9OZ/jfM8CP8FiBD6MCf3GGFz4MR48+HiuwVuCx8daKPK4/lAo8Nt6HUuZHJ2sFXloJl9aPj4KXqvPx4Z0fsT7yYG/VeBrO+POf/7wF/NiAH/m+3SsADTcHIx9VE15svBpMw80R/V7ZPyp9ZBXQZC+++OLphRde2Ia1vfwomu9i47399tun//7v/z796le/Or311lun3/zmN6c//vGP7558H1kFh+MP4yL4KDZmpPhgUw338ssvnz772c+eXnnlldNf/dVfnT7zmc+cPvWpTz2Yj9sa2m28roLf/va3px/+8Ienf//3fz/94Ac/OP385z8/acZuubd18izkLjXcXRvlki2x39Xes8j3IWxqvL/8y788feUrXzm9+eabpzfeeOP0ta99bWu89vwh/NzGxmHj/elPfzr98pe/PH33u989/fM///Pp+9///tZ4f/jDH56LxruUXI0SJjvns9HM5/qS3Y87T+N94hOf2Jrtf/7nf7Z9dNo5/cCs0bPO9bDx3nnnndN//dd/nf71X//19E//9E/bqed2i/5RbdQsjPlcz8Ip8MpfZWu4MP31JC9Pus2vbcie3B7tmp1nxXer/dnPfnZysGi6r3/969ueevYT51qnZxXHBxqPcxvgWc7z3X/+539ut9kf/ehHp66SZxVMdtuoigBrJsXp4Tgcj24NN+fZyPYe5s+wGfmG1SFeeNXPfnpTp3k4G8lmKxutnxXm96WXXtqa68tf/vLpF7/4xfbcLu9Zx2flf9r9QONhKpTG8zz3+9///uT22puKtWjr+jZFTCfZMN8rTzMpluE24RkFduUa6JqwwtWgcGPPPj81BKz4Nd6kO+Enb8a32sVLNkx/2mDbmLlmcyM+wxd+irH97Q72YcVQeruNh7kWbg1M0dFm8TN6DU8d89ZwzdLpNhvuk5/85HZ7gDVgzdfply4cLfv5EHO5wDUCLGc4uvVsnGSzKc9pNxvpwDa4C3fSq282i6vY1hrmZ6VfWq+22MhP/lvfx/4l39d4h413KZB4JXLNyR4/G/GsazKN9elPf3prMti6ZoM78TQXHbrr0HwrLV/hNmY2WxsB1xQ1ZHLpsx9MeXJ0NJ0xG7C7SFhTzsakV1zZnn6i3Qevdu9j46F0DhtvOnioxLNZQ1ibax6nVw3nc6bPf/7z2+dN5jVdDUe+E61TrqJme+Lpt3m+Ybrpa5pJQ68Bp9wmdH7hZ8pP2XnCmWuwGs5nor/73e/eN/DIkK3Zs52fzdkDvjwru9dCvNp4DxVYdsICM9dEmszoQ03N1omn2Wo08o0abq7ZvHTSkZ2wNtJsPvPkYXaBxoqer2xmj4y5i6m5tXnNWBNqNg2oEb2Z8wbOQPM56vSXn/vi4r6v/kPqXW28p3U2kzU3bJgTy3Oat/Rf/OIXt/GFL3xha0BN1zNcJ5s4bB7IRvZWnAx60Dwb0eGaAp4jmalbA+ZzNh/a1G+eHWuNZDjRNGEP+ZpM8/3617/ehiY07zbcLZgNEC62fEy88tKZMh/V/GrjPUSwswDmTgINp9FqOqedr29qOKdcmxrODoxmgOgVsZjh5pOHZvPj7+HVbnbCxZDcjAeNXE3WPNkuJjk60eXsYvvc5z63nfo1oA/wa0QnoCZk86FgrdtD2b2NnauNdxsjezJrUm2UQvddoa9uDLdZTach20Dyc6BnY+J81xATmzeSg2u6MFpyMPvRVowPkoHTRS/OOeeHXE0zfZDXiDWgOmhAQ500n8bUgBrSx1tOPwOs8WzEj8HLM2m8NqX8FafiarJXX311Gz7EdOp581DTpQsbbSQMoidX4eE5yNZY6OllA2YzHWuwZ/eG88FX9mczybHnUXO2aqz8aJgZV3TWydLvJHRXcBJqRg3om6R+rJGND0b18aDcq/HaSPgI2sCwq9ZVrNl8Mf3Vr351+3WEwpI5GjYjG/la13Pz4hXj1FltpTcx+bme82yF8TRAn9Whu4CcXobm49OoETVVejVPmH51IKdmLkqNp05szguU35796F4CPp8nuHPjSUBxjhKpcCWp4AroZOukgz3TuaIVc0L6YTzzCZOHPmNJFm2OGoD8nsy0M/U0RadUOBt4huev3gjIV05yrklmE6FZk+MnG+FofIiZrfKlpxHRnH7egLj9Fi+dPcAH4WTWdfQPA9+58e4SlMQUye++NJsvpHumcwV3CmSzAoejh6OHJ918paOJwcCzkXvQBiQ79TRbH4FEz0/yPhJxC9QIaDUIDDSh5zWPGU59J5hY8Gs4mC8ju2jk6JN1odJVUw0M+O6CoHcXkAcI30X3aWWfSeNJRFMpjpPutdde226tms5J1zNdCVcwa0OxmydTgdZ19InXorCfvZXXuhgmrimSgdkRn0EW1hRyxXMCefeZHTo1ntzVw3DhqUMXHzugOOnPJsRnB4iLXqDhfRyTfHS2ADzjicYmO4Z58pvSM3556sZbk7KuSK5uJ903vvGNDTv5XLU2ikygKEa6FQGecuRnceY8W/AsMpkjuamTTLhNtMnFl3wysKHp5GXz58cfnsGAfJ1Ufsntw2GnlFqojwbUUOzMvPkHxZEvshrXqTfBqcxu8U6eOf1APuTS8U45/8msOP9ro067q86l9dXGu2Q4HlzjdEtwW/EGwvjSl760FVnRajpFrkGmnZoNbY5LSVziFdclmeIn06bYmDYdrZGddNDFrBE0kVuqjawJslND0AM2PRobnZjxYZsMk0s2Gl8+A6UrTkPTd+stzj3sRPaM+L3vfe/0j//4j9tjAj/5XnXQxcenN4fuXC6a9nOVv836auOtRgouHN+6Degjk046a7cVTUcu3YnTjz95+biGbcLTAhs22Ua24W36nn00sdoEp5qGouu0Q++dJ5oTsQvPRvasppnY6aKD6aKb07UujllnMppNM/Gd/6M68OPC8M8YgJj+5V/+ZbPP7grFpek8KnznO985/d3f/d12F3Pyyuc+cFWL4xUUYQU0hXQluCo817nNuqXUdBU0XTqNeK2TuYbFR+ca3EWuhruWO78KX0PANSxdp5/G0xg2GF+emkWtqgs7eICeUT3Qmk85c/p4Tj4+GjMGcqBcYDE5HWG3fo8JyW3Cy0u+7KV38OKXNz0x3AeuNt41oxIRWEexq8BRrOk66bpyyc1RQcP5ymbrIzyLucrEW+l762RhQxMYzW2kkyQ+G/KQV/mg0bER5JyAnT7ecLi1OWl6d6tOGkbd5J+v7KCxBzf4Sja/GlhDOPH4MTRUb3DYXYFdTSovMcljD/ign1+N1uEifofLfeFi4+0FzdFKVwwFdxR7njN699qtpULRb06vOQyyHUaLZ34N0gsnzwbaJVv4hg2xeRoHtkk2EtCXq8aqITr1yGsk4NZE1nCqkNEU6L2xcGvmL1/8ks8uTE9jNNjWOMnly0XOrpNMM4mF3B7wicef3G4L8vjJT36yDW+U0mVPPHeBi42XoUtGFcdVIHG3WKMHz3kisFGxKmy0S/aL4S64wtKZtud8zx4+XRvSz5I6RWymuDWWi4qsvNHMa4zm5BoaFd/tFk3DaVyymo5t/jQLYLcLlrx5vtjhs8axxtPQ6m4f+OlEk88KK00c1yAdtXERits8+jX9lX+x8QRkHBnHU5iuYiedI1hhK1Qbky0BmEdfA9pb558eaL3Koq9j9ZVutvZsdNvy/ej8CKRNpiNvNsLywbc271TUYDXebF5yGs0p0ofPmoUunZqvuZrmg1++gHzY4qPGc+qxqzk0aDknvyk+eZl1mPMpM+c1vKZ7GrjYeEeGBVgy7vuOeE3nmUXyrlAyCgXPgRb9yP41+vS/yuLtQfEe8engKagGsHluKz2boePb5BqMjme2mkDeGoAvjUN2Do2G19AcP/3pT08//vGP3/XDpppqOEPDqWmnrNp1GpqzL7Z56nXhy0OjXAKxXKrJni75u+qsdi42XgXac1IBJKnhFMZcsWZhChKmY0QTDB8Tpq+Vl9wRPT487Ux682ljyqJ3++s2aw3I2WQNo8FstmEONGC21lw1iLp0YnQrd6L6Z4Y1ODtqWMOqqW8maiL+NTuffAA+yWtYdx+DDT6KndzM2fquUG531duTv9h4OdoLWNKK7mrUeE49xVD8moteNuA2o4LtBTRp6aKxtRdH8pOXr0lLbg+Ty5d5zeGEstGgU83chjoRbXAXG/0GG+XIVvWgm0y3c03cV17dGvGqFR4/PQNmT6OJyRCjtWYj24lZzDM/MUwo70n7MOYXG28vgJLoCtN4mk7CeycdGxVxbsCR7T36NZqY9kBR4xX3ntykiVFunWawzbaJ5WGDW4fbQLKAP0NT5Lumm7L4dMjAzcnwZ90tOv1OWfUWKyCH3qkHW+drE1pe4oUX9geWYnwouHPjcSxQp5t3UBqvq94m4M0Gs5408z14yKTYauTryG/8sBzk1udtTiFDTm04vpzlb4Ntfk3DTrmgAbimrTY1DZtGDUxXrPjo1vS9UzWnz7e6uwD4R6cvjk49MuIkXxzskn0e4M6NJxFFkbCTrucNSaMrQEWUIHnjthv/tEVR2DnYy3f4yAc9sdqwHiHIuvXhydmGhuVuLt9OpWm704xf9WEbtKareT1LkoXZYa/m1zSe7zQ/ngY03HrFmD026fFTfGygdepuwg/4wqehNneFOzVejlyJXfFusTWdxjOsJaxo6RwFVuAwuGsSR/LoRnb3/O/xNIf4NZUNs3k1nrzli2YOkwVylXN+w5qFH3bjk1cnPnzDU7N7o6HB2NRUPhMVg0bTlDCf5PlrlCc/7JLporBmE5B7KKh22Qwf2U8+/p0bTyJtgKu1xlNUQ9HwFWdeaTmuSAUAT96kl0z8yTua05l6dBt0bmNLjk4NOdhAG2eTyw0mg8/ebLqaCw0Uy7YYa/pqx4ZG6ZTiS/3U1ldS7Gg6n/UZ/BUb22pcHHjmbrfiZr84yT0U8CsuNuce79mv3nDxkbtX4ymUpJx6kpRcjVcRGM+pOVjXN9QPbk708Ny81Yb1Hj86PEc2r2F5aAC5wXygybPNnD5quORsTDbI0YEBmYYm1iT4PpKix1bNQ06jkfHpgbX6qz25/PBVfHTp2COyTmxydIu5OIppC+wWLxqNPaevd9wuhktQ7vKTa/6uNl6CjGekK1RyNR7DCkFGgntwRCd7G162Z0x7fuLbiObhPfloYjDaJPm0mWTYmCMa3Mbj55e+YrfGYxvkC01ja5L8rbVQZ7deuunnRyPko1it5x71ed70KQY2Jl79bszxgu9EdgL73NGfsOPzEshJfuJx8RjgauNNo5wwohCGeQ2HZ8zi0r2WzLRfISYt/TCZ5lPOHN0gM0e85K/5mRucTbr0FBLkxzx71YA+GpkVyNQ82SCLrpYwIDP100OLt87pFaPmcyg4GTWK5steMvmadtg4AnJOOX+eWCP5DNIpfAnUi6w3on6f+frrr2/iVxuvYEkLtMZjTGISZFwyBqCT3oo3gfNLsuHo8JGtKXNtzoZ4i6U40M33/GYTv80No8kz3KZNO/mctGxOjN+Y9Dlnn++gmOHAnIxTb8ZjrontkZPUPsUv/g4NttjoDZT19GEdkNNsTjrfO2tAB9AeyI8dcZDxlaofkIoVXG28jFYoAZdMTScp/IBDQ6BrEq2TX3EFylb89KKH47eG0Sad7tTHs54y6aO3mXA5ZKOLDL1Y82c9B5k9SH5icskXVzgb5VCM8Wu8YiSPZ3/c2my8BtBcQA6aEd2cX9/EwMWwCS4v7Ptox3Md7HZL/xLg6xkno5judavNSKedZNAYrAgCrzDNCwx9hfTQ28jwtLvqWU/duZ70Ysk3Hvsw2pTNh430MUjxtxnZoI+2p5v9cmAzvWJsTbaBxi9cfHv28fme/vvIJl9k6Go8t1r7Za+K255pvJqSHhuGZ7hOJfQV8PpcsThXGWv+i4M/J6Tm84/5wa1OvAxwJBkdDE/HFYTR5rARrflGOL8UXOvJn7bjT7y3KfjRsxXGax5e/ZNpU8NkG5M/aehsGeJWaBtd8+Ln8wjb0OIhw86sQXrZso4mVvrkA7bs0XpIZFt8eN5Jk+u7YLdStrLNzgR0fOO2wIaaeD40wNXGmwFUUIGaMzgDI7uOS8GRpZ8PsiWkiPGzka9w9BWnZ0Om7VVursklH0ZrkG0+MfqMR9z0YTUiaw3Mg9UGerVIrnU4HbLJzFizkW/N5WQz1oOCLJpTz9BwTju3YxdM+5CfML1g5o0/18nAk978auOlOJORkKKiBRwXXPPWyezhIxl0QcYv4PCerWh7MtHg5snzYQMVu1OqDSVDfsZjno4amCcHV6t00JIxB9N+vPzMNdnodNKbMuatyQM6HRRzv9Dji9NzXl8PuoVqQLfFGm8T3nnJTqzW4ehH+FaNR5nBCupW24m3Z5hshQjvye3RZuB059p8rq/ZTjY8/a00thR7bu6Ul3s6ZMnNdbJoZMmoUTbTSc4ahOc8WRdBftGyxXfyyWaH/zk6IMKb4pMXcuhORL8c7w2DNxp4+YCt87HSre8Kt2q8AnTlOJ5hBXkWILlGyYfv4++aLl820qbaaGMWmL5Rvq2LEd7zUfOpFXAbA+ltiydr82zEF1PzZNFqumhTxjw7+GIwajrzlY83b7m94VAP464ghhWmz3i3aryCV0SjRDJyG7wGtBdMdmYxyRkVdbWTzn0xe21ozZevfLeBfEQzTzcaHJirU1Aj8TFzmPMpyyde/OZzTX7Sm6MXU7G3ZysdX+OBnvfcfp1+xbwxd16yNVnFN2nNyQcXGy8jFApwPfEuOZ+FyGF42o62h/fs78ndhsZWfqc8Ws03+W1amD4gs45przn5dG18PmYc2aQz52RXWj43xvnFOp3m1tGai6HGSxcvusPE2rtcn9H6CMZ3sX3ul87E+Zi0S/NV/mLjTeFOu7CgJz+nFScc/QhXMHxzsGcXLf4mdMeXaXO1s/KKCV2ecoYBXk1hvo5pi3w26B/VLDmy7E2Y66N5+mF2GnxquhoPPTm89hPds56m03ye4/HvervNPh978ca/2HhbhOeXgu+0k0QGknkoLNg5HsruJTuzQOU1cfmzoenw2hC60fDxyAet4cbqL3o6k492bZ0+v/leabPx8ABcbuaarRNPE9JZn3k3xVu+sLnGnurFxqM0g+vqKEG8h4D8sJXNo4Dv62/1kX24Od+K3YlWLMVlbcSH6bY2pw8nu8abr2xWS+t4cPNVf2/NVw3EP8h/vPxYT4iP5mDxfKf53Hat+yZjL57V1rTbPJlw9PcuzShPMEcJwxKajReP+JxPM0f0KXNpftcNOLJV0cLkZmz5QTPapOzFt44HZwNf8zWmHzqtw9NH9qYtOoB8OjeUD77Sa7Bln6ZNPDQjH6sVdDr2t+c8DdjHZqv8Q6yvnng5WZOKHhb8tSJN/izCnGcPPqJPmWvzNg/OXphu/E4vtMlH73bTBiajJmDmNdfZhtkB6fDRPH4xrPY2xfFCd8pkqz1iB20OPAPtCOSn2TSfYa4ZnXrT35H+Jfqqf7HxpqGZRMFPY83hxtSPP2lHc/ZnkdINp2ddLNEmxm9ETz5bsI2ag28Qz/Oc4daDFp+t7GUfvzFtxKc7B7819tQjn+1wNsLkJ7BLNmzeiEZ++omfnhw1nRPPc57Gm5BcetlaY5k6e/P3W92TONMKmrPVUQ7jHZh4t4hHfPSSCedrTye/MPkJk9ccP7vJxoON2Xxko5PXePhOheoRxk+ezNRrjj830Rrgs5McPIHcHHh8BFNvzvHzkewRlhMQn1NOw/Ws50v97MDx6fDnovGZHwyS3RbjZaVfbLyEK2YJV5wV5zh66/xPejQYPV/wnMeHo5tPSP/IPtmpS86Qj4ZqTS4bM9dJI69RFH42YTLw9JUdtBrVnNw6yMYTS0Av3Whk82neiFYM4fTC+cZvyMeJV+M5+az5ljew9uaDDPBZH9813up/Ezq/RA9fbLyU4AIt4dZTxrwkzHNifhtId6/Qqz7ZI8hvOLtwcSuk0W0Oj9/44Xy0njheduc6WhvGdo1qDtQyv8mjpxPvqB4zlhpv7g9be0AvmPNiXG+36GIxajw/LDDvg2YNWNzZXvH0ddh4nAQU2iS4JNEzVmDW6cbLzm1wdm4juydTTPkulmTR5TDzwZvFxQNt4rZ48jLt4xevObBmC0zZ4pj85vlZMRtkGtmdtvPLl4uIrPkKK23Gxka2YbfcTr3eYHSBunichP3TVrdk/6bDL1rccqvd6n9dHzbeFBQYx97dwIxXJHIzqYoZbSY4ba7zigs/DfDXZrCz2sMz5GCQV+z8T91inzbQgnSmzzYw36vutJk+WXrpok8/qy1y06d5+WRj1WdjQvrVIh46GxpOgxkaEY2s2GbzaVC/ZumnVGSu+ebrauMVoIZznNZ86I2CLuk2r2DjHwXU5rQRrdO7C+Y7/+zwGTbHWy8cfLE2Vn90Zkzm6diEbJZf/HSKBzaqU/z8pR+OXlzpiT9gY+ZFZrVLlkyjdXF3mmWLjRpPY5k7zWZcmrEPmv2kyi+YNR9b5Zsfdhto4GrjEeJQw3HO+LyfMyjQnl/Ig5nkGsiNxHuvBRV+j/PBE2vy5pw/fsJ44opmjdcpF7/4p+/ymTk0T46M0Rqe0DoZ+kFzMtmdODn86po/ctlODl7151oNGlPffJ6U2eWr222NJw5NlYw1Hln/dLG/dqBH9Ap/E/gC6d+q8RhhrPs44wUhAEFWoByEOTLmVRqvQPDboC26JwGmizZ1kgnjGbO4eNZsgPjZ4S+YfszlskLx49NtpGtdUxdPMsWVTXx6xUQvmeKbfqovGrn8sJetbE+MZ5C3X/CE+GwG+a3xnHbeRFg7cEAyNZ/nPW8y/N8ZcPlkcw/fqvEEKPCaryN1BiEwhS4JWIAT0NgCcPw2KDx11nn60a3ZLVk4mexbN/iIzkb66ApZ0yWX3tw0+ka8cDHNePIBp4MP+AiyES6emk5c0y+9ZKNPW9Va3Ib9i7bKrXT2+BMD/wYagNHjOfX6YUEfs+iTuQ/pbQaevFxtvBwKTsd3uy0RdiqSYMkZ6eEBa6NiRYNLJB20gHww52jWfInFkKw1OpvsFU82XL3iTDd564pNr7iTW2NrnX1yxVTRo5HNJlq2sxEuxmTFM0d02Cj2Sc8nLA5DbfaagUw20psxTN/VM1/x1NM7235O5c2I5z1yq81sw1cbL2FGJOC0c5zCJSZ4IJgCi4aOBir4DAivsQkdvEwdc4OPCio26/zC/CVnnv/kwjO+5PKXHXTz6MWcLt6EZKd8tqtTvCmbXTLdRehF58O6jc9vfJhd9Oy2T3A+JzZvTR/AM17zIF/F6NTTfH7B7NSb33akw/477/g3uTe36zs1HmUnXp/bdMrAeDNYczQDFGyB3AVnIx3rrmSncP4rNDmFmnr8KxSgSxYG6MVenDB9PLasV0gHnQyb6U3f5uuYNukZIJt7t9jJNxcbu1MXPV/oM1freMntYTE0+Kg+0YoRXZxOPSdd/15j3prZB+cw3z24rG/deIQFbqM78dp0yZVgwSlsG0sX4O2BYtwGKhq7ms1pBxtg2hFrsUycDTi6WBVxhfhwkD779AB+jVQM7DVPZ66Ljz46G20wW2vjkQuKi5yR3fjW7Fcn9Wl/kg3Tac5uc/TyKhbrIF7N502IxnPLNa8e5F986dygL58v7nO53nnnjiceA5Kp8frcRqc7aiVm5LAgS8TaPDp7dwG6s5iartss+hG0OatfBZs8c8BPg13DOphxsJndMLlsxZ/28Oc6mTbQmr61Me3SnZBs8Vk3r1b2qwt0zSVb9BrpZ7u4ymlPB8+pp+k0n37QrBqeHY346U/5j2bOP7N6+aZ573TiCUoSPedpPvf0moAzA3C4ByV2SSa9KVshJZO/9SqePum2VhjD2mhT143Fo5fdfMKgeFoXZ5uy+stnuvQa6RYTvMa52k0nPP0VG14+2qs+W5NXkK719D3rFr16pQtPf+Tsu8YzHEYaUdPL4VOfOv+Zslf8JzxfOP953Vc2MxcbL+MFKaGScbs1OPJgic4JGYGmy0v6m8fxMpMc5PdNybCpaDVct47p431KY8G3IbYK2AXSxrZR01c+a8LpKzluzNnJfv74il44+WEze8mlB4MVZ+MIJ89H8alXfxvPPF6ycKPasE9O7Hjl0Hr6L4fknGx6wXDqOaDcZj/72c+cXv3Kq6c33vzm6f9+5/9sJi42XkHlAFY0ney0k5RfKdQQ5AE58/Q24sHLNZl8arZGzZDJfGWrOGCj4mk4xTEUGmRfsadd80YblvymeH6J36blK78T0xEHW+jZRKv5snsXnA95ZLN5bwTtldrFX+2zURx48souurrBaGDWOTk59CbDXdCppz9eeNHfbD7/caAvfP70tW+8dvrWt1/fbFxsvE1ieRFUz3m+HPaptcZrEyRYYHBJFfRi7nBZ8Wq2cMWb9vLHWPMKlZzCaDjFwct+9qzJKjJANwL8RjbxzNHlT57t5jUUWpDd/GUTnjB9TPq1+bSnZu5KGpDf1ce0xV91ga2jtU4+H/hyDOStvr3J2P7m3v/eXGhsvPDCe/W92HjTQcZhSThGfV5TYo5XQQgGHwYz6Ggb48kLWgWZeDbybLpZwNVe+kzj3SR7U0SxdeWWVw1SPNlLr9in3WTz0bqcs42Olq3yjA/nj+xcR08HP1qy0aYMf9XNYaDh7I+DAoiFn2DOo7HXQMtvmM4cZMoR1nhOPOMTnzg/5/3x7Hv0wgsv3DTqxcbLGeMBpxJ0fOtox2kPr20s2VW34CbdvHVFqHiaTfHg2SAlTa85f+nne/rLz9TJz6pHn65GJZOcGLJdzHO92hY7XbamfDGjGcms8c715nh5mXFnE2ZPzTSbw6HbLF9s4q+6i+l3l8UdjpEftrKXTT3Qc97LL3/i9M6fzu9sT+c7xzm2vziP82Qzc7HxSHCa0blWWE3nz1rBOly3d/TOYFcbm+fzC7vxSsYGs13TKaLkVigmODtk5oax3Ug/P2vB8LNDZ9pJF572mofxiyf77AAy8VrD+YHJwNUwfrrWAbniRcs2v7PpNJ+a5icdOL1ijbYxDl7IkDfY7YJMnB9vLDzjebT5wx/e3vLCv9nFWzZeBmEFCHMoKY3nb+L2QKn5kqk4gi1gtPjwmsTeSbcWpDiyuxk8v1RcOBk8c6N4orXOzvQz5+T3gEy2axa0NsNcfhNWu/jZKH40cmoJ4wfJtsbnLx3YHci+uM128qY3bbFB36CXDWuwyqKt8nTIwUAdNFyf7779tv/ZvPPtxi65KOYfgJwUNAHzNkyTSNAfYdZ4jljFctwKQDBkC+oDDs6EkmarplPIinmUPFsVyLwY2zy0ilIeySdLJv9kp5x1MZCbcZBrPW3OXOlmLz/wCumjs6lu2VdH0Bqfj5p8xideQw3dXj1/uxMVR/FuBs8vc12udIH1hGJMxzodGD0Z8Wk8p17jxfM72/P99izzntWLjTcdpYIWHc1V5b9Q776uWJpwypkLzFAIIOA1AYnjV6ySId88W2hBzRZOpgJas22QAWjJZYePBt0G2p58ehMnFy6G4p+ye3Pya1zkyk19Xdxk3HGcaMUsv047dyF7k/89X2h0yVQbfrKXTmt46tAzXAjiAfStxajx4Bdf1Gbqffa3SV058Z7IfABVVFii/vM3TjrxOJ7BFNQMXHMJukYrib0kZwDTRnG0KdMne9kip7CefTqN6RRXdmA6xUVHfEHy1uSSz8+eHBn2bgOrHWvAhnjF3mmC3m3UnKx4O+32Gm+1Tw+kq36rjHW1vJG+kY+OV/2Lk50uEI3XO9majp2LJ16OVsxpRbcxms873J/97Gfv21hFIhe02fSDOSc75Scv+YmTzy4enalHxrrGM6+xkg9Hl1NNhxYfzt6kpZfffKBHI39b4KPNnNgmGmCNUbxOOPvgNqsBa8xigJvvxbLyW8PlMmnNszX3Q9xOOk245fBeG2zid2q8is6hOTBXBM96N85ufot/0+k3XyVtgueXdGCydGEQb1s8ecEP5jzZ7MD4jZolOTbw0NuM7E5MRi7rppKZtqZOdDr5LQ74CCYvG7CNMswnvdMOTw5Ob7h4zT3TOek0ntuwZhRTcYWPYoo+45+1iE7OPNuTXtz29aXz12U3udzs8bv32bP+1cabhipIzcIhICNJiXvec9sFNZeTD5DJBh18WAIFn81N4fyyrtGLqTk8gQ+QnLV3WT5RZ69iiscav5yKZ9ozLw78uY5+RNuEb/lSvGKpNnNe3JrOXQaWQyfdL37xi5Oh8eLN2s7Gy9eKC1Ve5PM57SQTrgbVBha3ujr1zM+7sY1kLjZeQtNQBjktEY4NV52kOaRjs7PhBEQH8W8CummQEtsEzi/prUmtfGsy9NMJ4/HhtPBjBv8MTyGdBm5F5gDfoGcjjSMgU0zJXFvPeOis8tmByTZay4GOZhKzpjPUu5POBa/pfMJQ45GddWVjjSVfk07HoK8WfJgX95SdsRcvXJ+8+NLNV2U3cueD6slN4GLj3Qi/98phBs0LBG4ItJNP40nAhvfGI2vkZwOWDPuNZCfOTwVtXTzZSceavZrLnI5CGkBsnco2VGPSSzcfZKObB/ggHD18RI8P52vap1cDtPHqqwENsaq1hvvpT3/67mkn/uTZyD/MfpAvNYmePL/55rNaTd05z1aYTfv7kkPoLMiWBhYzuNh4M+ACopTxTjC0yefAM59icDjlko1W0mxugZ5PHqejRsFLPvtrMdDR4Amti5WMAlqzywcZ6xrP2sgvHI1+sURvPfEmdIeX4mOzefaKuSayNm8D1dgnCj/5yU+2Yd6bimzMUNgP8hWtdfnCfKmZUf7ph+mJ3QDZge2nd7R//vP5Y57fv3363W9+e3rr/OYHXGy8TeLJi0AqRM6sZ8HQA1ekd1ic22SyRicfe0H2rAtY49G1rhgKYYDsmYth2osPp2+zPAt1S0Vvnn5FZgu/YlonM/2YiyOcL34nTJ3oZAG75jeb9N4GZhNu8CXGTjr/jtUnCS5wt1innzzJs1k8+Zq+408cP99r46FPoCt+Q/wge2jb4XH+vfvvz73w1lu/Pl8cPz/98P/9aJO72nhr0gwLaDrgtMKF8RWpd7sKYvhX5329RgYIMkCzXnl81mzNi41u8hWHjeawzYIVYyvI8OnWlAw5cQM2soPf2JjnF/HEL7ZVJlkYrzhhg341C6PhkWc3m/J2Qaup26v/L9b/Hdtndu3L1KcL2GNrwozBHExf6tC+sZ0tcuTzU9z40WD0P59pv/nN706/eusP50PnB+dHmpv/3/Zq43ECGC3wcM6tDY4mCBbgFXiydNnsTYe5MYGsJsk3G9MW2ew0h7OD15quBuv0zS97FVjTKTRauSlggG4EePmCi5NM65VfTG1QF4F1NPanPnvir+mcbk45t1gYXQ4zZvNs5DNaa36m3+j8sceuoSb870H69p6/cmArf78/32ZdLD//zC/PPwj9+Wbm1o235xSNM0EZnApyDYYMqHiSMvfr5ZLFr1AVmp2uppVvHUwbcx5/YrYb7FdkMRUnGw262SRvvsoVZzy5sZef8NSj05BjPvirDmH6LhrvVp10P/7xj7emc9JpDLDXwMWDz5a4DPT8FQOZgD8XoedFfmvs4i+u5NliJ7vhaOzx+9L5o5XPfvpzm9q9G6/AZxDmnBSIuVGjzWPbXHKaz7tf7yoVzyYY9AQu4BIQccmXNFws0dZ19GTx5yhuOPqUTT/ejEFsTk/xixvP6JRos2vEaZc9+kZ6Yfmbq1FN56TzTOfZTtOhV5vsFKM1mPY2wnghC5Jtv8Ss2Wo8ueCtkO3oxVIM4eS80fjkJ295qy24jF/DOYEFq+ACqtEU0vAg7M2Hn84b/aMhTWgj6dOrCdc4SmrGs8pMXnMy2WU74A9MG3Oe3CqTLTEb1mx1sdlE83lq4LOdfWujZjOnp2ZOOe9WnXQazud13iTh8aXh4WmvWLOb7Wm/PNIlA2Dx1vDFTTcf8LQ9dTcjT17Kz9JcvdUIXDzxMjgNoOV40jdr46VAkczbAEkpmqtVAd37NaGTzzcLvfHoBGwzK1CYXf6LYcXxYVAuYike9Nbxs4M359bBnixadDHOpuZjxs0O2+iAXnFUJxuvPk42J51R06kh/dXmZuz8wlbxNGc3H8nN/Iph+u+jmfIif6RDb8rlI5yumMHFxstJBjNifcRLBp565obka75OPs3nxJvNVwN2AmpAm2nwXQL5Kx54zuPnv7U42CgeOD0yc55OGC976aOZF1+52pA2PRoM2qxsWXeLczfQbH3p3ynHT2+42KC72pl+si02ozXdIFq5dDA4HMzBbHIxVIN02g+2AP6ElX6x8abi3pzx1WEO9uTxKgAsqY50p14NqOkaGtJ3v07ATsGeBfM/8ZyvMfDfJnVqFBNM17gGU2baZLsNQo+HbvBZ/uZo1uSqR89zTrf+3hxaumLLf/rZz2eYLLvBpLPRGibHztwTftHIts/m+c8+mepZPns+o8EXG6/ApiM00OmjCfALHDZWSC86GXroBe5qd2VrNMNppwFbR9OATsCwGGpGcbHJdnGH+eY3n2tM6SQfLuZwcumXc5uEn594sM2xsYZcDXR6bbj8O+U836GvTcrvtNu6eMLFewmTbYhDTBpuvrEo32knHbi87YF1kEzriS823hSc8wLhqM2veIpkKAwgK4DwtFOQFVGRJax52NZcmo2Pms43HxpyjmTId0vmr9OneOdVuxZlT2bGWi5h8qActsVYyykfalN9bKrRSR/dWu5OfoOMelQbODvsTvv5vg0u7imbD/vGr+YvBj4Bvb1c0w0nU4zFOf2ZX2y8NiNjKVtH0xROJbICVyxXTQ0o8Ok83QqQnYnJtyHs1YR8raMG1HxGzUdHozWs5ym9NmW58V2RiwmveOE5TyZM1pydmYemathYjWbIr5rNpkRTw2kvu3D+wpvgzsvK31uLE50/DefEhTuRd8xuNagO8dkwZu7tfzLhi42X0B7OgQ3tS3YOFUwBO7JrxgKgtwa8rvmbwdc8nYQwWidiTacJO/3EVbPBNWSynYxsgWIIV8SN+eQlHt8TyAbpib/cNZzbZu/ga7DZdDUhHbrqZWQv+3fFYmZj4vJgK/uweGo8F0eNlzyZIBrcfNoTu1zmvqcLX2y8gpqGM16TKaa5TW+jawA4uTYBngHh7yVUkHjJNC9ZhbFhNZlmal5zzmbFX0/M2YBkG3yUv1isNRz7zdFnbBW5XMWm6eatq2ZLphyqy7RnDqoPvyusccYXa7m0LzWDNcgXLA5N5+MbJ56LA70Y6K7A9xzF2T6VYzam/sXGK9EMTkXG0AWrmIrsllvTSc4mkylhchJsVGwyez6mP/xZCLySVmRzuNEabgPgo+aLXtz0QHFZ45HLB34xlWPFtnGaTn26teIBNsu9WtBHz98m+ER2zosrGoxm0IXFJ9cuMjGLXf3FhQ/EXtxidCprPIeJuIoHJpsPuvmcOLnsdpHxkc42Ob9cbLyEjjBHCphDDmouyUpekoIzh9E1aLIFB6MZ7DX4Np94W4yXkkeac+v8h8Vh2Ih1tEHFnt9s0sPLFvs1njqIHa4GLkYbbRPx2jx6rWvAmS/+EawxkRNPeYlvDjmKn970T89arC6OvhnptBNXucH5pcce4HfWIh/k5dfervp0n6rxGOCME1iwir0mPjcYz1qh2iQ6hg1qI0q6hMP5XHH8imJtLjYQHW5UtArY5sFo6U15vNZ8GBU6zKc8YGOv8NGyAeeveeuNcX7hN9qMvXp3wvUmKxmxuACKh51iddKR8ysXo9OO7IyNfDUphuoQRqeT7bmXM3ZyT914OSupnGmimkyjVRxYgWBB2ki3Z+vVRgmQw7OetApTDGH05tvkFi8VT3HbsFmsyc/c9FNsxWTdPPmJ8UE+Ji9fE3dRFB8cTe26mKPzXfPbi3n60qsZfQ/sxPPjg/mV3Iy/PItRXDOOciBHz16x34lnzeeEB2m8aZBzjmBDABUjPE9Ac43oKsUHgq9oza1Lhn0Dz8gXDFpvi4OXZGO3zl708GyCaR99rrNDb86zE26zJp4+qlW4i7cGq+nC7KqJzdZk8FqzaBrVvOdzcWo6azrlEy7m8Iyz+JNtb9jR8Pyg1XjkwGHjJZCzu+A2jw2FE5xACrhiVcyaSEFqPrL4YJ6GydZ0JRqOXiHWPFqH2V/nc40PKvDN6v060aZcuU7enMeH5VyDzdqY7/HRArGWu03udNN8NR6Z6gLzhW/OFn23XPorTF/me2s0tvLDDvuGeNhfa3rYeAJYhdegLq3pNsgJrjUsGAF69pB0BW8DakqnoXknYpuUva6sCs4m2iwEf4F5PLQZU+tZ3PTgSac316tcPHgd2UKXm9x7Pgujy1WsagU3L2dYvvHLu3W58WeeX3x11xjJsA343AP8NQ+yaMVWfDUdLL5sFwP7h42XE0JTwfq2QI/TCsgmyB5soJOZo8Zz2hltkE1qXuLW2cHnMx/5s47exrSeeAvw/CKmaQO9+JNZaTMPvPKZ9NVGMuULkxGTOGdzzbUN7SJb85nxzbl85sCznvFV01WPzKyHtTEBXywazkdJR6cdncPGw8xZwaLdBQpUEY8CZS/75ABZQacTriga0ckwmzI9dPJkNWG6FcVGKs4cbfIaR/FvQY0XNvMHFxc6n/nWRM3Ri4fObJbynk2mqdQAzSBjiCl823j5C9ac1phnjMnCxbDmzq545APgPjSv8Yp3E3jystt4jNtU7zb7Q8pudZzfFirKDJ7dAmcnXjbTmespj26tODUd3AbXAOtmW7OtAI18hbNtPX1aX4NVJ3m+2ILBtKWWa/Pjk8UzOtHQ8KZ+Pla7/E25OU+HjFGdwupqns10yyM9OCCD3xCzR6ejZ8b0dhtPABrNb+G++MUvnv9jjC9tP7+uICnvYYEUjMK2TtZ6Dyb9aJ6eJNmWpEIZsyizkHIxJtDnI2yez+at07OeBUefMmzhh9eYph0yhno2n37NVzr9I//lng/r7EWbGL+6uGibZ7+8iiNb0ae/eMXrlPPu2Klnj8hWixnDBxovowJ65ZVXTt/61re2t9pOP7+ItdlHIAjFdI/n3GdEAhFUAR7p3pZecbKZnuQaNZo1KKfo2aiQMNpcZzecTPbC6eQj263JkUmuDbJW48nLJgzSWecbc4dP3mZ3QHThJw+LS13UImyOXizwjNOcrRWSj2+vu81684I+6zD1P9B4mIQF47T7+7//++0rrm9/+9tbA15rPI77x8bf/e5339URZMA+CJvjzzXabYCOIV6jd4WwiwW2wfPKVvD0Zly39Ueupi7u7GXDOsjHJZz+qkfHBsJ7+tE0hr1x0bvN2QfrGia7qx/rad98rvOLRjZ/0eVortn5deAYHTj5rRbh3cbDpODfQGg4t1ofMPo6hYMjkKTv+v7jP/5ju1X7V+6+eKZT0PA6ZhJHtqPTBXSmHY2guTzzeUzQdH6uZa75ehbs2bCrnI3ZiNnP3x7Ob7zW4ehHOB/h5KZ+NbHh6mpdU4QnTZM5ZWx6duWl9tUqP3D2p+3sxUv+aB0d5kd/2G9xiAcdFE/24N3GS9Am+aeHNs+fnqiLp4E551yDSti/F7D5miF7yVrXKPiSr5gwKOipM+3MOZn0JTx50cnwmV3zmrCm1IzoYNrYCOMlG8nA9OZ6z8Y1fi7YN4o9rE5qbB/kad4Gk8GvkfIvLrxps/inD/LJxC+ecPy5LibN5tGqHxmg83sEu42XcLcvDaQBL4GiKog3JI5cz4dOmrkh6ZPVcPhGwcMFvCbZpmVjxeRtQhtgU9oYGL1RYTv1xNJtuXinP/PW8IwtHj0DJLs3T34THC/FBBfnxOoiP7fS8rGuCW28usNoyRzZmznke4TzvunKX3XFwW+/5eNfvEAOqz76xcY7KiDFPUj+qLhTh0zvnNswxRJ0xbQ2ZqJs5GfaMycn0eaS75lHg/NXwzvl0DRcAx+9C64TEKbXqMnKM1yBi2EL5MlLMjP25ukVt3UXoFrIoYf2mgstXg2IFl3dsjHtsr36m3EmO2nk5STvqY8mBrdXdzpYfPwmR2b6y+7FxkvorjhnFXbVLxD8GsCm1ngVT1JGBWQXpJ/duU6WbfaAOfuzoazzreE0H6wZ0WuyMFp8MuhrA+7FU2xiIA8XU/IwuYYcGhrOs1PPTza2uoTlaWhAoxpUr+lnb16MeOIrxmRbTx7bfIqvf3TuNmuNziYZY9rP5jNpvIzv4QJSIEFKpjcBGqNNR6uQElFkuA0pKT7MA/b4MCoYnjVdtBqmRsxnOHpNF9ZwRicjOp3k4ZqrGGC0ZPJdvPjlAstR3vJ1AXqzoNk66aoDOXyy5tWGjek7P7MW0Y7wrJEcxZ59c8Cv2NTU87xPMqyLp5zEwh484UEbr+TCq7McowtY4wlUATVap47NZMMmk5M0OWMWHm8myK6R//zBbYg5fkMj8F/DTFwjKT66uAxxNd/DZIsFTrdNZDd+8cvFqOF6ZlOjntvw6dFJlnzrbMrRfMJcz/pUh7BYxWd0YcFqxBc+f+Jy0onNb/l8xtt+ltNeHMX0oI2X0dtgwSmGApprLol1O7Oh68bbcA1Kx6ghuxphtvDmJqzx4FV88qB18zYi3IbANRC8juLejD55mTptKr9ziL2hDkab7YIjW/OUW3lbl0cy0/8eTV7lVJ3FXj41HgzYaK96IwFrNk3nUSB+/sIzluYP2ng5Cs/NzOHEySmsoBVbIp0iGs2oGPAsRBtF3xxuWM/N2vOLVgzx1zW6PNBtVGvzmhJu88S48qznyJ742ix4Drw51risG+wF2S7OiZuLpcYSb/UO4xlsiUEtm6uv2z6M5uLQdNYT8EBxt07mQRtvNZ6TS7jitQk1kIJoxG5rs0CKAhRQsVpXJEVgZ25kczL5nHFVoBUng87GUY7oRg1WfNHD6ObFIJ5GtDBZ87tCvmBQI4XV0rCufuJOj45cxQXbB6dbda3pyKkzvjizUcyX8njQxhMIKOGb1d1eJQsEXdIKJKmaz3rOFc8tGp1eBasoCuPKNNg0ZlHytzl+8iIHMsG6jg6XbzGzH23y05l2m4f35Pd8T/vpRIONLgL1cQF7hu5CVqvqSl8zGWoEV6foaqie4px+6KJlD0/90eYgN+GZNN50cJd5SRU4rHiwhCSuECUJV1R0c3INuhpSk1b4bPNlbihy81msZOQw6TMn9OA28z3Z4sUzD8/5RnzCTz5cg9VIcDzYWg2MeHJWMyD3LtIarcaD8apTObLLb/bNs002ufTIgejPVePNwMzXYGsQxZmJmxsSr8garY89arq5QQrAnivZqOAK1UimQk463hwzXvMjWHNKrhysm4fb4Lm50cq5C1CuGgx/xi/2mqg7AIxWXcnPXMVSjtGLv1jyZV1M9IJq3Dr8zBqvgHN0V5y+hNuAIxsVA5a8YlRcc5syNwiNbIVmlx45tOyhJ9PGtUnhNqR4w3RXmHbxWsPG3Dzxtp7zZKcfcgCt08lajNZw8/VkE78Bps2N8OQFPRmkaqmOxTbjIpOt6oM24Zk0XkWEJ6zryZtzQQNBl9DkX5qTd3p5VmnjwjXhWjD28qOQk49X4efmNYfF2ajg6cHBzD9/eMXXhk48Y5kNlv8azVre+RcPHhreGueMt/guYXaLGZ51Ki8yINtwflfbD954AnLc+7ytn81LXtEKbA2idUWDBT3XydwGK4SEgwo2N7Q5XhsPV1Abbo1fHBWyYqKDcP7uQlvtF+tqa9LbWI01G08c8cRoxC/GiZuvvqyLa/Ka4wVszJF/GF0Me34etPEE5Hblb6P4j/Nee+217Wcy6N6OCwasSbXGF6hGdass+JIMk5+wJna0Zs9GaC42sgPXZM1rxmTyd2Q7ejj5I0zOYN8wL/8ZS/xweuFqFI4Og2nLevKbTzo/E7IzacnX3NlZcXLTRvafSeP5Aamm+9u//dttk/2S2QfDipPjmQganmbz4aSvYvo6RnITyCpmzVPBw3tJTn18zbcHM7b8zAZsE/mOPvGqv+cDbcZoPfWsg5XeetUnHy2cDbjawLNZJp2eEW21w3e0Kcd+a/MV0lnpD9p4NsFt1m/xXn/99dM//MM/nP76r/96+wLZiSeIijcDQVMQP6vxh2P+7d/+7fS9733vA7cJcvno3Rs9jdSzDB8lO4s1/d1mTtfQZEbPWs2tG2Jx0hviS3fF/BZbcbYmuweTnr1Vbtpa7Wkk9XFR24P5OV1NBteQ4XjZzqcY0PCb4+U3uWv4QRtPIDbDs50N8Jz35ptvbrdbiQuOzApkNY5fOHz/+9/fCqUB/cxmJkfP2ub3YSibitUn6+ZHRVv9ruuKx4eYGnLSVDVdTabhfGRj9AMHsumtmF0D5CuMtvImLd1k8MDUX/O2Vg93m37hYq75NONsMvVnm72a6sbDe49G0ze56TvZ2+IHbTxOBafgNsJznib0bzYkswclozHdomEnns200fHTrTCwTeYHVkS6hsIa5hU3/fBqFz0a3Jw+EL+8xGTT5saRseZTLGRqUmuN2meK5snkJ1+bo/PL3qYeyaYDi9EQj0bSbNWhWrAjD5gsufJJd6+h8r/HmzGYTxlzuis8k8ZTdMkpMpiBrAG07lbsJzZ+Pk93DZiditPGk7Gp6E4ghezWp+gV1maQAXvxRJs+o6Urp+b5h23qbKjZdJpMfGQ6FWtCPP6MmsG8POHJJzMBD8jLSJeevNXUF/ga0LyY5WBukDPQ6M2x5ysfk9e8eOAGHpvlZw4evPE2q+eX6TjaJVyzXtMTuIL1ZsWGKqyNN9jxrrqfTymqBmwocEW2WRVCbOaGGCZEg9tkhWS7uK3niK65DLG5IBrFO/nmbBQHzE4y8Yu1WOSz5tntdf44s9xruJqveuR35t4c7wiqFzzzliPgx8WGl51n1nhHQR7RSzo8k1l1FLzTDFZkp0nD5tqkNjeM3tXdJrR5/JpXGD6LJf/x6IqvgV+8GmfOa8a1gWqmGZs5+YA/euhij48u1nKwsS5AtXCyhdGM8qKXDpyN8grnP4y+5tq6fGee4qz+dMU082L3uWm8Nmsma75XDDRD4YyuXEWWpMRLXsI2zwnoJKzYGtCgGy072YXztcZRvOHihqNNvG7Q3Cjx1ZjJZaf4k2Fzxmde3BNrrHIrtmo2c5rz5I4w38UR1mDFHnaRkGXbRQCqZbafm8YroLtiySkwrJGcfhVF8zniDY3nRKwgc5MUxUbViHjzZGB7Ldy1OOkYAXuA/6A53KjxrM1BcullW0zFFY1Mfidt6jYPZx9O13yOajobrYt75VmLy0GglurKFhoMnpvGK+GKcVucno0tMXObVvNI3HD1KcrcUGsFZAdmw7BOvyadvDknWxziXtfRjnJqM+K3Ls7o+eAbtJ7zdDeBnZd0koMNvvbGbCpNN2VnLdlVY81mrnbmDgJ1dwrmW1jPTePt1OhOpJmUudHJJXEP2QqleEbPTJrNqIhtBMyGAta45mza+GyjzSYs6OIJZy/+xHgB+XTYDqbMStvjZWOVnWt6jXmSNa9e1cea3dn41mpR0621qj5sTnj/anI+5Ple8e4aQsWuMNOmeY2jgAqkGA00MnAj/06C+dzCTwVns+JGn1gs1rM5Jz8faNegfMLJW+8N/E6xPT5afDmrRetsw2KbF1oXX3lXVzVtPvPNBswneG4ab4vm/FJgre+K20CJK2IFZ2cW0G0gqNiwq9sGdJXXmNFqQHb5UOg2wJqPRrzwumFtTrGlV1wr3qsN2ox/zsWsodDM41WTqRsfTWMl4P8AAAMBSURBVFxiVSPNZG7IoxOt9ZpzubADwttivDw3jafoBQk3H7Hu0iZ/nbMZZA+edPwawMbMonfydRrUlNbZq1myOTfXZk5+m5S/1umKZc6tV8gvenM+zY3pf9Lx2M6nJppAFhTv2nDz4jHPTvLTVrFkb/KaPzeNV9HaZJtmWEsO/y6QfEVoE9hgb0JrshUU37qNhMXSiJdca83ZfMqu/vJ5hKd8c3YntIbXkRz7Ro0jv+Y1UDknO2XMG2wma55P8z3Az6ZatJ9kn5vGs7E+9vBXqXy3++Uvf3n7QzCCd6zD94GKE2ZDMS7B5KcHizGwBpMfbeqbJ7PqWk/Z+CtOJvuTP2mrn/TCq17y0waZ8oTpNqZ+81U3+or9mTu/WvL9PXhuGs8V4QNeTff1r3/99Oabb27PGGieNfYSjFZhrZvPxJMLH8ns0dnJ7sTZgufcZllPzO6Um7Ed+Zwy6zx/0+6RHfQayInjREabwyk2Ydqa8ylzbS7GdPnVdN/85je3vaX73DSeQJ14AnzjjTe2n0T5tYofDXjeqNjXEn7W/Iq5+lnjW9fk92irnYder/Gua/72aA8VKzsaz53MD4PtLXiuGs+pp9kEpwn/5m/+Zvsl8qVbraJVpDnfsrvDy9Sdcybm2nwPimHlpYuf7iXZ9I9k8Fc76zobU3bS5jzdSTMv3ktxrDpzzS5do7vZq6++evrqV7+6iW0PKmeh/WpOSx/S3LHv1upDX9+7Gh6CH+HjWYEazy3eV5a+ujyPczue4XlqPNeA5nPKwZruObouPp67/xFHrfk8Zzr5jHMTPn+N91HVSHMr0B5c4u3Jf5xol3K7xHuaHM91fmy8pyngo+79KqDv3vtg6n42HrUeK3CvCjw23r3K9qj0tBV4bLynreCj/r0q8Nh49yrbo9LTVuCx8Z62go/696rAY+Pdq2yPSk9bgcfGe9oKPurfqwKPjXevsj0qPW0FHhvvaSv4qH+vCjw23r3K9qj0tBV4bLynreCj/r0q8Nh49yrbo9LTVuD/A1476mizmMxvAAAAAElFTkSuQmCC;" vertex="1" parent="1">
          <mxGeometry x="83.17" y="350" width="83.65" height="90" as="geometry" />
        </mxCell>
        <mxCell id="_rtk_seP__OtfE_5Taxq-4" value="Input Images" style="text;html=1;align=center;verticalAlign=middle;resizable=0;points=[];autosize=1;strokeColor=none;fillColor=none;" vertex="1" parent="1">
          <mxGeometry x="80" y="440" width="90" height="30" as="geometry" />
        </mxCell>
        <mxCell id="_rtk_seP__OtfE_5Taxq-12" value="" style="edgeStyle=orthogonalEdgeStyle;rounded=0;orthogonalLoop=1;jettySize=auto;html=1;" edge="1" parent="1" source="_rtk_seP__OtfE_5Taxq-7" target="_rtk_seP__OtfE_5Taxq-11">
          <mxGeometry relative="1" as="geometry" />
        </mxCell>
        <mxCell id="_rtk_seP__OtfE_5Taxq-7" value="" style="shape=image;verticalLabelPosition=bottom;labelBackgroundColor=default;verticalAlign=top;aspect=fixed;imageAspect=0;image=data:image/png,iVBORw0KGgoAAAANSUhEUgAAAK4AAACqCAYAAAA0nXT4AAAAAXNSR0IArs4c6QAAAIRlWElmTU0AKgAAAAgABQESAAMAAAABAAEAAAEaAAUAAAABAAAASgEbAAUAAAABAAAAUgEoAAMAAAABAAIAAIdpAAQAAAABAAAAWgAAAAAAAACQAAAAAQAAAJAAAAABAAOgAQADAAAAAQABAACgAgAEAAAAAQAAAK6gAwAEAAAAAQAAAKoAAAAAvkAYKwAAAAlwSFlzAAAWJQAAFiUBSVIk8AAAPvxJREFUeAHt3VlzpEfRt3Gx72Aw2OAFMMEJ3/9bcMopOMJgFmObfd/ed37NXDP5VN/d6tZIM5LpiihlVVbu+b+rWy2N5mP/79G4uoxLBR5QBT72aHz8AcV7CfVSgScVuAD3SSkui4dUgQtwH1K3LrE+qcAFuE9KcVk8pApcgPuQunWJ9UkFLsB9UorL4iFV4JNbwfqEbM7//Oc/W2IX3kesAo8+ZboyP/7xj+/mfU5vD7hA+u9///vqn//859Xf//733fzHP/5xhX/5yPc+t/LmsQXYT37yk1ef//znd/NTn/rUDsTO7uPYAy5wAuwf//jHq9/85jdX77///tUf/vCHHZADrmRaS6rkVt66rwCTHy+62o4/af7wrrO1ykzdziYve/Hak11HMvGTjd/eOd66X/XaT7rqzbPW+bOfPjpHD8nEd8t+4QtfuHr99dev3njjjSvAzVYy096LXu8B1836t7/97ep3v/vd1c9//vOrt99+++qXv/zlDszz1r2PybzoYj5U/3rptv3qV7+6e2X92te+tgMx/n3t80Hgum1/+tOfXv3oRz+6+slPfnL1l7/85epf//rXvX4KHypw7kPcn/70p69ee+21qy9+8YtX3//+969efvnle/0+dw+4Xh68v/3zn/989eGHH1797Gc/u/rxj3989ac//en/vF24rtjP8qT2EnXMxzn2T7G3+ror++fYLaZT4j/H7rSX3mc/+9ndq+oPfvCDHc33faV7wBWoxNyu3usCrLcNgDxv3Pua0CWum1Wg72tQ35xPcN/M4t1qbQKXS4E3+6Rhvse927Au1p93BYBVf82HMA4CV/ABt0TWffwLfbgV6K3CzECf7/s4+JMzCW0ldd8TusT3v1GBg8D930j/kmW3axfVQ7msrgXuQ0nkAsH/rQpcC9z/rXJcsn0oFbgA96F06jnG+RBeZS/AfY6AeCiuer97n+O9APc+d+cFxPYQbltlOfo57guo28XlC6pAn9FHhTHXNwnrLh+Cs4ArkD4+uUkiF537V4HAVW/7KanfV/GrjvqdzLHowwXZJv1TdI/ZPXS2B9ytp+yunB8K6sJ//hWo7wD717/+dfe7KZ/4xCd24NX/AJxc4Fz3+H6Xl27zLvCzB9wC2iqdIC/jo1WBCUj/0qXfww58bs05wkBgbE+G7Gc+85kn/4rCL6ann/y09SzrPeBuGZvBbZ1feA+/At4i+J3rd9555+qHP/zhjh67xLYy9svoL7300tWrr7569c1vfnP3ryn8nu9tg5bvPeAC6QrUHKPr2VYCF97DqoCeAq63CO++++4OaF/60peevE04NRu37SuvvHL11ltv7Wz4lxSAHH5OtXOK3B5w78LJKYFcZF5sBYDX7+J+8MEHOwqE52LBP7T07xO9zfAvKDwId3XR7QFX+daAcx59sSW+eL+LCuitfygAeN4y9N509TWxQcc+6j2ttwveKvgHCOzd1dgE7l05u9i93xXwdsH0ycKhEXDXSyy+W9bNvYI2cB+yey7/AtxzK/YRl18BuaZ77NxZ5wF56ju7jp/+1LNe9R48cCW0JrUmve7XAp6rv9qzZ2Or6PGiZOfa/j6NQ3mcEiPdOeXZdJMfGnTW8+ykww5e48EBt+B7D9Z+pSWIHgIKG+mRa12R7M2pH4+80Vly7dFDM73Od4Y+Il/kBITeKnjL4bPhU/Oshqje1B/7ddxr4Aq4oFujW0l1vibYXvGM5KKzOHiN1tH4KF72ovhzrXn2pvU651l68dh6iEOO/tElsPoG7/e///3uryHNv4pzLC91bdLxycahH4TcS+AWfADtR4e+Y7VGTSNZtLG1XuWyPSmZ9tmKrqBqP2ngpIPffqWaa7qVzPYo2fR3iwf0Rey+OfPHZPwgw8djv/3tb3e9Kq9D6aiX+usvsH75y1+++vrXv777HNinFX6Q4azxQoE7AVZABS9IIAJQiTQl0JrsnNmIzrMAucXja06y5OYIiCtQ409wBkBnree5l1CAdTP1cto6+Xyz8VBGwPX35vRIbn6goZ6n5qHfn/vc53Y/efve976302UL/14ANwBJSkACK7i5DlDxAi3KRroBU5MrEmrmKxoQ2rMx7RZH5+hqNyACWmCbt6dz++gq56ypwaaPkQDY7Ixe+RT3faUB119AEr/fe3DrVr9jcZejPvip3VuPfvoGwH7y5vbtPBvP/cadYAgwbtFm72sCT4BcAdz5BBxZI5AEqMBb0tH4xcG3KRb2e6jQ4qZLz5yg1KjptzU+UHYe7TwbAdcfHPRyiwJyuvks9vtIxShmgPUDiF/96lf/55Y8FLPa0jXUHlgNf8vszTff3D3I6jTHcwWuAIEAKMyAEg28gSbAoOYEaQDDowd8hgS7tbq5gGRt/NzTaY/as8umWOZDMwFMztnUrbjZAdTAC4Rzdia+ZDQeaH1zA8BoAObPvI8j8MlFjHKwPmWki+qlWvjGTu7qtZXzcwGugAwUIPyBNS8DTSDEDyQBNZ2AE7DpsUEvHbISDKztA4ezAObMsG/wyRb9YrE37eeURznRLz60eNhbwcs2EDY1F69mi1G8zoHW32vzd4r9GDZZ/rYaiX8fRjUV403irBbZOZTTnQM3ENZUgOuvXqPdnDWcXDpooAhAwDuBLjHJzhsrgKCe2FmMaZtuAET5CpSTH4/uui7GCWyx4hsTvGIJtCgwouJLDiXnDHDViz0Aticv15uAYhfQHX+pPtHrADjDSWelU6b1nQJX8wIcsAXabssJQHJAmfwKhADMZk12KwEnamqqplcsBWhNz2S3h6WHpELZ5x+1J9/anqwxdcoz/c7yDWRkOucf+OaDNcFr7cxLpVeXXmnoe+8I1PK8T+CVa7UJXPbVIN4pNDvVsf3UvRPg5lDTFR1QfRZnWuM50wizvYY2a1agEbQidBtpqtnLabeRZrLZ2wl27IvFLe+71D4bzL6YrecsPrTiiSHAlCdQtkbJJNda/PTaowAqHxSQA297AJVHNZmxstdDytaLHtXntuKojuxt5XcnwJ03W4ANSADU1AjA6gw18QtcEzXQDYQCq/d8Xjq7afGsNdJg00cqgMJO/oDWn4v3wbZfcu6tSsDsVrS3noBkVwEDn33NiuIZUy55vHWKt1s34CZvrxZA20PcgySu/JBj96My1lrKa4t368DlBPAU3J9l/8pXvrKjwFPhUTLdxEBmBmBg9bLvFgXSdfqO00smuaaGmwbfBj+abvAPqPOflohNDM7mmIUKFCslTy7+1HEWAJ1bi7MY23sQzd7ikCE/dQIt2gMIuMl5YIH/RQ/xrDW4zZhW27cGXIYVNIC4aYEReAEGP8Bad5NM4GigJqBuUbeqzwRN4AVWYHZGpgajRsVzC7nNyJgAgRffmWkPRGLvlp/FZi8f8dcC5rvzqFzTzwZfBoqnDgApxuIJ4Kippt2w2c4u/vzYiPyLGmtd7jqOs4ArOEXbGs40wq05b1oANQFDkwDVxAvMdHs74AYBzAncmpNMza2Bazz4QOkhmGAFEHY9BPwnB0jiBjaxmIFrK1/nRv6TiXY+4wKy+D0kPcBAO98yBGKUDrvisc4G2+LNbg8zuec9Zky37buaRrO/B1wCq9B1gTlXRIAEWt/89A1QIAXawKpx5A3AMrsde+nTNE0A0mRQ++KLsiMGTVwfEHuDLH3gd5MDDV726IovIDibc2fk0Rd+qsc8t250vu7T7bwHpbhnnoBsksVnPz12rYvVvjWdcsJ/iGPmeSj+PeBSOqQ4m5PBCggI3hJ43xhogbhvzgAYeA2gNAPr+lKpCWxprKaR1Ywa0m3IVjHREYObk26++e2Go8eWh8Mt3oNBl15y7M7Bx/TTGR4bxpTZqmE1nXLZCXTyVSM2AVBdyFvnhyw507rBPlmDnlo9r8Fv+d22z0N294C75biCbJ0xrIgAAqTduH3DBcR43Xy93PdeFYgCLvtsAZHbj06A5QcwyWqi2Q1FTxPFwFfvre0NNvideuzUYL580wY07ExA0J/FU4vqgQYocnMkk277QzLkmmQDptgB18CbE6/6VIv2x2Kjd9uDv3J9VtvVatqba/b3gEspxQJICZ1n9gqp8W65bjq3rn+eDAyA5BxI+pTAbw/1cZammAoPMMDJLhCxDcR82gMfOQNNV7Po8h9o6dHn0zd1AQwvgPef0ImTvXKfOfIlnsDsrAcgkDifMumgp47Vhr3Bh9jELV+vGNbicRavWvTqJE565X1qHDeRK/ab6G7plHv9ILP2ZA+4KW0Z3OIpYsDtxvVZqT8MgTpTPDerb4p+/etf7ybgKrYzBQ58gGv0sg+wbl6grBFiJA/IHgjNwgNWwEXpk+mjNP7pk3PmlYBvD5Y4yFaoWSTyczqjZ9IxnavD1JMDfsP60PmUI2PfQ9yrRmDFb8233E3fnM1XL2diZG/1W0wPme4BVzKzkDO5WYCKq4jAFWjcXm4yH/IDEbD0sdZ77723+3+B/dGJPodlvyJrCpAqOLt8eBjYtq4RrbtlULGRA0Tx8IuvmfxrrAaTC9TiA/weCGczR7HFE1t7tPx3zMdfxIc/h/2cZOaY8vlG8fmUCzpnDypbgVeOXl3kK28y8nJ+16N4b8tPdThmbxO4q8KWoQoLYN2ObjE/kQJcFAj9Mw7Tf2Ttv1f1O5puQQWuieyXPLuKzS59YHRrW88mJKdBGsWW2wkYnfEBrB4Q0+2cvoYCBF28fJd3+Ubxi5VtfPEFZjbMZPDJdW7diNd++sCbe7LyVt9ssiUXcvx5sOUjb3l263ogTXrkpt183yZlf+Z5G7bZy2Y0uycBd1XKoKIoKsAoIOB6e4DiKahiensAsKb3twoPNIeKCaiBig/7bskVIDWUrd5nW/NLlh1TLPkDhh44toF4AjG5qGJpvil3PnuwqgVZ54349s7s57DPfrTzqZuvVT9f+PLzSmMCrvpGqwHbq5/83QZd43sWm9kSbzFHs7sH3CmcEMqYmQFrAND0vikC2F6qFdZLl38sB7h9Q+YWCADZjWqS6ZY12e3GBVwN4t8NaxYPexOI7GXDAyRGDTTE7CHzqtArg7jJ8G2UYzQeP/nC6wEQR2f47ODN+LLt3GB7Trx00DnI4XnIjPSs5SV3+bp1AbY53wZ5cD9KYw+4FW8mWaHQBjmNU0wAAwbTGsg0UuH6rr6X6vTYsdbQbruoBrClGQDFj8m/BnSLFGs2i4VNwGbHDJh8ArJPPfwZzG9961s78HrYxDzBNXOlZ1QHaz4NMRvl0tqefFQ90iGT/Wlz6pJtxudLPdhSA1M98NRLjb09UnN9AGB16BWHnYcwqo1YZ81m7HvAnYfH1ooITIoGYIEWeJwpqIIpLufkAgi7ARZgnAVOfEUHNnbxC96ZNVrDpx2gnD7EoHli0ECyzn3j6A+zvfHGG1ff+MY3djx+Gtm25y+f8mJDzK2BiHxy6WQrOm1a05uy7JrsxN+yyS//cg3A8lR/OXqLZA3AgIzXzasOfH8UxtNunZGNAs8CKpQJaAFXwRRU8RW5D/jxFY8+sDijh5JVXCMgsUHHcF5zUXbQGgnwJlud02erWNzAfeqBits52+yh+dotHn/Jt22xWweeALGl72zaliO9bJaTffps0wng9s7wyIvZA9/lgC9Hny4Ab8BF1ae3aNlFH/I4C7gVFVU4gHODTeBOAGqQJpMhX5NRxe+lHdisNcGnAV7qFDzws0NGAwIAu9YoPn2+TXEZNZ0u2+TJ9ZCJge2ab7816BkoGT5Re/oAw5epNtMOmanPTrLJpYOayUw9686ySR947a3Fodby7TJQj17R+BXvR2GcBVwJK57GBTqFMhXKVKQaqUgKik+mIisgvqIqsunMbaEJbgy/SwC49NjDBzh6xYDXbcuHmOw9JNadu2XZMmucl1Hn9uyRD5ABRL5kouI20gkI9tZTdie48WVLhr98sjNntjtn0pods16oi/zUUp3QQKu26sKWWn4Uxo2A28tUtxtakZwpjlvMy5NiGYoHQAqtMRU8wNvTI+fce1O3rjWeRpAlp3EaVeP47uHh37lJlg79bGluL5v44tRUsQV2uo3WfMnFtA4A1qaRbLrRyd+SzV6UbTN/1bCHlr0mnoH2EE/gqo285Cp3esVQfA+RngVcSVcgRVIMRakwgQbYFKnvcoGQLF3UACo2zIqvoM30yfXNBf/2yfNjDZy+mdMw5zXcuT09a/F4K+JGBwxxo/TR7ImPzqTO2AV0Z+Ya/07h0ZeAkVx8NozJJ8umMzHIVe54Jp/O6MjVrAZoM5uAqg6mvOxNddefhzrkN8fZmSicApgaF1VAQ7EBFTj6MWTfICigRtERSM2yxtckdgDKDcoXHXs6RqAoDjcxWbSHomaT5QMVl/fOYjIDLn/zl2x2Th59mYWiT56Nbmv+DfrWyZO1nvud4OMv+MkXH9vAynafBPCFL36TTpNPU02izgw1UIsVvGpIln9+D41jZ4d0XgT/RsBVJEVrVhDFBlK3Wv/kBkg0xFCUeRNoCJBpkIJaexjcnj5jpWfv5lB48hpcI30e6yd1KICzwVYNr0ni8jABrskuXwag2NPB6wFxJl4Tv1eAcpGz2MRChi8Dbb1jPP5CpqF+ZNjtYRCXGGcsbBvlS4duYI0vdrEUk3oF3N5iBdxiOET5mLEeknvR/LOAOwunUPOJd1Zz/bTM7PcFNKdi1GgUnw22NEQj2VF4gHRuryGd07N3s5AxNQfPGRumQZcNgDADafGggDL5xcKWwVagDqDFhBqTj1euu8PHXybfOl32q5uHvgdz2rBurw7txWgfZdNeDh7kbl71VC81MmYsj8N7QootH08O7tniLOCKXWG6aRWoiQ8Eiu8TAW8VgAU4AhQA2AOKhtGp0GwqWrJ8tVdEfDK9FLqVgdY3VXhk2DSt6Rpi6jbj35nBnr1zcZLxloMtMaVPjg6eW6tzIJA7mnw6aH6s47PVcG5fzD0ceFNuyluvZ+ywn17xBF4ANot1xpbtqDzoZ09sq79kXzQ9C7gSMiUXeKOSBgBvDfosFig0hI6hyPZulYribIKfDHAnV+EqKFmg9dMv1G3CBnt0yNdMPDF4iHpYyIq1RosFaMXs5XUCs5hRefJNt8mWabTme474ycyzYijmeXZozT75BvvxUBOvh7yHzV7czg+N9MjyoXbZPKTzovhnAVeQkg+4qIlnAA7wmoGzQu4EHn2xr/CziBUI2AA38JINKEDlVvTNlAm0zuiYZLOJigdgvQqwV2PIWqOa42HrjxF3M2k42+Qm7QHCN/Jn3zq6nqezU3ysK+YZt7NpK9lJ2acz5fDmFHN9AsSAW72mPWu2yKuxG3rWdI1v1bXne81vS+62eGcBV2ASb66BSnAmXDEUTVEaJcmOQY4ucAES0FvjGYoJUN4WeHvgmzEATi+/2W3PDuB229ZIgDYN1G1bc3s/WMzliIq3PV9z2MeLOreeedJPFuVfzeI5N8sdvzHXM450o8nzK+c58dhebbHnzAPrlUdM9UCMq04+osXT/rbpjJftk4E7A5Pg3M91xQK0bq0JAgVQCIGQTb5EnVc01DngsgWsJnDZV1i2xGBmH1h7bwvA+SsWzSSbDlk3r9vZw5Nv/o3sW69FxGtsneWbT/b4NfFRvsypy1/7aD62KJmmc/p8zRmA+Zr2s4enb+pLpjqwK85Dg95djUO57wF3Jl8wBYa27gxVHEXp1vJSA2AAh6cYwNpNihp0yHSj2gOkIgGl4hnss9M3GtbidE5WTHjt2QdCH8kBZEUvfpRN9rJlb/Brsp/cWpPOdgpHvtA3Zn3kKM4eOuv11qWTz2i2omQaZIyoNTmT7ybfzeySbZB3rh+GOhZfl02yd0m3clz97QG3hFfBaWyuk5MwEJjdjgATKL3v7SdWCqIQCqowBn12gVxT7enXdPxskVN45ygZPJNt+nx5CxBAOq9h9uy5XfDEgScuk+2pI0a8rUFuHelOKifT4MPg12S7fHYHj74Ua/tJV59Tdp5ZV0O9Ucd8TnvWZMl4oK3VzvTqhU4fUxd/+pxnz7o+ZHcPuMccMbLOilJTAkNg6j0j4AI0OYl6SVZAfFQj6TpHFbAC27NHz8inJljnS2z02ldoFCh6/4zikUXp0THEEdjtnZHBFw87+YySSbb11r44spPvnfKjL/amkSx70+bucHxZddKnU3z1Bq0+w8TOF/lq3yuRnF0EgNta7PnYsjF5N11nf+Y91+zuAXcWYssxA4dmhQFQBbL3Rt/eh+GoYna79N1+jcTv/StZfoAIZYucffJsGSgZsZNrj8dmYOw2pu8sO3TSxyNv0q2I/Ninwwe9xvSJlx46bU8b5JzNmNPrDDXIbQ3ybJrsTP2pV7zlOu1Zm2RcEnrWK5+azff9/Gz5mPam362Yr+Nli598RdPdA24Hk2Yonn0Tr8JZS17SgIsqQi/H1vjkA1MgYU9Ru3UB3ToAVUjvWXsw1hhKTgymQd+t3m1Lhp44rJ3HKw80ANdoFN8g38RjzygeZ+tIF9+ajBjFYVqv+vbksj9t4mcHX3x4yTtr4jXy0X5SNty2Pr0Rk5q5bfGsXRrqdR/GHnAPFelYsArTTVSRNALYgA9wrRUSv5cfRVGQGkDXJAu4AZ5tU+F80xWIAJhsMSuqSTZb3RjdtoFFPmTIGhM8+HyJjW0+6MmFPB9rzDsj4ws9doximXt8ebBt8h8o2E6/3MjPkS28Lft4Yp21WOXoTvtyBFLfWIunSwJPr0x1XAe72UFbs+fMiK66W/tTZPeAy1COM7plSFDN5BW86SxbiiB5jVJI3zgBoB8NO6NDPjmA7efsbGtohVNM8di7wdmlZ5Bzu5JxDnwK3eSHLps1FQUcD0EPAhl22HUuHqC1L6/AG9iqAWqyYRpbezz1YDPwZjN51Jh25t6aTH2IylPc7GWzeKpBNtlo0Jdnr4zyVl8TX5xkii89lD18s36IwR7d8jf1t9bZc2Y9xyZwVyerUgYrvGSMWTAyEsCzJit5gPRET9BJjCzgeJkynZOlB4AGAAKkTwuAH7gqrhjIAa2HAnVjatxaOPnhmWITF5/i0iSjbx7ZrNl8iKf8y3fWy7kxeTvG8qWaBFox8BXQFvEnPvHpRvmb4BdjuZV78Rdv+52Rx1/KSTw9qL3qqUkPNX/srzbK1zkbyclJ35wnM/1urctv6qy6e8BdBbYMJyM4hTINCQkSYAx8xSNvTV6DgBJIFEZB6DmXMF4FU8AKwYYikGXfjMeH5vEN0N24+S4WVFGKhT9NEYufxvEnHoOt/NVw/ujYs920r/HZ3xl59KUmtI/ilxuffJls5m/KZgdtBlg1Ne3pipOdabNYs5/tSdWFDfGohbp4gNU0+86vs5GsWOSIrjlNvzdZ7wG3okxjCmEa0eQkGz/guhUFSkaSBjlTUQC3WxVwAiG52UxndPAaCqeYfIhFc+jzx5cYrIuTPh18PLbsNcYv6fidB38uCnAV3GCHLB2+7PngU0xslBuZcsSbsdqvA69ZbPyKp+aWg71BfubDhwdILcUTUMiIUzyBNhrPA1kttmJjmz2XR8D1CscXn87NYp02xFm/2LAP6PzPvky9dV2u+GxsjT3gbgnhTWPW6xRUxQlUkiXHeUkFGkUBHCD2kq+gySoMOdOwVzSyClMyQEUvnhicpU+nyQ77bGo2/0Db/8CTbbGwQTZQBlr+Ags7ZEz+UMNaPOahwX5z2uEvoNG1ZjdZPPaBQg7ADmD2BnmxTjvZ6xVEjw4Blw321Yx9l4t65IMf8V6XGxk2omIyt8DO503GycDNuEIKoCAUpmIoiCkxQfeSrwgKYjhTAGduObcdG70caZLBT7YV3ZS8QvZ2wLp46PGZL2u+5jl74tBwvoHWn0MFYDGxJxeULF026MjLe2e3j31NQU08oKbvIWAPL9Ch7DXKs1qpp9j5cVbOxc8WWYDo4UFNfHoG+XTEIg91Y89+xlAs0RlT4FWrZsBNLr0ovikesuXjIuN/xpbOTelZwK0giqwIFVdxTMUjo5GA6VZDFRfPkFjnwDNvzZqQffKKTgaYFMAagNLTUAPlr2bywVcPmNjETE4jgNVfsQFcN4tRo9mWD9liclYcgUtuQEpO3mTJ8VksztYhLgNtDShsGGLnX335Yo8dM0DxZZ1vfsnOSS87pwB35/zxF3b5AD71shYXPmAW99SxLieydIyAW2zietZxFnA5U1wBVBDUFIygPWkoMJiSVuASpZ+ctwp0azq+ZFGNMH2j5YbtFtQAg03FUUSTbDdmzSRjOufDdCYmvj04fk0S+OSkwGzKhS2UrOaJyWSLXHl7sIqXrx4wtoGX/npTiaN67ZJ59IVdvp2xZ81esp3HR+ViiF3+alNckydekwx75tboDC2Gbk60PMTifGs4EzfZeqm+YjOr16EYtmxu8W4M3AozCxUoFHXetpKZQ9KSk1BFkqTCkmVHYwNjnxJUWECia+CRNd2Is3A1tnOyzvnqFUGcJl/02SajyECIyhVfzAY5fLn3sNDnz1nTrW56gOU847Fvstl5MaqhdaNzsVmjhtzEFyhQsdQX+wnc7B2ia60mCK3zv+qXixwDbQ+8eHrldG7/rOMs4AaSQFuBKpakanA3jUBLajaCLAA1FEWxFc6ZxmWPv0BTYSqiM0UxxWE/h33xsb0OvOLKtri60ZyxQS7wFBu7Ys6veMmak1/dqo0Y8KpLFJ+NSa2dR6esmKYvAK0O+RdbPP0q153BI1/yIx51qR72xTjVy4ec+um/y4EdcXrAu7HFJu5zRjVI5yzgUhIgp4oQcCsMMAm6AA8lWPEUhLyg6LInSQOPHwXwsmuNVxEDD76Gdcv1kkiWvRqnWDUaj5yb3GSzvMSh4H3Dhl8e9O3JyLG82XLGDtl881mdUHk4J9eoFnSaZOJXi+RRZ6bcy69Y7NfZGfljY/pMrphQcZVf55OSkZueqqFJnl88U+3EVy2n/jnrs4Fb8zVCY0yNUxxBa6jgrCViVOhJ8WeigChB9hvk7eNVPLYrIB1Pc7cZPhCLB3VmLV6DvL33zX7RXKzO+EfFH2jJKbIc6RV/twrb1aMYyRtofte8NLAHrxrRYb8x+fGi5NjkQ+3FUQ/yyzde/JlDdrboll81VfMmmVUuHhk11Q9v5+jyLWe17YGvJjPnrXgO8W4E3AlaBVI4IBGwGzJQ1eio5lqvSSePlkh0Bl5xyBn2xaJg9nyIyU3qoytUM/HpofaA6/+mMMi7HYpfDvyzrfFyI+/TDLyaA3zW2Q3cKB4/1nSaeN7zaqomBuBdII++bNWns+omhy4MsclRnGyj9cOZKT/y9K4bs+78ycOUpyneYna+yqejltVUXGpqArR41ENtbjrOAq4gJc+pYExBKI6ABFZxyCY/eQIt2ejk1ZyZUHLREravWTUpgAGtiZ98hdZEfA0wis8nDb5R6/ZmX36A4X8KYoeuoZma4ybBc1YzrPnCx0PZCVQ+u/ZpBl9qFhB2hh99KU/76oGas/49VOKb9gG3OsjTmTjKMz8rzUf89it4e1iTWyk9OQGuh1MM4QPtFYLczHW1c2z/TMBVEFMgJhDVPIEXFGoK1Ih/LLCSSjcdxbcGDv4UxU3oN82a9t1CgSh9lA38pn1A7GYASqNbUV5yRNmuORoRQANHACHDh/P1AWPLH5b2vrebSc2qEd9zbc8uH/NBAN76UC8CbXXgWxzXDbWpTluy4lGn4kK35PHVT21M+amrh9x0xs6zjLOAy9FsRIUSnOLYowobcEusp5YNDai59hVs8qzxk0X51jiTHw0CVu9VUY3SSP7J8+l2yBZfhsLiA6WCuvm8fAcgMuynJxcv7W5JvuXpjA25V5NAVc4oXnEDq5hNMaP+pH+3L1t8zVqJxciHuLq50eodz0PFrlcb9fBgq0cx/dfa4a9TztqsDupmNtpPHWfVF0gDbRcCXjlm5yb0LOAWYEVUrGagrZCeKnJNTd4abJJRHE1upqfo5rrnT5M0p/eyYqHPlsG2qZDFXgwVPZDQaRaPfXIBXV54yWgCwPFr9MrjfA7naoM6K1Y8QOvzXo32QHUr8SUONZAzPZQf0x7tlad6sInH/hrLjGuuy1WtqsWk7Mw6zjU7c8+WmsljgtYeX93JTJ0Zy7pe5c4CbsExIokKqNjWimQqcg1CzRlsdlCFYYtMzUDZa2Yzu6ipaaZz+mxV/FlwazE7a8RD6WsyEJqB01ljNp8vOs41gI5bW454ZFFz+rUWN371AjDfJLp1gTcAazYAizl5MZYv/Qladuarj32yM/byOUT5m6CqN6j4zTnmvvPyJseWW9bD3W0bFpylM23O9bQ/+XvA3TJUw9HONa/iKZB1wBOgomsS/tQTdMFkS1HI1cSKnl1nbM0iWsdTKIOfpj1+E79BN/1A64xMhUYNMZIlN4EQH01PbmYxRHeGHtuqqWxaVyO2AbPb02XQWwd28q8WzXTUy02L9pap25aPU0axogY9MepzE69JRu7riBdVDxeB2cVQndSYvWSzVQztt+gecEtgCmc46ozDiqmAFdzLt4Kbzg0FaAK0BFZgaIb3ff73ScUPJGwoXI0uUbG0LmY2TWfJRxUrn/QApsYXY/mJPQAmK74eTDYrrtjSF6szY8Ziz3YzXbarUX74kH/vDaslG2yTL27gVO/e1wJvbxWcybGc6B8bq1zxzPqvfThkrzydW6uFntcD+VefanHI1qHzPeAeMrDyJSaRGqpQnngvcYrdy4Jim+QlgTrr5Vhg+GxpiL+rC8ABFz/dYigZfGtFiFfR8mtvJEeWXgBQUAOv4QyfDv/lKSbAYnsOeyApVmf8GMVeXHjsmhpZQ8mxj/ZQAa/JLllnYqvW6h1o+/gPcPH0Jd98njKqFdniEAufqFkvT7HNXrkGVDQAW3c+fbd21phrvD3gUkpxVaI8zyUhKYVyk5qB1lpggFxwki1hdgJvzSPnXKPYNfm4Lh46RnJofvDZFQs/qPMaAiwKaWq2c2diM9gJmGTJBFCyZnGjjRmTdfEkQ88D3HvZaoBWS1RcM95u2RW0HvjeJogxgBXPObT6VSP5mmyWO5lTRrWvVtHAWz22bPGRn2hye8Dt4DqaIYkopkACLhpI2Kn4a9KSKAHyTXyjwPOFJ1H7aHIocKx8e/YAMSAkKx7NMVs7sxeXkT3nc4qh+Nkuxx42uoE1O9Hi8ZD7GA7NRjXAM9kVg4cGWAOsy2Letr7BA9z5YPF37ughC6SBV17VydnsyepDvHPUA3lXs9ar7NQ7tt4DLkOHjK3B2ktCUt26GrAGZR+YBZMPFD/AaZLG1awZOF/k1xjIdJZ89ouDzb5hZNtwRo5vgJSH6bx4yDSyiRZnIEuHDxPINNnMboBgLz2fRPh82NuB6sOWqY7kxAaMANt7WBeF2ftZb62sexuzVaPyOEbpmWKeNSmXCd5jdpypU8O6XkxaTZM7h+4Bd0v5WCE0xLniKp5g7NegNMcNYkx7ikSWHUnVsEBDNvnsxstXMdvT0/gKFEgAatoma2RDHNmnD0jZwNc8MbJRzGyvD4QzsprctA8IbBl8eJsAuOrCX+DllxwdYPT+tZt2gtYN2/+14WEph52DG3zhs/iLFzVnLtf5UdN1Cmfyqu2xMJNPd8puArfiJsjAsTGLnC4djZYkqnnWFQLPQMni0wUEjUTxDHqG8xmLtQJEu6mAqzUKYEARcO2NYrPPTvLZCER88F9+nQfcbJNnN/BO0OavPCZY+TXzRw9oXQbACbj2gOvVDR9wgRqP7WLbJXfml3Jjpx5FAy1aH7d8qVGTe2tDj83ynjI7geVLesXkePW3B9xVYNpk8NA5vqQMcgKdTZO0QnTzZgdPs0oOELyE2mukZtEt8fT4oWcCXuAEBjYClFiSCbzsFq8YyXSWLZScwTcbZMg6i5ftKR8AgZncOsqBrmEfSFC3pxlI+8lggAVa0/mzfiNWbPKasaiLurOPNvHrRborLb/V3ny4psyqf8p+D7gSKIkM5CQaf1JnEgpkNSJ+IEZLALUPIPYA5xsWTdV4e01kr4IVBz2TXIB1WzfxG4Blb9IpVo1hLzvkAmFybIhHXYqrGJyRMwMiXnWc1Lk5868G4hGLB7VvugJubxMmcK3J07vNwZ6pL4E18NbT4j/kV22a5Vff2a520dXOIf6U2wPuPDx3XbASnM7tJT8LUGEAM0BpMgBqLr73f0BLbyZe8gGGPnmTvhlA2TSSDTzis8a3Rumk62wOdqZ8uZLpLF+TWrcXt0YGgIARlWugnd+M4Zm9VUDVhK3bHOVUjHyIafZADuYpo3z1Ts5TLzt8HhvVLprsrQI3o4KRvIQFKPA5NcpZbxu6IQNee8BNT+JsNvmQDMABG13A67YEMudmIIyKM33yhrN02TQqLp/ZijpngwyedWNdJ8dOD7G8JiDsAcUtG2i9RfCWwJ6sqXbs8HubQ4zFWSz8eUh6UPBP9ctW+dKbcVfXfN4kjzsDbkFVDEkIXnO6ObyXBd7m/KkbEAJTgMxOdks2wK2g7RwFrK3BViNAsqewgWPeFADt3AisM55pjw37modqYKBA1SEwdrt1u/b2IOCoHZ3sFvdtUvHyISZ+igX1QDmbOa6+qyF+NaQjN9SsrqhpHLO5E9j4cifAzU+Ns5eIwBVFITTGL1H3e7CB120LrCgwBpYo4FhXJBTP7MYMXPybfDfIN+YajyygNrslKnB+UDFM+9bZqGn0ahhbc1aL+SAHlAlosbDDZv52jm7pS3Ezx4/+uOXVft74YhLzrOV1IZDvgYvKB3/mdZ2drfNrgTsT2zJwHY9+QQpeo+ZUkEDrxrXurcJ8vwqU9qiimhO0wGTf5NcanTnMdbEnI06zONFAM3314NBPN0q+WePkCxBRdpt43apuNWs8cQTW/BTvIVrunRdT+2OULH98e4Dk6HIxxVVM5A6N6a+6odVVPZp4yRyyd4x/FLgFcizYY8bnWTYEqzkC10yFAVSA9Z7WDdzP7wMoGojdxs14gVnjjLXhfONt8TsTl6KKyRQjcNEJtJrZAzJzs2bHrCEo/YCp+QARMPFrIjlrOulnb/VzbF+caPoz52O6zsiKQ4xGnxGLT33YPDamT7bmpF9NyvWc2Fa/R4GrAJo1G3Zd8KuDdV+wqASABAA1tRsHMIGx6bxbGKh7KxHPOXCTF6u4TYMfQ+HM6X8W2llAA6p5w/QWYdpMF2Uz2zWlJrEpR7mVHxn8gEq/uMR6XY3LL0rHujjRbBaX/aFBtzzEJU7yfVYs3utiyja5bLGR/+qrFnw4O9VmtifdBK5EAKAbDQWKnD2LQ863klMcYHED96AEXEDtNu6thJjw522cfA0sUf4UrimPmUvrzsuPPbUwnAW0gDd5mmHKASWTPGrfTI+ffBfrMSoWU37VKBq/mPkUh1E+x2w7Ewsdl4hYe5tgfaqNcmJLDHK1RtXGQwG8zp5l7AG34iiIIgQQIDGcz2ILtKSi5wSULYkpkMSKoQbx7RMIiQOufQ+TGOdbCvuaSd8QF/tNPpvFX+wTAFNfbIESNScg7TWkG8XZ9FGeq7/8rjUTh1EtotWk/tibxW3NJn/xV9vrvpjUR/xuWvkCsD1b5wz22Ko+0eqjVs6fZewBl7FZJKAAFBMfYCpMjRGYaTg7d1S4WSC+DFQRJeo28PZgAre3CADbDLjZYKdYi50985Dvmu6cnBi6Sa3lix/tnAxefvg27E8d+UbLSS6T33rmyIc45CqGYjvFNxn5eH9rTVcu1ejU2MnRz4Z4qk0PdzGSuenYBG4GFcUEBABZi1TjJOjM3ijw7BTcuo+/RZNFS5QfN7KHpxtXXN0+6ARt8bM/7QVi8ZrtyVhP2WQmEKY82fSyFW8rL7xZx2RmrEBZTvKTa0BNPh/5LqYZb/E4O2WQA67qjbJ/7qDDN33DTcuuedOHYY1hE7iEJFGzBCAQASlwRZxAsa545JpsWTuLN6nz60a6FUPyvSWIiqkZCFC+jHj5LtZDNLmaHyW/NfKzdRavuhXLuo+PBtxuXDbWmNbY9YvMjPWUuIqPLBv5OpRr8ls0/3oEsLAzf/rHvvjOiWvLzx5wGRQw45x6Srx89BKiqBWz4moAHj36zRJHs9k6OoOix37661l8VHyGGOgY6FzvmONLZ9OOtYGKae5Xuc6Gyb1lMZDNHyFrsfZwzfUKYPLJZUO+NT3Kx6xj8cdn59zBxk0Gn6bYAm3fr/SDDEC+KWjZnmMTuCUuCMDtTTW+gkpOAF7G7I0aY50TtHVFpWe273xLNhk258g/n2JcRzZX/twHiFNk6a1y6Wcz8EXjJ4cPrD1o0eSTSy8qV1OeLhJ0rWGy0TXW+NdRejfVFT9dsXXh+ebOAFyfUATcZK+Lx/mhePaAm7EU0IDS2l7BBTgLbj0nmRrTDcM+/QabTXyzJrV3vo7Jm+tV7tD+FJ01N7Ymr315etXxMKOH5OLzb5YjW9bxJ01mPvDJ0rvNIT6+zx3FKy7965VazN4qALGb+JS4q9GxGPaAS6mZor3mVDjOjeQEnUy3Cvn48QIv2am/2zz6wr4padODYW9UzHTjxY/uhDe+XHeeyrSPN/fWJlutUbn2TZRPPKzxtwZdOc2b015NTWuTXE3OZ35R45CP5KPFkV77LXqKzJZePPoBV12sgdbbBv0MO8lv0RlDOUaT3wQugPlO1of+/jSQ/52G4wq8GmEMb52CFHgvHVPOWmImf91SUbz8kTWmfL7wZ4Mn35lRIZJr72zKs2/f6GzSzqLOZg7FL/bAya9Jlm9Ufg06+OaM0XqO9JONThnr+PTFUR3TX+XTcX5MZktv5ZWDi0f+btlAKw7ntzE2gauQfrQKtK+99truG7OAy7HktsbkK5r3NP4Fqvc41gCcPlkN56vbqo99amoN5WuCo5djctOnNR5Zc56JZ042nTfTQedwnq3szeKnP+U0qIdV4wLw1ONDPPHQ1tN/686Sm4Bkh/9k7PlsZgP/2Ej/mMyxM/r51m/rCdzr/G/ZLqZoMpvA9SG/Pz787W9/e5e8/8jOE6RYjZrYflIBapx/5PfOO+/spgR6CsnW8Jpas4HSWAMFSEA2yNiLs89zgct5D0IyAZIeHxXXfo6AR7/cZgzx6ODPM7zy6Vz+c+Y7O+i00TrKjqGWeKa1yVagtDaNeD00gUcN6D2PIZYuKfGIRe/x19yeJZ494Eoy4AKH39Z66623do5n8jVgy3nB/+IXv9jdVv2WUb91RKdmtJbkBNm0y5czoPIeUhz0rcWImkAcDdR4ZIo3vxVxAigf5I38lPeqm40onfzQUQdTbrNx5ZPv7NI32qPsmBOUAQIoWpPpclBn/uQz7e02d/SlvPl1QRlbud+W+z3gCkCzARYI/LK3glTMHBdo+yg5AXvq/F6BP2L39ttv72xWyGRRBU/H/pBdugAVCOgFMDpAnT6+fUB2+9LPP3nTvjXd9FB8PpqBqDqgjc7sO69pM97k2c/H1GkdZSM7ehAw0QZ/yYk1IHfbO5s5pHebdNaQP6O48n0Tf9Ou9RybwK2omu/m4lwgpw7Be+q9v/XLMb1sr86zN23PdecofkVgP0B4uj0kqG8mxev9eS9RHj55zBlwehjsW68gz2c1iBZTdMoFGgCzFm95VduaMmtCJjk6ZrbkOGdADszyN9W9ejjLTnbFe8oornP0ir98q8k5NsQ2facbLfZN4DqsmdarEt6hQbaA3XgAU7MO6ZzCL4YAGzA1yjeOZr/yCLj93i4gmmLpBo52hgZsfop3FlAzAm20mMRfzuIDGPEAUPGSYY9tttBGutl1Ti/QomyxKV8AncANvFHy9MU3Y8zfISq+XoXI2NMvrlNsTZm5PuTzpvw94BbwpOcYF2wNqgj25rOOCoHW7ICioW5b0y1rTkDiu5GBe4I6wK4gFrtp5C/w8lkzOydjkjGBiJyRrepQ7CiZZkANlO0Dbjeu88CZLoqXf7GcOopLnB4oNbHGF2NxHLIZf/Y4XvTUWMidorMJ3HOcbMnOpkqmIkTTOSXAZLdoRdW0biS36QQs/xoBsN62mAAMvDVogre3FhooXqMGAsUECP9GlJyc0CYb7Nsb2WAnAKK91HdT209wTjAXQ3XOf/RYXYtrF8yjL+3FGWjVUMyGGNjlk+wh2+W3U7rFL9mNZvpOgJtxzhRDIboJNU7yzVnsQ0XJ3kqzgd9No8CBLuDZ++mNn5cDLfACciDVpG5csZLPhhxMcZr5mXngr7GnFyXTzRVgV2AG3s7lwk9+28dbfa71sc//pOpiH1jRdTpnn2/z1JGfU2I71eaW3J0At+ABAmCBpCmIGhEIZnGeJWF2AkMxlLS3EoDro7kJXjevGMXaDLjTxoyLH3szEJVD/M6ATUy9zKOAGQjJpVs9Jm/aa11O19HiD5Q9jOW35sueWMRmzlu/nK/z+bzO7wS4CmxErRWxJ1zBDOcKomE10jq9SVuntzOw8YVcsnw2AkUUeIB5vhd269Zcsdb47ETZL272rJv8tU6mGzTQ0pFvcRbzSosdTXbyiicq5gaeOcEZb+ZGvnj5sO6VAS2/7N4XeifAlVxF0KBuQUVRvAkQcoozi0UOv7nus8/W1qCXzDyvCTXH+8l5+7TW2GbNZjN/9E32msWY3xl7smqRXOfJF2ex5yu+/XpWbAFxpUCr1r1npZ//YlJ362b5zFqtMRbTi6TPDbgBU/PWggOMosa3blbQ9iudxeusQs/95PUg5Q8NqJPO8/xkE53NLc7koskf2sdHp7/W6/khuV4p0kPxuiTsxVKc+iD+6MylmNH7Ou4MuBKWuMJ4qWx63xSvG24Wu7cRFWwW8Zx1DdKQtQHZ4YPvRjfWjGeVSXdSvhr406b9KYNOD426GDOOzldecnScrUNs3arqbuJVl+oUPTXe1c+634pllXmW/Z0BVwEqhiIpHvD2hl9iARdYrSdwWpcce7Oo7SdNNr+a1E2SLr+to+mh2Zu8tQlTz9r5KjP15/qQXKCdN+SU7Rw1OiuW+M7wqgGqBoEWTSfZ9lH8cwfdYkq3mKbduU7uJvTOgFswAm1WTHtJofECLr4CoK2zhVac9DvDN9kxNGtOvoxiaR2Nn1x8tOEs//HQfK+8zlY6baQrH7FP4FYbNLl8FK8za7kac5/+rAPeXQ+xyseYceYb71nHnQG34PsGwXfvPnaKjxqSsDatJRf4Sjq5Es7GzsCjL4pk8tXtna1eGrMVnTaTRTW5WOznWPd8FgtqNtrHm/vJmzZm/OrQLemViu85nU9AOsNrTlkxtS++26RrbnLqIuKnOOVjfRvjToArEcEDqt/rfeONN3YF/fKXv7x7u1CzFNNYi+rcNLzF8PbCR0k+vtJEQwHoVTSFmvZ2QuNLcljJdZx/VOOToTOH83jiC2jojJkOuXLIRrrtk8M3a7a1OORqza988aKBwL71BO30cRfrYi5ve2s5zCl2PZy1u0k89Oe4M+BqJqB+97vf3RXbL6X7AYAil3SBrEF1rnH+od2HH3549d577+2mX05nw9SodCvgbD47zsllk1xrtL1Y7OnT6Sx+sSYjv/kTQXu6jWkXr1jZNnvw2qON1uXEdiNwbgHW2V0OuRvFhU6QVnuUrKlPRnHvNmd+qR5T7WlFJvcZ1zXXj1Zff/31XYPffPPN3c2p4EZFWF0JsqR9zvr+++9fvfvuu7tm94cl6CgEOZSOGaCdZ6Ok8zeLjteejpGe9arbGbqCJDvJ2Ftnw966BraOlkdUnTy4AVRuc12u5PHZMZ91iHmO9uIPmOUWaNuTtW6IqynOm45imPp3Clw/Tn3llVd2P2L1cqHYFXcrGIE578wN7dbG8396/frXv979yNY3MN4zJ18Ta64iVSi6q0/259wZevQlv5O2TgatieIw3byom5F8DU4XbV084pvxBj7UGdp5zafbeTmi2Zwx3mRdnMWKlqvc5DjBmo/iKuZiKtbyiJ/es9BbB25JS7if2PjdgIqLXjfYIAesbp0PPvjgyW9zOVO8ikpuFnMtkmKtY4uXzBpf+XSO4uW/twioKe/mlGtNnw8xBMjW6DprPp11smWsMf+X+9+v/M4x962Lbd0HWvWVm35W+xlLeai9ueaT7Izj2Lo4yBzK7daBW0AVQ/KSPncI2DdlFUsxfIPm7YO1MQHbQ1IRKx47ydNpj7aOHy+Kf2iUn1cScaxg7Xyl7GVfXGZ7tH20s/QOxXOIv/pf9+I+xCun8uNDXGocQO3j9ZDFm7Efim+LT68hNiMa/3xEpfkcaIkriJvXpwp+PdHe2fpSXYHRiilMayN71hUXjY+2j+I1Ws8i4mmiEQCSjzf3c529aGf2K++QrWIh3zoaKKPFh05QJs/HKtveWTeqXpjVyBn/6x7/3LHmbd+ctu41cAVaQRTN7aZgPdlo0/lsQLpofE1oWGcbTcba0IQaMdfOyCTXelIytz2Kj13rOeMFMrSHeOqREydesp2Xj3qug4zzgNv3K+py26M6VvviWv3ce+AWsOI1K7qkFBpVzM7ptCa7zmxGySZj3eihiFZM5/nlewK7QkezdQ4VQ/rlcYhWC0Al03tte9Movige++Rby6fzSXcCj+XpNOlmP5nboOVTbIds3lvgClwSGuHTCZ8uvPzyy7vPdSuspLYSxGsqLjvRCpNufpJJzjk/gbaGrZQMXnSe5wM1nDX4Xfedoc4brVFTrMbcxxd/E4+PcpjgzDdqlis6Z3LFEj3E7/wmVLz6/dJLL+3+LIJ/fODt4OxZdu8tcAWoAX765m87vPrqq1ff+c53donUCIkaaxHjo3OuDe8M35y3VbJsT/vZ3jl+/GXKBOB5ns60M9fO8zf11nXxxl9t4K8y4uklvrrRwzesmzP2uWYzX9Z3OQDV3/Tw+b+fugbe1e+9B66P0vwJqLce/TUdwX/zm998cjvYrwlV1ArdHk120mwAjgcFeFH7CaYp13razE8gaL9Fp0y2Jl1jX/dsxssWGhg7jwewwNuNG7/Y7NOJt1Lx3eUQAx9qr+f+Zp1eAzEwr/7vLXAlAkQCl4AfOACwTxXW22CroBWis5qzFsB+zgA75dbzuWd/yvKTr/XMvrPoaovMOpLFX9ft1STgxkOb1WyVmb7Izlzm2fNa86/X3hrqt1db+3mJiOVjj4J9+sbreUV3oh9FdlP4xstnuqa9cRthH2rSyrdv8t06uaizxjEQzNin7lxPO9ZTZ+7jT0DGm3LW7B86c/6iR/m7dd2yANvn83idP6Ifu9fAVeSmxpgVPnrTYleE9K+zRz6daLrrPv5NKFtiyWZxRVeb8Ve6ytlnc56lN3kvaj3jm698+E2xPVp/7N6+VXgc4JMa9r4zhkSeZdQwdlqfau9ZfZ/q51S5U+PfyvU+5TLzKK7oWot7feMW7Ewo3oX+71UgED+i9/vGrTUF3P5CLxV4+jPQSy0uFXhAFbgA9wE16xLq0wpcgPu0FpfVA6rABbgPqFmXUJ9W4ALcp7W4rB5QBS7AfUDNuoT6tAIX4D6txWX1gCpwAe4DatYl1KcVuAD3aS0uqwdUgQtwH1CzLqE+rcAFuE9rcVk9oAr8f3hXU4pbDpQ/AAAAAElFTkSuQmCC;" vertex="1" parent="1">
          <mxGeometry x="223.17" y="350" width="92.12" height="90" as="geometry" />
        </mxCell>
        <mxCell id="_rtk_seP__OtfE_5Taxq-10" value="Window width adjustment" style="text;html=1;align=center;verticalAlign=middle;resizable=0;points=[];autosize=1;strokeColor=none;fillColor=none;" vertex="1" parent="1">
          <mxGeometry x="213.17" y="320" width="160" height="30" as="geometry" />
        </mxCell>
        <mxCell id="_rtk_seP__OtfE_5Taxq-14" value="" style="edgeStyle=orthogonalEdgeStyle;rounded=0;orthogonalLoop=1;jettySize=auto;html=1;" edge="1" parent="1" source="_rtk_seP__OtfE_5Taxq-11" target="_rtk_seP__OtfE_5Taxq-13">
          <mxGeometry relative="1" as="geometry" />
        </mxCell>
        <mxCell id="_rtk_seP__OtfE_5Taxq-11" value="Histogram Equalization" style="whiteSpace=wrap;html=1;verticalAlign=top;labelBackgroundColor=default;" vertex="1" parent="1">
          <mxGeometry x="353.17" y="372.5" width="91.82" height="45" as="geometry" />
        </mxCell>
        <mxCell id="_rtk_seP__OtfE_5Taxq-26" style="edgeStyle=orthogonalEdgeStyle;rounded=0;orthogonalLoop=1;jettySize=auto;html=1;exitX=0.5;exitY=0;exitDx=0;exitDy=0;entryX=0;entryY=0.5;entryDx=0;entryDy=0;" edge="1" parent="1" source="_rtk_seP__OtfE_5Taxq-13" target="_rtk_seP__OtfE_5Taxq-15">
          <mxGeometry relative="1" as="geometry">
            <Array as="points">
              <mxPoint x="526.17" y="300" />
              <mxPoint x="353.17" y="300" />
              <mxPoint x="353.17" y="220" />
            </Array>
          </mxGeometry>
        </mxCell>
        <mxCell id="_rtk_seP__OtfE_5Taxq-29" value="" style="edgeStyle=orthogonalEdgeStyle;rounded=0;orthogonalLoop=1;jettySize=auto;html=1;" edge="1" parent="1" source="_rtk_seP__OtfE_5Taxq-13" target="_rtk_seP__OtfE_5Taxq-28">
          <mxGeometry relative="1" as="geometry" />
        </mxCell>
        <mxCell id="_rtk_seP__OtfE_5Taxq-13" value="" style="shape=image;verticalLabelPosition=bottom;labelBackgroundColor=default;verticalAlign=top;aspect=fixed;imageAspect=0;image=data:image/png,iVBORw0KGgoAAAANSUhEUgAAAKQAAACqCAYAAAAjv+QxAAAAAXNSR0IArs4c6QAAAIRlWElmTU0AKgAAAAgABQESAAMAAAABAAEAAAEaAAUAAAABAAAASgEbAAUAAAABAAAAUgEoAAMAAAABAAIAAIdpAAQAAAABAAAAWgAAAAAAAACQAAAAAQAAAJAAAAABAAOgAQADAAAAAQABAACgAgAEAAAAAQAAAKSgAwAEAAAAAQAAAKoAAAAAjGzHcgAAAAlwSFlzAAAWJQAAFiUBSVIk8AAAQABJREFUeAHt3QmTbEdxhuGREAbMvhkZi8D8/1/lIMTmBdssBgPC85zb7yhVOt3TPXeWO6YzoqaqsnLP79TpWa703l9v6eZK1wq8UAU++eTPN3/48+9ufv+HX998/5s/ee/9F4rj6vZagd0KXAG5W5Yr86UqcAXkS1X+6ne3AldA7pblynz2Crz33ubyCshnr/zV4akKXAF5qjrXs+erwOGHPVdAPl/Jr57OqMAHZ8jcXH9UeU6V3l2Z9w6fz97dCD+N7F5ABkZz60/Vr6t3tQJA+BqAuP5W5iQgA+Bf/vKXm08++WQb8Y41ovNZDLy5P6a78ldbe/unsLvGccl+zXWN+aG2Vjurn9XuBx98cPP+++/f1f0hdVptPsX+zffWt5YPt/hRQFYAYPzDH/6wjT/+8Y83//u//7vdlJ2vicYXvLP2q9w5ya26e/unsHtObHsyxeds5t5+T+cUj73yy/bct2ZjngPiV7/61Zu///u/v/niF794A5xT9pTPlz7bBWTJuRX/9Kc/3fznf/7nzX/8x39s4ze/+c3Nn//857sCvHQCV/+frQAwAuA//uM/buMb3/jGdlPiv4t098o+fJe9C0hPE1AaAPlf//VfNx9//PHNT3/605t///d/327LQPsuJvm3HNMXvvCFmy996Utb39yQ1m5J/NdwS+4CUkMBzg3pNvztb39786//+q8bIH/2s5/d/P73v9/OAu5rSPRvBaSAB4jf/OY3b370ox9twHyXL4+7z5CHBh0FZA0ESp8h3ZJA+fOf/3wDKH50BWSVeLkZ6PQBIL/2ta/d/PrXv94ujtf28eokICXZ6Lb0Cpekb3bQFYwvB8LpuVvQ50c90p96N+Xe2fV932XPwIHOh2JPn4Tn55ErIGelXm49AalH+vUae3Pyhpzlldw6nL9E0hV/xnfp+py4L/Vzjs1L47xUfvboUt0Xlb99G6OzAfmiwR6cnwOQKXMKIPfJzfNLck/vlO9L7F0iGxgv0XnXZN/NH049sEqB4YHqd2oPtTP15vrO8HVxbwVeDSDva/De+R5vryJTbq73ZC/hPaatS/y+ZtlXAcj7Gnvq/NTZbBy5c2Wn3nX9uBV4VZ8hS/1S4JySP/VZ75ResezNp2zuyV95n1bgVdyQn4b7+KtjoDvGf/wIrhZnBV7FDdmNE0iaZyKXrrO5p5f95j2ZPV426bXek7vyjlfgVQCy8DV5/sryPsA8BBT32SyWvfkKxL2qXMZ7VYA8BZb1DBjj7QHz1NksYXKTd2ydz3f1T72Oxf1O8G/7hf5ffIbcA80eT8L4DXu0J7vKvJE8/nWCfs/ecc2nOxHTjOvpPD2e5XcekMcKujZ93c8SddY8z1o767zZ2Vwne988bd0nez0/VOC2/uidfmUHRvMxYMzm9/mSfLqHdO/+frO9OZtTdtprndzUTaeZTOsp9xLr4laP+VdaD42PnvEcf7DxqIDca9ylDTlWtMnPT4XnQ+Htp9z07SzAxiebfLOz7JpXipd8NsydrTrJrvxj+2nnIbr0/QmaP6T2T078dZa/HL+Uys1fD/Vvc/pLr0vjOtf3owLyXKcPkVPkxtSP1+zMumKusnN/bL3amnLOJu35Wn0nM/XOXV+qS96D97vf/W775yZ/93d/twEzQK4P5bE4ysGt+JWvfOXGv83xD8fwgfKx6LPVfMJXtsKsJJno2PkeP163oH0je9lOttl5Z83xetrbz3P6s3nOVl4+Vj57Gtkrzjxp+sFvnz0865Xf3vkp8gfU/mL8X/7lX27++7//ewOSWw5NH8ds5Js/N+N3vvOdm48++ugOjOV1TP8S/h0iDth41huyRAW8Fkby83zKJGtuTX4WJj4QzREYzJqSXvtpo7N89wDgG/bzL7H5tO8v6O3JTH328bNhj9pvm/GlPLDmmvwxSs7Mv3h++ctf3vzP//zP3T/yyu8xG5OfPTpf/vKXb3784x9vtXbL2gPpU9GTALKEmgteUeM1O5v89ooxR7cZHnl7oz1egJmgwZ/y6TU7y6d19vDEyGZxWK9D8435TzviiYP8zNW6mNiNpky+O7tvLofk+PT50b+hL/ZVJtm9uRjVyOvaq9o/9GOv2u7pPYR39x69rQt6EkAyLKm1yIoyeXNNx3kFdJsZPgM1PJmNzu3pZDswsIf4cK646bQ3Iw2M8Bp4Mya2yNYU68AIkBpm7z+o4DMcULil9hrJboMftrNvfhuiz6eY+HgoqYNc5SCvt41rL441uicBpCIIvgQq/OS1lnRAMQe4QOg1YXhSOyMHYOw2s4PYnQCrCPlIvtgUXLHN6RVv9ukYxcxmMtaBtBkYANKtYu6//AEgBrn8Z6e425uT4eNSmrFeojt9qqnaGGvMl9i8RPZJADmTEsyxvYQBD9h8NjGsDSCcoLQGSMBAChQA7PHZM2vmSoGYTHoKHUjcagZgRuywl218PLaKTUxizbdZvmy5WRoToNbTF3l2G/l/yfmlYnkSQCrkCkI8zSpRTdVM4PPviPtv0fhH7oCp4YGh240uuwAVmMyBMOCQi6wDi/O9uAJo85RhP3vODfYCYjd4AC1WeciJvhsTMP1M0L9vN4ASzwPR7czvHOXwkLmYH6JLh/46HmrrLL1Dz54MkIKYjQ0UGgdwNSwwditqdMDVfDY0TVPtu9G8Bp2RBQr2kObid9MFkBrUWcDqdjPjoSmLxxa/AARIYsl+eeVHfnL5+te/vj1oAbaHD//b3/72HTCBlF35sBkIxCFWVDzb5om/8JXffD+n/ycDpKQMyWiahgGiW8MPWf2nPgyABCbniA4QuFm6XTSqPWB43WkguwBAx8xG+nSszYGqYttbzxu44hermdx8AMjwK5a+i80Pe4YY5PPd73735vvf//6Waze+MwAtZ2tA9R/z4qs4+fmbo9teoScBpMICQw3SECB0M5jdEoDpJtEQcoEvsLmF8ABibbrA6eEDSM3U6JoPoM7p++aimIor4PWat0fmgGpP3mBP3EDFjzh7SMz54s/ea9nafzWuh4WutcGPWshDzIYfZtMrX36R+vyt0KMCUuEqolnR3QJuQrfFP/zDP9x861vf2sCoKRqveYHQ68tw++DNxrBVQ80GXa+7Xnn23/ve9zb7Gg2Emuw12ytRY+nyPecaLocJSjJskQea8pGf+AKiB0jcM34+EXvssuFBVA9gtGYvwLLVAyYXPqqp+W+BHhWQFayGaqBfO/3gBz/YgOKG1ARNJgMwCq+RQGPWkG6ZAMlusoAaWdNxBjR08+0WC5Tk+sEuXfxGwNRwg342nBliFPMqk5x5ngEZHfGLzZAT0MoT4TnvtvSaVx8g9BCZxW02UPO2uf3C5/83enRAKpImKrRbwM344YcfbsAMjDVJQ2qU4ls7U/iK3V7hk9dsfDrdKECB72OA0Q1MDh8Y3KTIni8ygGlNfwIsMAbIue9mDYTO2EFseBADo7nb05rvHiJ7sZKnr15syZ+cma551mRzdPtlj9fZa53fGpCKEtVQRVZcH+zdjl7TeM4DoFnRDXy3SuCr0c5qYmv7BkDWMCCZsvjssqnJms4umchZ+5rujFx7MzmUfDbZNzozd/ubyYmbPSSO8u4BBM5A6QHx0HZTsu2PI9hAs9b22bX+/0KPBkjFqvE+I/Wa7huBgAgomqHINRYY3RD0jV69K8AmeOhqSKAAOI1lRyxuQ74MNr0S+RGHQaaGtjZHzhr4+cYrbnazgWcEUDrZwxMbsPENhF7dYjSL2Zla+ahhzja/5M35yOeMtfVrmz+t+JvI3wqQs+jWCquYbkbDGvmgD4AGOQVtdpMYKJBqoIYYzsgbwEVPc+ydkQFGN7IHQePJ8Kn5bKKA2xx48hXfXHxk2GrgO4/wk0/WnL44kxGrBwJPzPjimw9OscpB7dhKHig9yDMWfp6TLvEnzknHdNcM3gqQ06HGAIbXjW9kFFQQfozhQ3qf37opvJ40iZ7gK761hrkxDEAze3W5TXrVkaHLBiDySQ5pdD9CsS82PsXEF541OwHbHr8zYFjj8tAlx3aEF6UXePLBjxjsG+ojt77pkl8/jfBRhxyfv/rVr7a8+Ch+9qff/D/2zI+cPDCG+spFHMdoxla91PUoHer3KIDkUOEAEhABg3PFdVMBhzUZSZCXoMQCAD4ZfE0zNMKtQo8cXt+FS8w5n/zxS0ZjNdl/nJ/fGRtZOgHDmg6Z5Phybi8+/jRBgWcD0il+8Tifjci2Obtmg+/8y9ntX27y8er2MUPM9D3Q6iMmPoynpHyIrT76marauBjEdB+xIVc91Lvqf0rvwYAsYLMgOa2Q9l4xnnxDERW/4koIUCWbHc20lyhwGeQlwrabV5PYQvMMODQUEN0k/jjVWgzIOf/suKE1ej44YuCfHH/OAz8+nwFBjBN4cg1w7AAvOxoRdd7eGfvqJR57Nv3GprpVS28I+urlzBADH/w9NfHlIffflheHB13t7/MvNjL1zhvMkCs7n6NDLg8GJIM55YBjRbaWhKfKQMBQg9wC3QQ1twYnG3jNziTGruazoyBe0/zZuz0MQDd6/U27bLPDZnHbG8mZxTTBRx44+AL6ZNIJFOKb9vhz1rBHZMTMriEntgzEvyEP9SMPtPIFSg+a+uGjctk2O1+Kr6P02u/NU0ZcYvG/hfEweFjFPWVWG+VMxiXyT//0T1t+6kj/FL0VIDOswACpuIqpcQaKr8kKCSwSJLdXTEnUHPpk6Lp5kGKw6YbjtwYqFrv5ZWcOsQUC4LIOROzWOCDo8y45YFBUvgJEr/CpxxcfBlviImeUDxvO+LUuHrp4zpIVh3zEQs5N6S3xb//2b3fxFbM4noLKQ97y8H/hkN+sG7/in7GUBzkx659LxE9e5Cf3Y/QogBQkh2aNQBwLCF+AiispwQWiCZiawsZMmiwdA9U4SdFhc966zoFIE+nUYPIAJh6jByV7xUK+m5COWLoh5dHtlH8x4TeyZ1+e1smVJ32DfLNcyHpo6QKlB83D52ZxS1oDqRizuxl/oi98iGM+6KsrOU2iI3650fPrXP3XjzXm9UPHWwFyFlezFVYgkWYCBpIUEiQwCCwQxCcPTACTHntkASWwSKzmaVgNYk/jegjoKghZuuJjn4y5OCqScyN/cjLEZZCna03OLB+2A789fX7l7ExcZPGt82NNPjvO5e0m8mqmK7ceIrekz2EeCud8nkPsIv4uoeTpiyU799kgFyDrVbjI5udsHGJ7ECALjHHFVcQax5HzGlbTNQcI6EjOQAK1xmeDfE1d/ZAnC2ASNTx5GlQBNE+DEX1nwEGW3ZrLD3/0KpZzo6L1cOD1APSgkMHPj3N2yo9Pgwxf9MSlLumVNx3nAGeetWGXnR4it6Qb1IPoLP/FvDHGl2o4WGcv6U67c32fEbINssd010fkrQCpuJra6EmfIHVWAwSmuArZa6DGFbxm1EiA0CD2DA2vSABGLjv4/DT4QvSd0XcWOLJJRtzZ5p8cXrcoHj9G4KXHLnLe2p5Msmw0+GQXqUEPiRirHVk/fxQD4JFjjywfzn2mlQce38jZXtPxyHRWnO035Sf6wochlyj/d/u7xZtaPgiQ2VBghXHrAJ6iCsCMbwTIAquxdJGiIkWr8DUrO4HKOTkJBmr2alZ2Sjqf4qNjWLNXkcxioVNz+TXIGW5ZNxJfyWTbnL9siKeY2O52K/7AKgfER7WyBjp2UaAUA55z9uTRw1xMm8KRL8WY3SNij8Z+qJ8HA7Li9PQrqCZK3FkAsMZbAaSIyZqNGkZWsdlW/GyxT0+Tk9GoQAkENYeOh8Fr0DclGtlDQKbBL9lsz5jI2PNliG+Sc/kZEXn8ZKcNsRavOdDyrX5yNcQa5dvcQ1/Nfb7MBvkZR/ovNauDsdIa413lDjV8ECA5qomKo+EKquEVqGA0RjE96f3GxtlsmiDtGwqtSWa6+JpELrv8AGINDpT8kRGPW8Tv1P2/ozUa303nh/VmoMeTSyCw58/MN7vkAlgxOEefK/BtjPHYYUOMbPjxCd/90D7/AdKr2HfRHiJ1Tc/MJp4fo8jNeq2JmPIdEIqz/bs+7wLyVBLzrEJWGE0DFDOehlQgsgBij0/Gmr0aV7HIGoCCzAbAk9VI38z0DY29ofns0dUwn8X8yMHfZPaKc04PFR+78/Z0Ro5NMQKlePFQcbe2j6z5Bxr2DQAUW7+5Akwgw0Nyc/sFfjX0ADkXg32x4iXPh7W4ZgzFUrydt9+TTecx5z0/xZCfuzv0UNtdQDK0KmagmYwmAp5ZwxRLoWdDrI1emxXYXAPYCMgKr9AapCm9pvhQfH7oaSpgZQMf8UXPTQKIQGlPl0/25WbIwXA2c7ZG8iHfvDFvv0wdPPtVX058iM+boQfIra9GE+CtxWHwSa618+JQJ1RdyZxD5XuO7GPJ8LlStV35N4dneheQnxPeYSiEogRIzhWrglEhUwDk0gEMe8Ajb2/U+M6AuI8DdAO8ZtVY+oGMTED26jPYKoadNDZWDZfDWkR7+mwj6znidcOKkY692UcDH1fcjuVIh718mQMcsFrLq4eQPCLHfvGof3G9kfj0azbNBp13kdaoLgKkxFAFUbAaoamKZeDVtIpgj88GkBio4gdM5240g4yi02XXbaO5Bnm8ebuQB2BANHtNs08vAJgb+eezgee83PjnA48tNGXFhorTmjy+GQg9PGZETpzZMLNrRungkS0Oc+dsl4N1MWwCt1/s2WvO9iqX/DsxHy7TiwBZ4BIzapw1cMzCkk3OmiyaxVFwRA/AAMd5YArAnbltvPo0GI9ePsm6cScg3ZYIGJyTFQdAkNX87PBr1OiAEyjkN3NMvjpM3WIiz7e8+OFXHAbKRvIrT3yIj6kjRnEVmz0bk5zRK8d84SH71lPvpddnA1ICkyRT86xnwvbrUKDkNaeCVOjmQMMXGXsA9MrzuTEwBg7nfNEHMjerG9I3NQCZXY1hTwxuTvt0gcaarDgBJ/CQLz8yBjsTLM7Fg8izIUcDGNm3dsZHtakG9qiYyEy/5BC5bPBhJCuuiIwc1YP/atZ5fqfdzl56PhuQM9AKI/EK5xy/ps7C49do8oqn+DU1G2ZFwq+BGu1W7JsY/PT4zN8Eox+fACO/DXZrGj/iIYNnOGcrMDqni5xNO2vszhG73cpsijUwyoPt/PFFvljYL+9ZO7bzT5acc7wemuIUgzW53hQAKRdvlx7i4m1Oz/zSdDEgJVzSgp9JKZTR06lgioPw7ekqvMYokDUeOxXM3trcK8+HfcUlT9YZewBguBl9R+13vZqByLspNSRf7Bn8s+GMPcPaKA828OVQHvZ0i7szMXgQxIHyJ4YeovTS4Ye/6lTO4kLkkX06nbWf8yZ8+wVP3v4Qg00Pqx89+eytjuWQfDbbv8h8yPliQAp2FqFk8GqmAgQ+zZ8gUowKEt8e1QBFZA9pZg1NTiOLgU/++qFynz8DMKDkb95YAYp+xKZ8nHVun19y1nPvXDzd0OKgi2eWS3mRzUfrmUvADLjTV/ma0aq/MccXebkYis2ePTH1QNqzZ2bvJeizHwRvv+m7JIgKVDEkaSikIhoKUDO8av0MzusWMPwGou+eFQaxRb6CVDCNxEeKlq988Jkva+fFlS26QFiDW09/zpBZfmSA2cxOtmtcsTjLH326M/aa7owOWaBVB7GKAR/RRWSc9RCLwVlyZqO6zNjoyqFc+5jj57FuSr4Re/2g3jrfZjaOUXKdn5JN5iHzRYDkQCBGhVmL60xRvKp8mPbvW/pLY8UxvFY1ho1sWSO6wKgZZJzzUUE1nay9M0ODKi591Jnmdmamy541WeeoPd8AKfZ8u2nEgvJnjuiKS85sij2/YuMPsSFu+z39gBaw2UHFu21uv1Q38g32xFEsAOnf6HQJeIVnV25yrFb5zf5zzndV/OTNQ3kxIAt2LajkNBOVeE+pG5I8mUa/r63Yik9fU8nbu001MPBa47OhKfzQMWsEEDhDNch58grPFp/siI8/zaFfToEv2wGNfjI1ny+2NDk/4sFzg/V52hldQ+xGNpxZ00Pi4dOefOdkrPGrG3n8iLx9MYlLHmrnIrD3Ewu5s0O2QfdcyuclOsdsv7fl9ZaALCCzIkm620aQCq6weIpDThFqhmYpEnJWAcnMVwoQeLp7whWUTcUMMPxrEOK7IrFLrgbyyZ6h4b7zNKzFxYbhQQBK8YuHP746Z7+881EO+RYTG+IuZvGRQ9nITuCgV83I8ZmsM4NOY+7znU12ylEsPl/7xs/nXKCUE9mXpk9uY/jkbW7IijGTmTwNnw1WVOf4KJDgKWIFBwCF8qpRLAREAGK0ByCyfCg0u879/BHIZ2OKMR90A33/+J4PdsiwVfweEmTWePxAvR0cvoij5k4bYhEXYPApb2sy7BWT9Rz44ik/dqwnkZcbm/l2TpesYS1fbxw3NUAGSjyxGNVo2n+utcfhNo2bT/7y5sG4+JUt+IonaEkbUUV0MyiqJxR46CiKAaAID2k0GxqvcT295DzN5Kw1hk1FpmOP2CSn2Pyu8ZDB0zi3FcD7R+/+jTG7feivieQn0ePTeYC0NuizLUazPb74rAMN4AABW+VDBlVTa7pyoNuDkr1mfuiwlT175Kw42OBXTauNms1/BuH8HMrnObKXyvz19nb8y1/eYOEiQJZsBTQrkoGcKzLQKIDCA4BmShxfkRUKOc8GPfueWuBUbHr4iJ9AiF8xAVITO0uXTjGTxQdGN2N/gUOPT7piKbf8thcLwhd/gMs+OYSPR0a81uKnrw4ezuKrDtmwVyO3qris2St29rLPRnZmHdmqTnqg3tWVHXuf310UHkrx4J+i6nJKZu9MLPeSsv31zQNG9iJAUjgWXEVVMM1VDIUJYOaKaUY93dYVkk6D3JQl7wyPj5qioDVcfO0DMvtk+6ubXlc9HGIDFgBgH7FnsFds7BlsTT55MnjFa2bfYNNZeoHSfuYDhD52uLHNzuTioQYgPoA2W2IWY3k6L1a23ISBPlvicQaU3ipuT3bYNOjvkbNJx+SSOXa+2km++WJAplhzVgcVRCFKHjgrDP2CZWMWVNHI1dRe8QEl2+QMpGGBpJjwiouONdABgtm52Ng380fXGVk69sg5//j5wm9vTVY8eOK3Z4NuMeMFSDqBgB65QAKM/qgYmNQGYALutNVD1EPDZsSm3NiQGxk8dsrHLawv5ORVbHw8BqmFsdIx+4meDcjVUA2RyDyTvMb7HKg51mQVxJiydDWmojnTfM1BmuO/BOZnl3iKyYbmBqxAwhbfzioGWWs8Z+xrBB98WpNB7PUdqTM3cE0Vo1sqXxMMeHzQYd+er2Tnw+R82iTDP19uK7eWASjsudH9xMHHDDGQKycxyDn/WxKHL9WRHf7JGXIQW/U1k8lWdaP/UvSBQAHnkiBmk+nXDDac4QEifkCwVkwzAhKjQilsDQI8cppnjciR54PNmk6OT0WtOfb4Bl7y+BoEiHLW4HLXLPaBsljokxVHTWRDbuTM+cyPHNkEIDMyGwFNDMXEB/v89I0ZnnO3o895PmLIO3viZF/O1nskzuolJms50qvXAZKfctmz9VBefqa+uE7RBwpbofYM7CmXrKIpSoWiX2MACJFVkMBoRnTJ9nRaK5ZZQ9i0Fh9ZBWULryYEFHu6ipo/TQfmaZ9fdhtkEWD2EJgDJ18owIhL/Ph8kTM0tM+l5NXBEBddsfDJHxvtybQvBvpqJ2/fePlv+fAFrPSd2c8Hgh3k3Khu/TzXefFay1EMfPZwZmMz9IJfthtSEufQDFqxAUWBFEDBkXWDPNuBcOpbG2QDdoBMTrO9ruiTafCD54N/vrze6OMreDbER08ceOJOBy8gOpODRnXzlGOAJFsuAEIOGPH5YBfxifJjZjfdgG3fw4HHH5vAA0xuR/mLzaucrHN1AUj50inXZrxqJy56YqLLJz3+xN3DgU+/Ook/e9Zonr3hvOG13pPvrHmVid/8AYH7hBI2T1nJSs4N62mrATVylbeXlPPOrCtW4GGHnFtHc/gkh2+2V1DyzskqNqrA2Zi+nNPRzGxpChvs4QUsDaLLLj6fDXY0mQx9azIoeX7oi62cydKxjzqn39rN6Pf/AAlYbjGv1x4W8fMj1mlr2tQX9WOXX3LVjp749Eze4pdblM09HpnJT+ex5g8EuzoooFNOJBcgzZKSXE+thNnRAIMPe4Muyk88fMO+ohVbM72AgEeOX0PDFNlgwyDrLJvic6tpFL7ZQM1yMehofIPMzCefePIVT69SOvTj03VOJ3JuoGbxAWJgZBsgPfTyA1ZvA/arY/ayg68uPaz0qoMzMckvfmezxnM97Z+zlgv9PRvleczOB5q3KtufUuxcYp7gEpeYUUEUV9KGRuQnGT7IGlFnwKGoxZHt7Cio2Ludu0Hw+dGwCs+2tTjFZLBD1+vYWgw1uTjx0uvBnfVKzpkfsZiBHSjN/MnBKH7x8Wcf8SNf/ul5TQMd+17VfsogTuS8z6uzbmQnZZNvZ/wia76cx3dWfNOm2hdn8/RRb7LbGbvszPN51npv/gBYHkKcKWCAlHhPnDPNKHHJlHzB8inoAqfjbB3x2aiZfaYDAs3yWdJnOo3mE4i6qYCEjYAhZmvAoguUfAY8YHVefOXCjvzo1Rxn4ueXfw+FmW83mc+B6lNM6bHNJz0zG+ICND8uM4vBzehHX+LkFxgB1SjGbJmj4qq2ZjEgMThvLYaGM7KITPGayeBN25vgI3/ZPkM+xKbAJKmQwKfwBS74ioynmUYJagKqUMBgKDIeOaDLXvpmoHRW8/u5XUABKGQvRrGI05p9fvJBxrkc8GsafTLOegjSJ4MvNnk0kiVfrgDcTck+YqfBFj/8qx+gATPbgO0vcwASMOmzRY48G6habpvDFzw2irF56hS3MzEb2SKHj8zq1A3dG0Y8PRTZOrh/q+nsH4xPLwUwi6lYGqEJBhJwzQ4EdK1nUwKKJJ33IT7gAZ+isMuHdUUio5gKx445cJDhp8Y7z3f54PUK5Dt5c774ZRevGJ1VBzMiEyDNYpOL2hiaycb0wR7/wNgrXr5ubjejtwB55+R68+AdI/FUB3PxkafXuTNDLoa6iYfMlBOPBwOJwy3ew1sczdPXpnDhlwcBMh+CEJhCK5YGBBxzT7MEAIEsPqLbsNd0TdDAXsF42bPuZtLsGh8w2MoHkCHFxlckw9oNJB4x82WQF5thbZDPv4bkO9ts5Zss3yhfndGzZks9+CgWtsQT2MSrhm59QBQbP/QCLR28Y8Q2MrOH+LQWyxx48dUz+U3p8AWvmORhzTabLht5kxFTvqf+peu3BqSAPLWaDFCKKXBNdCsoZMBUTDITlAJWJA1zI/SZqc+Ekqy4ki7xePTFYChSw74CBQqzG8B3sOISB39iYhdIu6UClAY4V3Tx088fHWR2zp8za1STayTwiS9fgKip+Iac+epfT5ITj1jVl7wY7iNxVB82+AyI8YvRvrN40z59eXg4xKeveOIV16wzWw+lVN8KkJwLSJECnydb0DVSQQGyZgOsAYBIshLRCP/pPL+7dkPSlzj7yDxHPMWk70zhk9+Ubr84R2xqviLWWDGJLRl58Cm2GjCb4IwNekjsZMtBQxvFZS8+wwMQqM2a2qucnBp4QNQPic03Rv2oh981v03wyJfAX13EiWZMM9748pwjOx4sw0PpJwFi6yx5eV5M790+2Ae9twYk54qreD3JgpI8EABkryTniip4jdYgjSOrGcAcWBWH3YpJJ0DiGfzQr5A1y548su6G4s8eiMRCJmCwRZ9ssbipALMmONcMOZnLM0Dbs2/ICb+B53zWSlMBEp/P3hBsqxkgdpurW83fEjvyRU4GWXbEbC0eeXfOp4FmDSffGflu8T5KdamIjw+D3IPogN/3D7G8FSAFX4IVWpEVX9AaqaGKDbCBM2CQI6MgZreikV02FSMfCluBzeTIsMOGPTK3zjafYgkY/Z8OFFNsyTcHKPJiAJBem4GDL/ZR8dCv+d2exSZ+uvyxFRjVygPqgVSHwOgv2vvRkRrwcW7jJyCLrTraG6h8t834Ep+c/LvJxdoDa62nepD8ufENV5tu+m8FyNWoYgNkiffq9vd9mqJBgUyCmg0oQKiAAQ6/PXlFYdOcTL7JdlZSFSW9+GLgS/P5d0uyx0cxK749ClhkAVhuXrNILsDDNj/ZEA8+8OcX6DUuEFrzx75b0U2syeT54MsfVYivhvNZXtaniFwxkWO3B8y62pKbezrJb4vDF7l5iAy6cgdGsePpez7ZM84lkuS/8MHhc/e5isfkZgCC1TwUUBRawTVJIoqsQZKXCGKjm0OCiofYK1GzPT3rCA/FY6tmOFNMg0+AtDbno7NsixuPHQ+LuAHJvy/3igIQecjLOTm65RQgi4cf5+rixjOLz4PRTaOxbAEjGWD0qlYTstFcxzs28y82/uXAn7jljthy3lrO4izuzua5eOQpVrGLW23c4vQfSu+/76PXG+1HvSElIzCg0pgK6GnyOnIzzQ/yZCVpVgAFo9M3NXiKqaj45IwKh2dtWBtisAecnmh2NCQAseG8ApNH5AxExqtTA8Xs5sy+NWKDPJ+d4cudDlDRLyZ+NLKPMeUpDo0FRrejNdvFxSZixziH1I0vNefPXlziFZNR7HIFNP6yb57yekBeXGxZewOyrbZqzQ7+Q+i9W1CitwJkzptLRnIagi94Q/EFDxSGBMiUiOb7x1eaDbw1q0IKVsEkbQAAPw16zvGdu4kMa3HxyT/QI76doeI3N9iiP30660HjL73NyPiCL67k6QCAxolBbpqpydUKCN3ARg+puPNRbYebo0v++HGDGUBZTHK2Fg+SXzVUu5XYEmeXgn7hqadaysNgl60H021M6K0Aecy54glO0wBNAew9sZLQGEArKTKa4IbQGMVURIMOOQVB7EiebYOep9awD5D2zmoqv/Zm8bChsOJg0yBrOGsGXGRPhq6B+ErHvuZpNrt81cz2ZnLiY68HUw08AHIoFjYn8XUfiY19tfPfWPdjJPWUE/tqQEZc7AEjn84DZPnlK5viYoNeMj3o7Fb/4kwmO8fm2390eEe7gMzgndQDFmxIUuGRZAQMYN0O5oI2kwUAs8+aZBUzAPeaUUSNZM8gb+DzY1RgzaEnHgWvIfnVGOfO5siO2Nkw6My1s2qVH4ALfBOQ6fMhVnGY5dF+bei0z0++8I9RMaqbz+4+LolHXbNRzvWE3+p1zK64qy+ZcjTzBahyJHcqzvXs7hG7zQ/tAlJSq+ImfeLLlK/ZgpOo4jvvadQAYOyG7LVSgzSJLFB2w9ZwM5u9chWVH6M1X8UTiJ3FM7OjMUAjjnImxz7/NcmZQafBrsGGoTGtycwYxMZeowdJXfDySa4YT5T67qg63zEOC/xyE2P16gfZPjI4xxfLzJWJ8rUWT7UlXx16sNl3YaijvJ2XQzM7kfNdOvB3AbmnMI3P9THZZMwKLoEKAHAA6QbsFvSUec0Apde2J67bUtHYqVAK6Eyh8BSlYhRPshMkeLPp9gqpQWZ7MYo1sNizzQ4/+bLvlqBrOGOjfOVSw7PZnsyMZa6rXbk0s33sLBkzuWTFYPgGy+dTuai9eMXirIeC7bWO7ImtOjivj/JF6lBdNsbtl3PiJLvC82xAUp5OWkv8GJGRTMXRBMnXHLOCmD1lJWhNR6LOFE4R2KpxAME+OXpGsZgNxWPDsDaKm76bERi92qzZECN//NaofGRXvtkz47NbnPR6FePZmzvnI6KL6BvlV5ydN6d3bE5u1trNCJAe4vkxSYwefPHxl+60XUwBsrqzj1ftq8eejdXeZ/Ztbv2jswFZgdKf814yeHOQb2+tCArkteznb0Bo9BpvnU4F0FQgdrPWvIow5wrkJugJDrTO8PhwK3dDOkcKLT4zv+zSQXzGby2mANgDhscGfXLN1hG78kPl2T4ZM7lkm4/JpSdGMRl+rtlHnwBEX/3xxRqxv5LY5VJN5dBgL35x0t+Lb7W7tz8bkJxxnNM18AKIb78OAUgEv9lNpDAAAoxA4vVtzZ+EnfVadA6M9FB+rWds1ul6qitacp2xreCARKdC4xns49N3VnM03NAounIIlBo89fmsFtZR8XaWr87XejuvbmRW+fTIiMmDDnBmsXr45pugeMWKxLNH+SWXfzxUbQLmnv7krT7uPB4WZwGSkRzWWAEV1HQYj461BFB765lUMgoGZArIV/4ABgAV0+yVA2CKw2Yj+fbNZI38BhQxGF5ZAGQEMjLiKhc5I/v0ydK3t+5GtU6/PNOds3UxWiN7vvhpnW/n0579SsXMvzray8/oQfewI7UG2h6efK4222e7GIqv2prXHqR73vwGkfcCMscKwymAGPiCiwSM5mxdAs7ooJJbZeNvQrdfyPPZk6x4Gu8pR2IyFCKaDWRPc4oBWLJhbXRD4xsBKnvlb2YvW2YDxY83+c6i1mytIztknK00fVhna0/OWW8Q9VJDD7MfAXmg5QikAOm8eFdbc5/P6bf6B8YASW/KTTvr+q46hzrtAjJjszDWHHJu2M9E6NQQa+fm1Vb8gu7c3tkkZxWs29OTPgsgphlXRcqWWVyAyVbA6xaLbzbKoXjYY6Oxxmdfnumay6s5/ebiNGejOXv202Zr5+ycomJQL8MPyH3zpla+yfHZ3YNeHU7Z6ozP6tEcrz7ET2edq8fKb78LSE72FGehCoSh5M2GYhyjbOzZz5a5c7YUDZCA0pMdACvCOs/Y2KLfjcgOYOKh4qmB7ctFgStyPHNkPWNtPc+T39NPzpzvNZZAs9Y1u3s2nHlwfdTpL3O8rnsjAKRarDanrRlTseFVk2Zn9QDvFK0x31XyUNNdQGaw4gra0FTNNNtX4OTaCy4qgBJK1nm8ZNKZs7PkZmP456ei0CFrP2d8+oGymT4yF1MzPhsGwq/Qk9+5Od31PJnN0MFWNvOdbvvmlZ+N1Wb8OftY5Wb0dwF+8eCVzZ5b0UPd7ZjOKZvVDMDFhtRD/eOZjeqf3bPn29jQSUASkIQgAiNAGvgVv5k8Krn45uw0x1vl7ckkZ4437aWfXE3chG+/BFZyyLnCVlC8/DQnu85k0cq3n7zWb6Q/lW9/ynd5kF1zSd88fU4+fQQQhp9KdDua6QGim9FPBObtuMa92q12XUSdF0s+1fyUrfROzScBuRqvcRWsgJpzdGwvYDYkMMmeTnzACTzTJ53kKoJ9fHON2ZjLl+LKH1m8NR9q+WnOX7rNxUcOZcu6s/jOos7m7Gzus4lvve7JouZtc/tFbL558ap2SyI3ot+AGb6ZUd9VbxPc+UJO7OVmH8+8xrVj4n7WoX73ApIzQOoVIMHAwsteMPHMNS5eiZnxGt1o2aRX4s3OrJHz1TZ+fqa9WcjWZNkqHutiyU57tuaIT45+9Si2aZMMSiefb7if5eM5z478IvrVZMol27nXpttRn4ASdTP61WGfHbeDe75ke9aZH7TmSDbePWZPHp8EJE3BSMxvM/yrQFe9K59zVIDH1p0LWOM8nfRrYoVMbjN6+4XfQNAZnV4b7CVjNvoc00yfTr6yPWd5sInyM8/xioNda5SeeqAaMuepa10NfOShjyduczbEGpUfn2QMemSyYV/uLo1+uWB2BowBsu+s5SsW9szHKJ/8Azmb5mqQjexU51M2j/mKfxSQnCBN8BnEP09VBGugWmkG52wGpTCKQM9fRPfKCAgK2phFkLgnXSGcS5iu7xTpkiWjETXDw2PQwwOYmldOzeKswcWPh+wbxRYg8ctHs2sEXjpmemLw3a0Zr58U0HGeTTHhlZcYnBmBgL5c2LAmTy8f/YZLvfA8+P2mpm9iqoW8zyEx8q/vs674kRjqsZjE9lA6CkgGC8bPr5DPJBpQ4TfmPV8EJ1jA8PMvybEBWPgGP4BVge3paYa5gktcMxRXoclHxapw4nSj92OOmkC2eNIrhs74MFBndJB4xOJcDfptiNzSIWdNt9hrpr1bqgdSzIFO/vljo3zUy7CXRz7t6QAf+76b9p00vrrwwRd5Y+8mLy/+jhF7Hu7s82mI25mY1YJ985MAskA5VIz+XvHDDz+8c5jMsUQmX5CA5HY0/+xnP7v7cM2OpCLNjMd/oOymZAsgyZkVoljwyHuSPUSGJhoVqgK2pzuHOPhF+OQCdPUASqQxYtB4xD+Z7OGREY8HJN94ZJG5Bm+MwVN7gJNTxHY6aqI3DX7UFwB98+IC8PAXP11UfO2zvc7lIwbxAz6iJ09xq48eGPlZ7Vyy/zTToVWxsKx7Su9LIBPJ0bUWtMYplqIpsLPpJx02NM5ZT56nnb4CAIObwNorCV8hkFkzarCiNRSVTbbJBUgzP4YzQyxmPLIVmz7/cjDj08fPjzWKJxZ25FAt5E8/Wb6Khy5bxYFvTxaPbvmbvQ3aq6+aeEAMtSlGdqNZ63jrzF/xtS5+svIqTjUy5JntdFe79+13AbkqZbx5Pb9vL8iSOmZj5dORYE98t4Qn1c3gdawRbgBDI8gqTODHJ0PWAAJULAGBDl3NM/jNt32NpRsg2BMjoLGjQTWDHF8ahsTGDmKXrIc8eaALkHjFR96aHTp8e7AM/tXBQHwExn41KLbsbkK3X9jP71rzZMzJmdkQP/nil5+Yqp159TXtnbs+C5DnGtuTK3lnPfXWk78WxhlegAmUyTnXEAUBOA0zui01or8BdN7QSE2lr3jsKzR5g59ArcCGBpCxRvTTEY81O/xnm31759kodnP5sWdttHYur/Sb2QZiAJSHNSpeYOzzogcRfwIkH5vShV/kyHYAF4O3BJvy64Gd/S3fs10davDkgDwW0LkBS7onVKGtFVtxNKbiaJAiKY7hXBH9LaCneTZSc1FgIxvomveaCRziIeNcDmbEZns8zalBZuTcCGTtO8NnR7zysTYAdIJUDHIUP0CIR02MYiMTHVt3fmqmy65bV3wGKj9nvQHw5ISmz41x5pdnB6RALwk2eU0GHE1QBGs3nyJ089lrpqEwdDSMfJ8tnWkyu85qKNmAxIdzxQ8I5ort3AhobM5bK9vsJYeHAl127dm1NwIhm+2d0+ePvUDQg4QnD+flQT6fYWHdxz81s8kf++LxYGenM4B0Hr86nbL7ubMDkJ8NkIJ9m4Alj9iwDkhuCkXqMxVguCl9R+i20DSjW9Nc0xRaM9lUxMBhjsens4Y9/86NyI3m823f8JDhv8En0lRg48N6Hfh0Z45yNcTKnrjN9gZZlN6Mbca4CV3whW42zersgTGLG08c3dbT9KzX5K/x3FXwUMtnAeTnglia2bkkIrz21g1F0Fx7hVAgIAA633H6UU8AZYuMJ9grhw5dTdRUI6CwE1iKoaJ2a7V3zhbC408M/PsRjL1zzeqB4BPxkS+6ARIQA6O4unXMcmCHvcBZ3JvR2y9sIX7niGdOZvKsj1F2Aj19eXoTyUEsMz/yUbrtm2cMeHcdP8T/LIAsmHUu6IK0b022czMgTsJDitKT6jOmf13X61Oz2TOsgcWvP+lqaKAMLAAx/bNvr/huwF73bCEzHWeapFlk6YjJTMccgKyRGHowesgCm7gCYA8N2YBBnr4x7bGbLXNEphGP7pSJv87lJw+181+yk6t8/GhJzevBqvuQ/bMAsqLNuQJJOOq8vbnCkZsFxEd4PanZBBQgafQa91oHGnwUANw80/Z2OL6wpyHsmAOimKyNgMimZhlsNgKPvTVw8Qtw3XxA2EMy7QiFTjm3l+/kxTej6inO1vh00hXPPHM+yZl6+QjkgfYbG3UARp/L3eB7Dxu9PbtrvHe+Dv18FkByWoA1T2MNNAu0MZYvziWdDTPe3qDqPJDmr9cqUPbKcYaSCWCzgWzFJ2etid1W9IsvkAGYeIuPDDvNyYuRjkHePp79BPOmvHxhJ5vT/hq/s87pZHcx97ltegDo44ihjvQBESB7mJPNSLG1P3d+NkAKSNA1341iCHwda/Cd489EWzenp2B4mmvmV/E8AADpaVdYhe5mE1cPCDt0NNZA7ABOdt1k7AMOfjddtx1+RCdb7CK84rSe+xWMzqLW2cFvbW6d/JzTxbOe+yk31+ypi5p5u9jLFSANNUB7fvfs78kdDGzTswFyBieoGgQInZn31iJdz7bod76kX7PNCGgUz/BqBEag5L+h8ABabGaxVkS2s8OGNfvmgGgdoIolO9ndCfuORafYrbNxJ3C7KJ5iy3789NKd+2l72jy2ZnNeHr7B6rPjvB2P6V/KfzZASqzCKEqFqaizmJKYMiVVge3XdfrJtg/w5NlURKABKB/INZNMszWivwIoGwEb8PDiz318trJjZrfhLCrebJlXSqY5e83k8zvrN21ml43Wq5+9vdz6jOsPN/rseMwG+8U57a3yd1ke8n02QArEkBhAaKpZ4QS+FnUmUXIlyA49VILN6dmTn3zrGlUc/ALhjCHdycsW/XStyc5RTHiIHiLLV2Nj3n5xnkxrMpPws9fsvDXbyeDZF9ucp825zs7kWReXXnl4Pcxe1z7+mPOb3NRnc8/uKvumOpuzTf1ZAFlgZs3shjHbCzJQzKSsnQUasz07Fdp63a82nGergphbO2+d3eSdTYDYZ49M+znjR/hsstHanP/8mstv8lY7bBUjO5Oy33lnq1z8c2a23Ix+BatHXSb69qh0yOVZADmLX+Fn8WcDWkt21asA8Su0vWLZd0Z2Ns86SmZvzqZZjDNOvM7pts9PPvCzzad1ttqLd7VNbqX8maef+OSt55g2plz2V16xTn428FwcZvGagdHYk0/vofOzALLgJK4RvnmY30BUkAqW/Jwlvzfo1Gy2G2Q1cC1e8tniY89vcoEm+eyaowmUeOmb5xCffd8okBdjH1+ylR/7fMUzx8vf5LF/H6VPtpjoZKdzs/jEMWtRXMnd5+/e80PMTw7IiiNpPzbwk/5//ud/3n4W6IPxTCjZveAVQNP6DOODdU1kIztsZAfPukICgR/y+g4bn83sZsveGdn5nfiMicz0aR/wOyNfHHgNemrBdnG4gXw+M4q5uNuzZ539ZrzOVtkpTyabZjEY1cOaTTH0kUpO2VBD59NXvjfmI315ckCKUwE02A+kP/roow0gfnRQA9ZcyKNZYIABYL8a/Pjjjzdg4hnkjfZ8zWI5cyP7MY8/gDDIKDCA+4xkiEcTFB9YyPWbCQ3DL66aVcM0kX9zZ2St2eXHj0xqKnt8ZBefPhKbmPlrjc/X9EcnXjM55Ixv5AzxZbAJiC4IPekXBeL0zYtvWsz0po3s5Ku9WB+LngWQCqsQCuD/DGDWoNm4YwmVrEa7FQPjz3/+87ui1WSyFTE9M/8AaS0OzQBOfE2wdw4w9tkrJjrkyVmzI/biN9Mz5BUo8dkiLy7rmsh2sYmjGmW/M3tn9Az8bJobnRczPt38sQGI8pSHhwEQ/aLAunjkQK44spcd+7nu/KHzpx983lh4FkBWXMVw62huzTwnEQXQZHpusl/84hdb0RR5pZoVn2/U7UXfTUtXM9isUWY3g3NybNEDMr+p0EDymoXYFpuxglJjxRw42xcPHTx6Bj7/2TLzT3+SuMk2WxvkjShAmdWd7R68ANkNzY8c5dwDhbdH+Wjek7mEt96tzwJIwSua4iikgqBLkqqhPdEVvGZUhD2beDXXLZhvsdQst3ZNJg+UwOBWNvOvWeQ0F7FpOGPXuZFsYEwO8NIFdH74NBtyEY+ZDt6c+SRfHZvJRXQNZ4ZaG/zOkR1xiF2+xnxLTLvst2/O52POzwJIBYrmOt59swJU/PTNc5wqkjNDc4Fkrt14BiAY/QEBYM3m9NctNbI4uhnJsx2AuvlmXHTp4XVjl/sEj3jIsMEmWWtUzsBFx76YzOXhbK0Zm4YHhk2jh8fMl8GXPCI60d66WiTzNvOzAPJtAqRbEyvonPeK4XyPr8g1V+G9nt14Xse9kttrihuj39uSBVB6xWSuqWZ+JwjE0Ag0zpFYaryzwORjAVCRm2BhP5CQBUhyc91taKbPNx90xZ09D08fXfDZrabF1t78nPQqALkWpWIp1HpW8SbfWtFrKBnNiq9RwOa7S4B0Q2k4mQCCr4lkNdnQTDwNBwxkDgz2bMSbr8z8Byg+/bW77+q7sdnlLzAFHPbpGRF7RtSNTX/amHsy8kDpV5PqZ26d7ebpL96D5wPwXwUg1yQvLURF1dB04wFUtwXA+KAPfH3DYw8ghm/IgKRbh56b04zHJpDko7gDT7eaG2zlsQ+M/ZjJ7cemmCcg2c6+MzLFE4BnTkAHhM6KPbv0UfYCXrUxO4ufXHNybCRr/Tb0qgCpEHOcSnwtYsULlO3NeDVT8zTR6xoYjV6NbiYDsAC21ztdNtgKkOZIzPYBshuuxjrLbjcYXTaNAIdHttjj8w+05RAguyXxA6GZPmquphtz8NvzmYw1olt82Un+QfNtjdCrAqSAK0zgaO9sEv4kRauIp/gaprkAmY8A42Zzk3mNuy27Tae9ZGuiM7FMW/bFMoHitg1UZiOgm7PDZkClH+BaB07zBI01qhbb5sQX/spjrqmwxc4porPSqnNn4WDrVQFSgobmurUApGbMIltXfAXpbPJmoaa89V4hNaZXeq9BN2TfQNQ4MoYYi9cZuwCDxGENMEZA6naeNxu9qNzt8Q221sGegZ9cMxvW0cy19SpDtjPr/GVz2nMe7fGnneS2+QDeVwPIEjEHjl6BeLM41ngKF+HNffw5V8DmzuhN0Hgl+u4bGD0YAbAHpVe8GPDEG7HlIQLEgIc3fTg3xDFjCeSBv7M5p5O99vxbi8mYZJ/NzprTNxdnc2fT1qXrz0byil7Zkkdzbl3xzJMXf/IqWLy9Ob1k7WtCYAJKAJlgbI9HxwiQ2ZzA7oYUwzrIIfxsmQNOM5lsl0t6ZtR56/Zztm4UC3nrcjeLK172zG9Nh/6+mhtSwhUGKLzeZkMrZjN569kk+4itCp9MczJ789TJhllMQDKBQt9+gpJsoKRTg8mynU17hFdO5WMmF/+N5Jt88VY9+/jNa67ti6E42pvn2JyML9mNZb/ynLEx6bO7V3RDloSENDEwmlFAmIWwJl9h1lnR6VXoqZs/c0XMVnP2Op9NxEvOjclPvsQ/Zflob96jYsvn3Mej19qc/9VeMvmactb4DftGdtJv30wOJb/OyZ2aX9UNWbIVa94wilSh5ppO++Z4AcQedY5vraB8AZC9dUWe8uvanlxEL0o/2/jJrrOzYllj69btfLWTfXpoxu5sHZvQ4UtnttZzri4b83C+x8tGc/LFc7e/W7yJ81UBUjIa4ZsGP37xXa6GzIaXcLNzZD+bF//Tenx67sxQTLYB3zybOm1mK5+zic7yTacGTXvx47U3T/3sBMZm/Ow2s+VByla2nVvHT35jPPBLeWfTzIfY+0lEn6tXF3eP7QH4rwaQkpZUv9Hwf4XwXa7vVCuwZCtOcwWwn7z2Zk0x1/wajY80tnWy+FMnO/HNKJvWdBvtzXSRPIAf5W/b3H4hM0d285vdObN3bJ9dc76yNc/W9ZSdZ3QjMnyro//8iv/xp78VcJHcR68CkJLVAAn5gbQ/8v3JT36y/ejFZ8iKdCrZWbDkJs86P7PZZFf7yc45OTw0z6xrUrb25AB/BWTy2TTjibF18/RhnW7rud+Ub78Uh31xdjbndCfPOv2pmz8x6tcPf/jDDZgukOLOzh2MD3V7FYAUvKfN7egPEJAnzo9eugU25oVfKqYCWs/BVOer2SmXzGxYvHUW66Rph77zZKY9Ou2zOXnZJJNcdqZcZ8mbp73JX9eX6pJn22+z/H7eTdlHrNX2tr+VR68GkCUHmH5155acRd+yOeNLha1gVOJ97uk9PLWnzIorW9mJR8960pRZzzvDtzbS72zdT9tznfzkrbr2yXU25S9dT1ut1dRHLW834z4/rwqQwGi4+oHybUjBKk7Fax/+CAoAAADfSURBVH+f3XTTu0/+1PnqM5sr/5iN5J2fq3PM1lPyq9lRH4cH99UAck1kNmI9O3e/2lj3p+xcIvsQOw+x/xCdU7E99pn47ntoXiUg70vqsQt5tfd8Ffj0t/7P5/Pq6VqBuwrc/RzywLkC8q4018VLVOCz3/Ld/tz2JYK4+rxW4FgFroA8Vpkr/3krcPsND7oC8nnLfvV2TwWugLynQNfj563AFZDPW++rt3sqcAXkPQW6Hj9TBQ6/qbkC8pnqfXWzX4G7n0Nev6nZL9CV+7wVuPs55PWGfN7CX72dV4H/A/CRn98KGnIkAAAAAElFTkSuQmCC;" vertex="1" parent="1">
          <mxGeometry x="483.17" y="350" width="86.82" height="90" as="geometry" />
        </mxCell>
        <mxCell id="_rtk_seP__OtfE_5Taxq-21" value="" style="edgeStyle=orthogonalEdgeStyle;rounded=0;orthogonalLoop=1;jettySize=auto;html=1;" edge="1" parent="1" source="_rtk_seP__OtfE_5Taxq-15" target="_rtk_seP__OtfE_5Taxq-20">
          <mxGeometry relative="1" as="geometry" />
        </mxCell>
        <mxCell id="_rtk_seP__OtfE_5Taxq-15" value="ResUNet Liver" style="whiteSpace=wrap;html=1;verticalAlign=top;labelBackgroundColor=default;" vertex="1" parent="1">
          <mxGeometry x="373.17" y="202.5" width="116.59" height="35" as="geometry" />
        </mxCell>
        <mxCell id="_rtk_seP__OtfE_5Taxq-19" value="Preprocessing Module" style="text;html=1;align=center;verticalAlign=middle;resizable=0;points=[];autosize=1;strokeColor=none;fillColor=none;fontStyle=1" vertex="1" parent="1">
          <mxGeometry x="323.17" y="450" width="140" height="30" as="geometry" />
        </mxCell>
        <mxCell id="_rtk_seP__OtfE_5Taxq-23" value="" style="edgeStyle=orthogonalEdgeStyle;rounded=0;orthogonalLoop=1;jettySize=auto;html=1;" edge="1" parent="1" source="_rtk_seP__OtfE_5Taxq-20" target="_rtk_seP__OtfE_5Taxq-22">
          <mxGeometry relative="1" as="geometry" />
        </mxCell>
        <mxCell id="_rtk_seP__OtfE_5Taxq-32" value="" style="edgeStyle=orthogonalEdgeStyle;rounded=0;orthogonalLoop=1;jettySize=auto;html=1;" edge="1" parent="1" source="_rtk_seP__OtfE_5Taxq-20" target="_rtk_seP__OtfE_5Taxq-31">
          <mxGeometry relative="1" as="geometry" />
        </mxCell>
        <mxCell id="_rtk_seP__OtfE_5Taxq-20" value="" style="shape=image;verticalLabelPosition=bottom;labelBackgroundColor=default;verticalAlign=top;aspect=fixed;imageAspect=0;image=data:image/png,iVBORw0KGgoAAAANSUhEUgAAALQAAACqCAYAAAAEEWXZAAAAAXNSR0IArs4c6QAAAIRlWElmTU0AKgAAAAgABQESAAMAAAABAAEAAAEaAAUAAAABAAAASgEbAAUAAAABAAAAUgEoAAMAAAABAAIAAIdpAAQAAAABAAAAWgAAAAAAAACQAAAAAQAAAJAAAAABAAOgAQADAAAAAQABAACgAgAEAAAAAQAAALSgAwAEAAAAAQAAAKoAAAAAmz1eDwAAAAlwSFlzAAAWJQAAFiUBSVIk8AAAJwhJREFUeAHtnWlzG7nRx8GbOi1b9nqzcZ5KKlVbSeX7f5DUvklV8mJTm+xmvb4ky7p4Pf9fNyEMb3IoSqQMsIYzg8HZ+KOn0WhgKoN+fxCyyxR4AhSoVKuVeqhUnkBVchUyBZwC1UyITIGnRIEM6KfUmrkuIQM6g+BJUSAD+kk1Z65MvSwJBqYbcQVJ8bpsejnerlPAlQtRx1CJFw9crVKAHgjBgBiNnx/9By52zm7bKACAOaQ50+GlewxQrwxoB3II3W4/dDr9cH3dDbe33dDrOchDyGrtbQPbpssDiOv1Wmi1qjpqodGohVoNgG8658n0SwB6YGD+8qUTzs5uwq+/XoT3768M2IAcwD9GRSarln02RYHxNq7VquH4uBlevdoLL1/uh2fP2mF/v2HcelNlmJVuCUAHceSegfmnn87DDz+8Df/618fw6dN1uLnpCtBw6NQ7I7jNmyeFXjvNr1jQ+LzoV4xf9I9hi8/H/cbvY/zoz32MH/1m3ce4xXOME/3G4+I/7jfrPqZRPM9KvxgmXsew89IfDzMrLv7FsPEaf8SKRqMavvvuMPzlL6fh++9fCMjV0GzWxLUfXudQAtDOoS8vO+G33y7DP//5Kfz972/D27cX4tIdEz0gYiSkX1dM1oYAOPyKROGVFeVyD7H8f8yrXxDjx9NfPrXJkKSFK5Z33fSpb7Q4GE/f5c4ovnneq/yTHkekx3j6q6Q1Lex4etSl2ayHP//5JLTbdePQcOlerz0t+sb9SgDaiYX8fHXVC+fnNxI5LsO7d1+GgC4ga+PFzxk8NgUqFeTmejg5aYWLi1u9pTsmkvqb+uFLtzKg6aFwKzgAMjMDQjizH7fqmRHQQ9b28HXKOT4wBXjb3Nz0TBTtdkffZg9clLAyoFMBeS2itnNwUyk0Hdz76zlrOxKtnu4VDA4m5iLU47f5GlJ7GvjF5kL+K8qa0T+fnzIFqjYw3JYarsGhqcJAleFIg0Bdmb9XMIsdToen9l/kxLTxJHN7rBqX5tCAeL5bGGB+9Px0RyhQBPfjF7k0oLNo8fiNty0lGGduYOOx8FEa0IuJuV09d3F5c4j7osCoCHpfqS6XTmlAj/fKyeyyyDFJk6fp81jceBo1Sw8Kt6kS0yqW/R6DAs7EXOTwN/QyOFnMHJevS2lAL86CCmUuvZhOTyMEwEUf3e36BAsTLa1Wb6ifnl1HVL1Y5jGF7qLKepjZIKDXK9hsEuQn20gBTCEuL7tmtPbx45XZdVxdubHaNC6NH2DGiAnLvL29qoEawybAXdZtENBli5Tj7RIFACWzhNjFf/x4HX7++UJgbgjcPQG1NrTrmKzRYABXrsrUtBlevz4QuNsCN1Z6k2FX8cmAXoVaOeyQAomDwmk54M6//vpFnLYesJU/OWmbsX+3q4djiz4Ij4kEVnqYnSKasjCgVmvoujbMo9wpA7oc3XKsIQUGg75k54pZXf773+eyi78Jh4efzAIPe2i4NwAuutgJ9vYa4a9/PTWR48ULOoBb7sH1kafLuAzoMlTLcUYoAGhZ3IHsDHduNBjouY3HOJiJGAF9eNgIR0d1yd2vLH632xpJt8xNBnQZquU4ExRAw3FzM9A6055kYwZ8E0HuPCKg+/2mOsCNgdnXpI6x8rsYy19kQC9PqxxyDgUwJY7mwxisLXKE73SqGjSywNrNTwH6ui4Del0K5vhDCoBGl5eXA6bb0xfDzuPqy5K59NT3shnkcF8LBebIGFNJsGr4qYlMeGZAT5Ake5SnACBdBairhF2uVFnkWI5OOdRKFFgE1HsQlmeUJ3PoGYTJ3rtJgQzo3Wy3XOoZFMiAnkGY7L2bFMiA3s12y6WeQYEM6BmEyd4PQwF0z/G4jxwzoO+DijmNNSjghkjRwB+13zoTLFltt0ZT5KjrUYBZwjhlHvcbxxZkMJjPZ4uAxzIvdYZQfiuwYqLrVWvXYy/SuU6rH3rYGG9zOtlpOW+HH3X3et/e9rXJY8cWB2Buij0IS7JmO6cd1nyEZytfdj3Fwg9XmkMX5+BnZ/7Un+j1qF85SHoDeNOOpzCtQcfD7DptWekSFwZchR9/PJdNdUcbp1/dLcEaxxhGT5iqxv2nWbr17FkrnJ62h4sD1gD0YnJ6T1ocbntDANUIrXiOnIVS41eEs4fxOAl+KabXNNLFz4TmKuYU40X/GDv6expP4b9i3Pjz59vAwoD4FYD9/eZQhp5cGACV6ARwZcD8/Hk7vHlzbAsDuMeV5tCLRY7YFLtGfIcOpdd6Cy0IivdArH8HYGBYNRg69Gp6RngOnsXQ+BTFi2IHIExXOZCLHzFFzp4GuY+CeZyuo093idpsvfvhw402zX+v/cUvbZUL6wodWwB6sm6+dKsmMO9p+daRrVk8PW3ZRuvUvTSgp+S1S7ScW1YgA8SaoSMCdUPDYNcxsGo1nAEWyDngHcRaDmpx6vZc35q5A6uDFFAD5iKgSYkcbpVTT+e+joGdU9eQufwwRefihCMVfzeQtliW/nfPOYc+O7u2VS71+tndwoB5zBKRA5n51atDW+7FRuvff//cRBFoUBrQiwkIkce5yeJYjx2CEgOTlmB2FC7CcfgcDioXYX9wIWB3VCMHUOTWcHDC1wTJakV8VmvsIofuaXd74O6dH0DjRBcudIqgB9Q9pR5B3a3QPdSVBn52/6oB/1ol61hXo7vR1TSQ0uGJUrbdcdCFQWCv53t5pIUBYMcd4C4yT9eK9MLBQVNfkOhotUtP8VOYDQLamy8WbLfOA0HlNhwK0C/Du/Bi8C6c6tyqXIeKARbQ+lEVxauiOKAOWppPrR30+td9XwOZgbEc59BV+dFC9pM/YDTeLvAC3C5gHXCuG2ABLQC+1fk67IUvlYNwOdAR9sMXHVpWqufWnZSzlULn3QG2g5Wvp0UQc47XupxwbGYDd2eVix8e1+u8QUBPlGSnPJBpe0OgwHHhhweDy9Cs3MhXfHEgtiB/A/Cw7wLsovOmGT6MD3RbkZ51IG6O6wvIfQsiYFfEqQ3YnncR1FxfCdBXAvOXcKCuxnEoYB/Ifz/cGLDh2Igu8yFhGW/d3yIgU+AifZGxRcsx8mZAjzWsS7kM1hoGmmY4EZhvBKVLiRTA5cbAjXgBfceXz40QeMpzz653F895tHwVEb48QExRPBNVdM0kg3esmroUubecUw8B/Tk8k1CEYHSk49BATziX7Mcq9xXcZkBPaWTAcCNQBIEGBuAvdAcwoAPMDYWo6TzGlCfupyQ/4UWn8MEiXF/vBuslyln+FMDzUCcTwAF3ZyD5UVyZ43M41/EsfFLHa4Xnuns25NpsQeQDyokMn4THGGse1ikDekbjAmrkV17vyMTIueDLxA3B6gAeOLg1qRX/dZ1jl38dlqD92XVsurrEnJreEmhgGjq3Bzcqx6UgfB6OK2fhUAPXD7p/L8k/iGszgPTQMYV1S7n98TOgZ7RR1EAAbAZu16FtVwzFED8QQxiuDdE3I5XVvIcQnhsJOd2VfV3B9YZuJejWw9Hg3Hg2fpRJQo2ecbR1V1QWzk1+5x9mQM9pQgAGMBgSApwr44d7Bm60EaFyJewAmzVgrchFII/L5OPF87DSqgxlHRdCuiqDl5QzGpSYKuWGUwPqr8FlQC/RygDEZFdxQlOjDRrSTLjud1Uwo7VzF5FchHN8tvjsOpIYjumYrjj0hTziEy8zQ9hY9q+BU2dAR0wsOMOHmcRA+wFA2A7WmN4KiHa+GQdqLgbw7z7lgB2LjXDBnOM+LB61oB64/tr3p0ULQmdcL5eY2/aeM6CXbhugEOVSPxs67jju4oSYYDE9s2YCmXSBYzJHGAYaulXQcJR3EagMWpHzvQPqTaLOR06IHuitmYR5yuJHBvTSGEq2GBHDEURLJwG0TM8MpwfK2gvZNCWICYKgDfg8Ne8+fj3+EpiXr89a3mq6HlBL4TicqEF/zbuAGcZb5T0vjeXrsw0h1S7WIN4qGdAL28SbHi7n0x3wugKPK4EMgOYmT1iWISowkPNBHcWJqZO0gVl/3lw8lRPw52WLTQTS/sHgi1L1znOjHfJtalziSF+gZhgZ87E0d+zPp7uZLXQb6f5wkJwBvWRD0vzof+sVXtqyvJNOeARkS6YTBW/kceOaQiYQG0gMYQJnIDC6ZYjAbmkCO8FyiGDASicwoUcalnFH6CjfG6jFk19o2uVWHBpwI0fzdsBahftdBDWk6Iv+3Y6Mk67Zk1qLA87WtIceJ+TTvgdiMh3SZEZz4LZugNs0FvNY5RSiIFYw781cIzN+bpDUMi7t0+nA23XfgJ9fTZ0ILQZ8HWu+CEv8q0NQG5D17u2bnchwTZ7Em4YaHpn6dPDegIyBE4ZOfQ0S6VCA2t1k55hS/O3wEg17+trWtcB8dvYx/PqLvtVydG5lyxx6QRPBJV1Bp9e4wAHX4+BFDpdcDc/ivjYwRB+hD+v4fKNyEGzVSHQScnMuikbCB411ydlMtWMBiHhitiXSgTNTaDOXTMHrR+kQZzjg0siWHDWVG0sP7K7RdmDkZOpHS40arlYLRXhExxsIQHfFnS/D+Yd+eKsPFR02HMoZ0Cs2jb+kAd7yIHDIAH835r+q7IWzwXNNUZ8KZHBJPpTjggb/phqUCIKYQycCyADaO5O+/6drs7mTnXZL8GwJ2PB1dOMucvhZLwJzdBUAD/gxbWorDp2iJmAj+uB2Q/SAklZYzWdJK6QVL33ZQ/cvL0Pvwp9lQDuJ5v4XoevSq/PsuZEKD43UJg7UBac9MyT6NbwO/wvfGbzglnBpYOWAhsNWBTjA7G8EFzlc6m3JhPV4cCYbjo/it+dmtw1AFdk4csoabuZDWU+3bmnSIbCwJk0EGRc7qOUQMCmBrbyilIhaFdlDN2WauC/x48C+trXRFStbSYuVCxXB7HItjR9f68s1voUaBo2ggiujPuP1jxzrgzQC+UGngeNiM9IW5Js6AB8cmxB1yfEYKTEwdYmb0vlhqj9jzZ4pvsSCe7cG19YB6EDky8Fz+L93lZXJ8zgRVDX24mhpu4OD5iA836uEV4c+BijNoZHNvh4HlBAForpN8q2M8QEgZIign08PuK+/2gGR815fQuUCTISrvqSqkHDQZ+FMfPytgP3FxA1iE5fY+wMsS9xQSmb/Fh6hhoGlNc1wJjMuHmAEy9oWxBdyciHGO5PPgMbB4fxabMvTmr5MxFdoDwXmF8e18Pq5A7I0oHmVzXcEeAqod8galzMoiRdKvnVeqWf+eCEpPDzdwuEMqNw5jfzOOTNgPhT/PpWU/W345Q7QhGGdIlyYMHtD0aFRcfHBXsNK31L0ZIe5oO/WAFMzkqgdGTDCnW/F/+P0OB3Mh5YAO5ZtWMQtO8XdkmpwaX28c19frj3edyiXBvSW1XHjxQGQBse7gZeyHIJmUeYRHnBeRAegxOAMULrQkLg9MjOLq05l2fwq/CbL5t9sEMf7wTm5c1K0HfB3U+UNU5FQaUVKncXfCP4vQGt6nXSOVIfu4KNisbAMgQZgx7WJVCqWeFHNHvc5UgKiB3t6xN2WSgN6scixZGs/Lk1Wyt2a2Qx/qFuq37zm55mHVHcQoJpSwSEi+MpAZvJcLiccYN+X3Pxcw0YW57Iwl7UoTXHggeRlEmKwaA1J92JgNIQ5IL4rx91FytuHhgKAQE/+/con6axrBmZkeWR6bKcZI3isQiLy2ToXm4Bipqaw0pcq62KRo1SyWxzJKQePM2u7IhUXlNqhAX/XxIzAyWDvWAb5JwJVVyu8kWwRRbC0PgHMld/Cq8Gvdg0nJwQziObuOIkLMeYXH00tx/Chnlm7q+FQHtKh+hoHfNGiW5ZvsYKcesGxU4ypCW6HZyxkAcwUrDSHXlwrchzLbXGkrQ6B9Os2GMibIp04XJBMimMMhou487vRf6avGwp/oAEdwGU7AtR4rA2EWnBjOPM3AvOpRA1ED5tsEQhJ3vPwlpyXz2iu6c5jcs/Et69iR+1HvnGBbVBZdsupVqliaqHsFlLA5WcWPvneGAgMyJ0+bye7iKX7rebwNDBD04DS7pnkZDglsrSvDfwku4vfBPYPplu2fUDUhWLygDgeCws9JQDljGXFPqQhfTYizoHKwvQ4IN91t0EOHZth10mUys/U8ZlW8O1XLiV1frLdlNh4BlMf5OPlnDQZkmOZtj60Fz0ve832Se/wXBMlJ8oBcCNmkDbMp8CAlsti6VDD2UOJQeioyXOTuS1drFUC0kMLUNsgoFcp1W6EZR0hUD6TyPBJ8AOQaBmQPpGslxMDJLigPhN42rLHaDFIFKDaSpPdNQ4lAjCZwvQN4vJ9jlUmyqeewgRNU3mjeWFQSj3cjrCAkt1oHivlvQF6kvDwld0kyqz2w3BUe2QKdsemVHNFl9nNCeqstmaipaBtmJWQ/DEXRcvASpWmuHVLXB8FGloQhmYMAtlwZhMutYo6jdmKuI0HIgeD02gmtYm87ytN6mAdlL8CnTYoQyey3VclHjsd6IYE7Bu8HNtwCgkUzg0Iyjg6APKs28jBG1HPrWb8tGq+1CNigHzZ46NpNaN2m8171bLOCm91MIiNQnj0blbsJfzvtElLhN3dIGh9WSzLllxtHbItrviq6mnfBTEuosoWz6N1x+TTNcTYMcOx6Rgo+EDcJlmCA0KdSW8I3giIQD7xgvjkWpXRsm7ZnRHHKcTMIQfu3gC9ZdXdUHGcaIAaCJjN2gDBg3k7kVIzcKDQQyUumAoTnyiMBny83vEhrs/YSRMt01L45bymiZqKlG7ZK7pOtPNm8QDgjoCOPLxs2huOF18kVkz9DYt7bzL0hou/RcnDpZ2nsYGL6yfcJoLVJNit4aA3cDVua9R2rufmTL6lGJMs2DvTBdBHoxFuS9vQlK6aSWnAZYgfNtbwRPKmfpsY5NmT1f8AtXNlOlnqkKun9EAxIiF0tksN4AaiPS4DeuU2MJs26QSQpdvSc/gkNhoPbCsAotMbfQGc22Vr1gEir/paRFR9hEURiKF9z8SXM2lO6BBoPhBoCG9T27BxG3Wr4RKTX7nk4xFi53L/cTHjHjMaz3jtewbeDJp1yCa6w4bpMvbHZUA7HZb8d6jCCxAzADR2EB8FxKj2YkdStgfz575vM1BBvQeAUdU5iDUAk11znNjoaRr6VuKLcWmljMYBPp3kWyZY3CYavnQv3JnqSPaELyNo+NmHqUsS5FGCUeyeVEAA+fK6Hz5ptcp7X1KYAb1ai0BKbJLRdrhhD+tGADOvbDgtgzt0u4gjnwYnmrw+km/N1HGYhD6Xwg/OC4eGf7PWD4s6psX5AAbxWJpFhwDs6Kf3tMcG0+BMvjB4883WVyv59NAuPvEJDL4a0NGZfTzogNR0a504Mzv4X2n51YeLfvjve+3Euu+iXubQJVsNjoZNsTayteYHAACa6XHsjq+0D8Y7QfVMc39I1hgZnVTe27OWZGfrAJKfD7UusKtOgOSKJMvuRqSJ9RtT5GwYczz4pJSrBv49hYSX0rHKuihMkEpPMgxTKgg/GEr5sHBbAe11psM5hx6Ei5t+ePdFCx7OM6DL4uEuHhIuls3nghoOnvtB1hgA+1ZbFCA+wFuRnhEzGObBZbGqg8vuKRxAf6Z0gCkwQsQ4q3i8Wy2kxUT0hVIln444+Qvxb6bZ6TSAuiysyZHlBL2K7FMGvqOq5wGH3n5XqddDtVUPzaNG2DtthMNvnTdnDr1G2zmgESDYiUimmIKoix9aga17tguA8yGbIj+z0sS+jGJf1BJ8pM0AmCyxsg1kBF5mCOH8cHam1zG8pwuQBoDHYImBJ+EBu+tTVquEAxZxA6mc9wCT7Rhb+dYJWw9oyf3Vmj6H3NoP7ePjcPzNs3D6e7cSzIBeDQsToXn9uQUE2xGgm/bhFVwZkCNrAxAOPvTzUTzW1wAKQthQiFWi/23rg0QuAtTuAOabwrRN/IDzm2AgDQjQPqh8NqjbZjPKcxm2GjUkthmNvQtsst2ATFm3XnY26quUAnRdHLrV3guHRwLzy9fhm++e2dMMaCPDen8AgRe4bz8Tp8BdJoYL4gD7na5ZVyj7+IZVRdy6peeIKXvivn0Z/iOHO+eEO7Myu2Lc/nPlWFz7UtqRG9PiITJo0bOyppHpDslVInrlFRcHsJYQG5KeDuTlm4reJ8Pdm6ImOqWwvVe+plBiXLMVDg+PwovTl+Gbb06twBnQ99RuzoUZ3HEUHU98koWZRdR88G02e+Fl/0LhTyRtG38fqvFYhMvgjA9vMnhk0IZgwzdU2ICADtSR7HslNV9P/YX1LrwPTG+NGIJOz/uRchaIAbLCILZ0tVk7gGZbAzQarqpDbefXXn4vsxV8S//4gD1rCZvNZtjba+tDnAdW0gzoe22waUBwP/4RTZCzGcox2Q3nZRgIT+fKVHLy3ZMowkAQWKPqA4DIywwsEVfoEMjjdBBA31BIZHT4Os+QP3jOme17Dcy2MJYuJPMjVIvm60NRxCP04NiSeE+YVg892lLnthz+ZiwN6KEtiE9gbWlFH75Y84EAN/SB14Gu+oIrnBd+yyCyqqGlZhttOrxrQAZ+fJ4ZbBLep0AIi3jj9nFI7EHX7pwTY7HHFY7OQ1fpScSAh3MAWu6AunF7vR+Y1AHY7mDv8+syDPiIJ5XdisiZw0Wu0oD2xESa4ast3qcaktvdey95f+VXAMg1IocGaDS/DvS2RI8PAjBfs5KcLDBj/daSGOLgosGcpogLHfkjZyMqWJdQQyCaANj4vXELr4YBqOThQHawky/xkdfRxqD3ply74BxzWNh5aR173gF3owa7QOWlywhXDMapAeM77b7BpLibo/rkBsA7UCh8mzaVThxvMLIBwCy2da4LKBPn7UmcQMSAQzuXJqbf8QSxxCdm6FjMdmpbsoq60GDfwE1Y7zjktHuuNKBHe0fi1IkEmTsnWiQw4scdwEFXjSoP0YNBHq999NbOdYO4dd8MldA5F1ev2O71ArptfC6VX1Xx+fngL+XKlUPZ80Mmx5h/IFk5GlYxNc/kDx0qcejR8o6m+Ph3cOR4eGkS1koD2tn8NCA/foV3owTOCwGzviLuajRxSxvoyc8l5opmEc81+aKJFPNxPh01ct4lGFZqQgbRBO2GQZgGd04L4+HKFB/6Q/C4Fp9mpc0H2YxgWMV2CjZYNMKNqv/Mawv/IkMdL9ragB5PMN07cdP913zl4BqnAPBMQz1mFD0cIgHXt1KxMR3N7CJyNfvSsTDAcHuXGB3D7RgiX3XY+h0pOn/m7ENBuDObyzBZg3EV98jYuytuJKyVBvSsHgLZsptGgWmgdimX0AzV4JIYJwFmOLXL1W3bEozYqPOYLXTtRIRvyisCHc59x8WHwbB9Rnq+kt0Gxk8fxJnfC9DYoTCZ7l0ipbV7V17R0oBeXGHnDYvDfU0h5tMEUAFkAI0cbbOFWrPYMZVa3T5Qzza6CCY1qfeMWxfIV4R4BDcCh02iINqw7VfluUycvgnvBq/EpV+Y/IzYs9su0XXXa7Lb7TBReoAMLDESYtsxTU8LzM6pW/rwDxs4vhdPvZDtBwIEez0L/rE95TcCaqXEN12YHURm/qjY/xv8TjtOvzabawaEiDRRpTdRnB30uDdAx0FiogGkjZROvvlqEQWAqK+IQR2HLYdpQQRywOeb6L6XYMIXUtBXK5Q0HS5HI1g4pE2LohnGW02oXFa0z5NMUQHyL/oMBqpCtCuo7Hx6ZVGZtus5HTgejrvUje8N0JNVzmCepMlyPjSPD9CYIMfon72ZkIGx5PB1jOyLx+6l2HcwHY5e2qa7h3prVIJwd7PwG5wamBE1WA3D/kyuTYnwX65c2xIqquw4372dhszz3gCdEt6Wau96OSKndZsNlmRhG82MHqLCC3HYmwE2zB9Nto42HnHPaMJeVA7DewPzt+FncWZMV13nzCBwN8E8vVVhnk6vewP09Iyy73oUcJ0wg0SmrxkOMrsHuPlqIeBmVcyxlG8YMbFSHNUesw5w8nOtaXxXeSlQvzSdM9za9c1PCcyjFM6AHqXHlt4593F5F/uNqsm/rn47ldiB8g1BQlvzYiutWrAChVUvcGgW36JrZpBJ5/DUtrSqKxbrAWXoFUuWgy9FAR/+IX6wYMCXTiFGsIEk2/BiRgpoo04b0PtgEiA/5XGN1y1z6KVgtH2BIpfFWs6t9XyrX+w1eAY3Nz22nid5OcZ6isD2umVAbx9WCyWaDzyaEPGDA6Oma+PByS7PVHd3AkYEM8lzPT9tQu2OS3XJgN6dVptaUoepNyjATi4COJ7Tk+28og7rlzUDejtbd4VSAYIiEAD1Iou5xNFWyGiDQWN5lin7aDHG1cUZ0KP0eQJ3s8AcQbPNVSx2zOXK6VqOFDYDOtEiXz0KBYodjevVQV0cExSFrkepTs40U8AHqIA5HuVpkgFdnnY55r1QIHLkyKnjeZXEiePpZECvQrccdgMUKAK4eL1cVvc2KIwJjQvlyxUjh8oUKFIgcmnOswa1xfDixzGKeaeb0hw6Jjgb2CmT0aLku0yBIgUiTjjH6+LzyWswF4/01Ll7aUCnhPJVpsC6FIhgXg7Q03PzuKUBPc6Z433KbHV5KMXNV18nBZbDDNJBPJxOKV5pQI+LHF9nA+Ra3x8FIpdeLsVJBurx1gb07OzXeX3MTjU/eYoUiFiJ51XrSLw1ZehZPWTVouTwmQJOgbJgjvTz+KU5dExm9jnJNbPD5CeZAvdBgYS1DQL6Pgqa08gUWI0C9wboOEhM2a/7Ckkp5atMgSIFEHfj4bhLWLs3QBcz9Ov0Gph8ln0yBcpTIKrsOKexnOOtNKBTQl6w8fvyxc0xMwVWpQBgXnNQOClijBcivQbGn+T7TIFNUaC0gX8R0OkVAIiLQC5ej1chiyTjFNnt+3ltvbmaOQ5T3isDOgKZzyS4Mjt9vMU/rxUTnwVYrUq2IDH+5iqbU940BYptnF77m861mH7EY5xYWRnQPrrUAnldVKt8olZf+KjrW3kN7cqjD4H0etH8D/E8gtuLQOZ8H4RwXHPObpcpUAQ07U3bP2ybprGb51sS0BHM+t5yqxn29/XZhANt61rTNie9yQrFTB3wg9Dt9kOnw3dBADbhJ+PscjN/HWUvgjnW+OFB7dhKZVkZ0BQdztxs1vSd5WZ48WI/fPutPvcrLn19rU+NiUOTCRw8Oi7BbafTCzc3vXB52QlfvnQUvmsdIIM6UmqXzuMKsvhmftg6GD8sZFkC0PpGXqMajo6aAvJ++NvftFngYSOcn18LsHwyzLltRR+HxLmsjXgRDMSfPl2FX365CP/5z+fw7t2VdQIXQTKXLrTLDlwC4Mi0aLt4PG7RVwY03Ba5+eioEb777kDgroU3b7QbvHFnrxSYjgw6cepB+PDhOvz3v5/DP/5RD1dXHesENzfI44gfj9PDH5f8u5z7dnDocQqWAnStVpHsXBMQmwbukxN9AbWrTQIF5MShR7PC/+3bSwP6u3fa2Xhfn4qsoyGhEwBmzrHHj8bNd9tIgW1iQAk7KwMa0FXVORE7AHaUpZPGAo5LBsnxEUh/XgmfP+uD7Eet0G7XTRaPnNxDp4Kl2PkqU2B5CqwMaADoYkRFgEb8CAJ1EcDFay8I8jOA3turG5Dh7rVa1QC9fFFzyEyBWRTgze64WxnQ40kmgMcnk2JD5NhoR+Du7ijAJPjj03zOFFiGAqNveGnglom0bphipkMliJLMYF6Xrl9z/IQjqJCw9CCAjplz9oMCwMknuTnFyy5TYB4FXCpA9C2G8psHAXQx29Hr1LNG/fNdpsCqFHAsPSigY89yzpzBvGqT5fBOgfSmjxRJrPpBAU32Ln5EkSMWKJ8zBVajwKi4keKureVISS2+ivIzZ1flAXDAXeTWxetFaaaeuShkfv6UKQBmHAsPBujEmR3EyX6DgjBjuMzMkxfa03rKDZTrtjoFnBE+GKBdfmYyBuOmmk2yHBw0wu1tV9y6qsOt9GZVJHL1Xs8nabDqg8tnlykQuTOUeEBAD0amyp8/3wuvXh1qlrEuE9KemZ2mSReXteMgMoIZG+qbm66ZoF5dYTuCdV9u0EyBRIEHAzS9CM6MqenLl3vhj398ZqX4/PnGuHOyBUmFKwr+LAq4vOyGs7NrWe3pe9aDa5mjZiu9RK1duoq6iMiN4nm5OkRGx9kZWor/QID2dYetVl0LAvbCn/50InDXwx/+8EzctiNAsywLkcNl5GnVYmHAhw9X4aefzsOPP57ZYgEWCril3rQY2W97KYCsCKgjEDnH68WlBsTxSJBx7DwIoGOme3sYJe3LdLQpW+ojEx0AMi6ancbqUGDiAXKewZ3/85/z8MMPv0k8CVoccGnmqJOEmN0pYtr5vA0UuM8BEG3uHeJBAB3Jh4Vdu101W+rDw5aAOlkpgIyLnYAzfizZYr3izz9/sdUycPgYxmPk/0yBBx0UOqcFhHBdHwDK/nTMjQOax4gkyN+sW+SgY3g6Y5Hz7VdHAcfLkAuq9g/KoaP44Jx1umjgz7xdohgSZWs3Q02F/+paL1d4ggKRAYpN2rMHBTQ5RnBOlGyORxHkfp1BPYdcX9WjhA3HRNSfbDURxl8rW13YXLgHpYADOr3tdwLQTqFU6AelWM5sqymQRA4v5g4Beqvpmgv3qBRA3HCGlwH9qA2RM79vCmRA3zdFc3qPRIEdGhQ+EoVytjtDgTS+yhx6ZxotF3Q+BRzKD66Hnl+oxU8Z1cYJl+mh/dUz/Vn2fRoUSBw51cf9dgjQvpc0xkzYM2HX4XtRRwBznlbRVOV8tesUoI2xzHT7edp/aNsmf7cL2hlAo0DHhgMTVFa6nJy0w+npnjaJbFgl3dpqU4Am3dhxitfynuKibjTNYqVAPPPZ0pheeuZXKf156YzHGg2b0pgVDv9p5RsPP/2+mH7xenroWb6JFoSYTw+vnzO1drsRnj9vh+Pjpq18Yju66AqX0Wt7zkXbj6qsmdjgEXvqN2+Ow6dPN6oMXwyQLakRA4JA3E24YqMVr6fnNQqu0TCpEec3ILHmpTOa6njY2WWMaRJ/VwHdagHo/fD73x+H3/3uQObIjbt9Erca0E50t9JjLSKc+fXrA1uHyB7Vb94c2evHAb0pMI9DJ98/JgWi5SU72J6e7of/+78jceqWLe+jXFsPaAoJp0bcoCe+erVv+0pTiYuLzlSbauJk9zQpwBsG5sbb+uCgaWInn0aJRm8VaQxmvfu2iiII/yySZZU4C2Wvr3u2DMuLP/sVu1WVyIW5FwoAXt7Q7FHOmGpvr6HF1uxXXpWF8Y4AGkrQ9by4/lm43eiK99KGOZExCtxxZPGyOBbQOKuyEyJHrAsF94pkeTnSJJ9HKZBnCkfpke92nAL/DyYSdZRiXic6AAAAAElFTkSuQmCC;" vertex="1" parent="1">
          <mxGeometry x="528.06" y="180" width="84.71" height="80" as="geometry" />
        </mxCell>
        <mxCell id="_rtk_seP__OtfE_5Taxq-25" value="" style="edgeStyle=orthogonalEdgeStyle;rounded=0;orthogonalLoop=1;jettySize=auto;html=1;" edge="1" parent="1" source="_rtk_seP__OtfE_5Taxq-22" target="_rtk_seP__OtfE_5Taxq-24">
          <mxGeometry relative="1" as="geometry" />
        </mxCell>
        <mxCell id="_rtk_seP__OtfE_5Taxq-22" value="Liver ROI Bounding Box Extraction" style="whiteSpace=wrap;html=1;verticalAlign=top;labelBackgroundColor=default;" vertex="1" parent="1">
          <mxGeometry x="648.06" y="190" width="100.01" height="60" as="geometry" />
        </mxCell>
        <mxCell id="_rtk_seP__OtfE_5Taxq-36" value="" style="edgeStyle=orthogonalEdgeStyle;rounded=0;orthogonalLoop=1;jettySize=auto;html=1;" edge="1" parent="1" source="_rtk_seP__OtfE_5Taxq-24" target="_rtk_seP__OtfE_5Taxq-28">
          <mxGeometry relative="1" as="geometry">
            <mxPoint x="932.1750000000001" y="220" as="targetPoint" />
            <Array as="points">
              <mxPoint x="913.17" y="220" />
              <mxPoint x="913.17" y="300" />
              <mxPoint x="668.17" y="300" />
            </Array>
          </mxGeometry>
        </mxCell>
        <mxCell id="_rtk_seP__OtfE_5Taxq-24" value="" style="shape=image;verticalLabelPosition=bottom;labelBackgroundColor=default;verticalAlign=top;aspect=fixed;imageAspect=0;image=data:image/png,iVBORw0KGgoAAAANSUhEUgAAAL4AAACqCAYAAAATM/UQAAAAAXNSR0IArs4c6QAAAIRlWElmTU0AKgAAAAgABQESAAMAAAABAAEAAAEaAAUAAAABAAAASgEbAAUAAAABAAAAUgEoAAMAAAABAAIAAIdpAAQAAAABAAAAWgAAAAAAAACQAAAAAQAAAJAAAAABAAOgAQADAAAAAQABAACgAgAEAAAAAQAAAL6gAwAEAAAAAQAAAKoAAAAAqRGBVgAAAAlwSFlzAAAWJQAAFiUBSVIk8AAANoNJREFUeAHtnWeXKzlypkFfZLlb13b3nZ7WzGxLq/245+z//xHaXZ2jD+oezUyb68qTVbR6n4gEM8lLl0WWIzOrkung8UYgEAgApZGOUBxFCexQCZR0lHcov0VWixIYl0AB/HFRFDe7VAIF8Heptou8jkugAP64KIqbXSqBAvi7VNtFXsclUAB/XBTFzS6VQAH8XartIq/jEqiO72bcoOLnHAxCGA6HOnGE2r80ds0oQGn8mB0S4CX+3alUp+Nndz/2NA7LbybDTz96WKnf6efUJXek2+NM33ta/P3k98l0e57S8EejkuUx64f7eMR44qtSKX4rJfmPz/ggrMnnGA7X6TgIO/vOyx93lLuXqfvz55iuaX+TYaQx+nue07A8jSGUy6XxSXhe9qnf53w3F/jD4Sj0+8PQ7fbD9TVnz+4Hg5EIwCtumwriOVfiJtKeEi2AL4d6vRL29qqh1aqGZrOm+4qimcesNpGChw1jLvApiG53EC4uuuHDh3b47bfrcH5+Y+B3zu8JBfzZQovJd44UnyKHmnzmKRJPDCO6iO95vmtY2TBiuHnDmhd/DC8bR8xDfDf9PC+s6D5+j2Fznf6W93k6jBh2thxiOv1bKVSr5XBwUAuvXjXDmzctOxuNykRaYjjP9boA+HD7QTg7uwn/9V/n4T/+40v49der0G73JPqYzKM8RxEgKbKEIcSCXFZJ+Ipuoh8PKX3Pc7aS5j3zfjqs+My3eMwKi2/RbUzHvGfcRjdZf9n3y/zG79HP9DPv4xG/xTjjM9/z5iWGudhvKdRqlfD6dSv88MORWv2Rcfzj4z3F97X4mA3zOd3PBD4FilyPmOPAvwj/9m8fwk8/nasFuDERKC2E7Wn+nlPF3UdavS9TCo1GNbx/fxhubwcG+rdv9w30Yg/3Ee2jhDkT+DElUPvNTT+cnnaM28P5ue/3BwnXoyAmCyNypMihYlhcF33LutuGe/I6qwyebjnQb6MFL0mer1na37zZN1G31xMX3LJjIfDJq3N/F3tub3viAt1AQcAd1A3CBc6K41mXAHVJPSLK0In11h4GhzYPDESmZR+34GcJ8FNujmjjJ8QQCyrK+ltQEjudBQc9RTAawdQAv7+LrVa8bksxLQF+mk3XPae6XC8ICqc4tqsE5tepjxtsR25zjNziFE4P+OcXznYUy+7mwqdoeEuPeLNtIk6s2ZU5fvTw9dUL6ev3xZvnUwKTjGybAR/rJAfHj16K6/aVwO4xrwL424fiIkcrlEAB/BUKqXCyfSVQAH/76nRjOdo2FWa2YArgZ0ujuJ8ogW3V6JDJAvgTVV087EoJFMDflZou8jlRAgXwJ4qjeNiVEiiAvys1XeRzogQK4E8UR/GwKyVQAH9XavpO+XT7/G00YdiArc6dSrTw9MRLANNz9PhMM2XRgV6PVTYmbXrukgUnovLY+M2fH95kogD+XWpvi/0AdgDOZKOrq9vw+XM7/PLLZdjfr4ZKJT9A00GwkvwHnWWbzthsVjXFsaL5vRBB/nDXrYIC+OuW4Nb59+Vj2u1u+PSpHX7++dzAeX7esTV28mbXge/zOFi9odWqaSL7fnj7thVOTppazaGscPOGur77Avjrl+GWhVAyjs9qGh8+XJtI0m7fhL//vaX7VNRJOfni7EfgszgVk9hfvGiEP//5RJ5GxvGbzYotZ/LQTL8A/uJ626GvUdxwjt/p9MPHj20tNtDT9doWlsoLzkgc+EPEYYGq168PREDlcHS0p3V7WiIEpq9CUDH+hynyAvgPU87PKhZkfFbXYHkRFhFzwKfcPk9m8BuB32w2wnffdW2hqu+/P1YcXXWeWwruYUFP+gvg56nFHXILt2ZxgXS91LsuLOAEU6nQOUY7NBDYWY81hv04hfoI3YrHyWgR611LAOCuB3qPmXB8pQ6evRV5eE7vadlpjk+hP17Bxwp4mOtdgbvp1Dn3d9BvOux84e2kqONy59OphHxVtrrr2Ll0sWV1f+4yMgUvp7y+57l/CqAnbTsHfAoeWbNaHekc6t7XwaftjVU9r9Lu7/1mwUU6GXkdDkuSpYNGXst2RkJYno/HK4nladuMi50CPqAH7M1mT+o5PxsN1oUU8Biin4A+YLw7AAhtMryvKyyFu9/dPbbJsBkQolPa61WkOaloBLah/Q3qIgI3Q5h0vZtPOwX8cpklr3tSp7XDu3fXdj06ulXNC6TDsnFIhyC/nECR09/qxo4IUAd29lvqR/w2AX50HX37FZfRp7twv5Ouo4us31nv4ncfIS2XsaspC+w1LfraCP/4x/GYCMjP6pw/hrt9150CPiLOwcFt+MMfzsM///On8Kc/nYVv3l0J9CySWglDOKIBXS+EL5NHbZ1QOocOOBOIhE5fPxSY4jABxhhRhOP+h5rdmeX8OMXWK4aW+Ey0HHryD3r2m3GQ5hBg+yKuPFr67L2nh2dEt0qlL+5e0RLve+H33w+U1rLdd7tl4/qJlwe7LLfFIa+xEB8mWTsB/AgQOD4izjffXIUf/8fn8L/+5+/h+2/PQq8TwvVFXVxRhS+gl4S2oa5qAwyAkRxilaDf9noC1DriY1J3fJZP+xvo18HvbkdajdiBr1A1gon/ETEJnCDZwuPdVJhEEw++ccR8ZZ8bjb7y2LV0n583NTLakZHZUfjP/3xh4g4iUHTvoTzmb8ztw6dhJ4BPsRqQxEVrNYF/vxeOD2/CYb0T9nrt0Puokcp/9MPNlZArkR9uDgTVJTR+zWBHCkkLTV/5S4Bv33nvB9U5EiqHo5pCUAczVHRWdc8prmvXSugFvvv7ge79vYfphJMCYxE/JG+kGRHn+PhWYtyVrh3ldWDPzaZiUWeeViQSS0zrQ1yNUWQiogXwjeUi8S7KXcbjBm93BvhWZirfkkSBqk7g1W+PwtX1KHz6f6Xw6/8fhOsv4tTi+lQD8CxryWzAFIGP9ME3B3ZytafpGoGDVxVCz4DeUwgQQE8EcCuAd0M9dEs6db0d6Sw19H4vdEc69c6JAVLzk9DnQ4PUoL3B7HdkoP/xx8/axucsHB7e6h0gSwH/FLi9E4KP3PooLuWsvJKVDR4QeVbMyt7vFPABjwFIPzT5/VtpPW6rof1xENp/D6HzqS/gU/JADiEF904kXBPfONDhWhtcOgnYy+THNUWQDJxb2yvolNwteIdwI/hXBf+KQqD46zobctEU6A9FHAehrfuOiACC6FurkN1xMMaXogTADIdYOXqn9uXLG5n8trVzoXyrheN4DE5vEVvcpFmlpKQAdPZWu7rqhcvLnmyBbqVqVRkL+F+Xo3lb6ScSjbcmZZUFm9j5RnaETf4huAj+nQJ+LEEDimTqbr8S2qj6zlQRnwTLj+Lt3Z5BFbcO9gQ4dvH7cThJBzQ+T15x29dJ2yJCKN2GsvTqNYUqqxW7NnTfL1fF9Rt63pebdhiMuiKNI+sX3Igo2mo5aB1oBbztibEQvqcHMYfNHOr1oeT7vsC0Z/I8Yk+1apQcPT3qFeAxm4utY09Pb836k4ko+xI91yVM6pQTkDPBBUtQJru0WhV7pjazxw4CX6WjMqAzedtvhJ64zamw8UUd3F6nExq9a4FQTa9g5sDPFleee28LFJM6y7QAOlS7LsFLLNEjbUlFoK2UaAUkEAn0IoNQEwE0xPfrIoBKOA7XagVkGKxU0QJUDe5APq1KgK8Uqxm7vZUo1ZWYNeAZMPDNQZEkgcuDHyOpzgA9Vp/Y+f/006nSOLC91QCpc+TVk0WeOLIEQ36Z7HJ01DAL0Hfv2Kq0aXv2Zt3hb+eAD1g4geVtyeXtT+K4v0nDUhpehBf6Vh6JU48ExIUcXQ4XHHj1ukEk8gNtUXznbyAwWgGNIOubpH3B+zocjS7CiVqAC4k+x0rR59Kr8GX0KpyJEEbqC9ApJpwYWhK8Lg5yiI1julNpLx/0x0va08FI8kjcvqtJLZcizqGBfn+/JrDCBtZPL8TAxtTv3h3YZBfmCTPR5eioLgJxcSdmf+eA7xl3+RwAdQT+U3HUj5Krq5VaqPc7oT66cY6Pgn+DRySAySBFgqoxCTR2NiToNMXtD4Lmueo8CFfi8xJZklbo3FoAiUhqC9LwZqfTdzdJWpvJSB/wydslQIl83+kMbB4vM7x++405twDS3aybKAir2ayHP/7x2ESek5O6xmzYqpSQ+Unj2UngOx8yIcQ0LW3x2TMBqqG28rC0H/ZHl6GqFkBKkkxRrVsti/07KRIfSk2JRyVag4GIsBeqOmtKKYpPxC+EMDrAgP85HQCTUu90emaX324rv6qMiHsAGu8X5Su6w62D2l0j6rRadduV/eKio3i6Eq/iDp2TIe4k8Cn+eMIrb8VTr8Rfe+qA3kibAsya6iwikUexYbLY7ueJNHEAbjT8NfUN4PYOejrdkpNL1dDT+ADkQR/BdU/u7+n/onVilJxVHNCwkOKY6/VTD2GxHMr1tepRfQniwEhvmtvzZieBT8Ypcz+BGXzWNPfGTYfi9sacEjerVo36kTN95O0qWHz68ZQNJftrsM3SqIEwaXmIZ6DObC+8NAIg1ud1KGdi1Zvrg6Q15OFSGrzLEpdVzriYdhL4sQi4Aq7xoRcQAeddDjc7oJXwYi+rj4BtDce8EDOxm7v449Xm6ROPDy2FQ1+ANybqlND1N5XWViLvoy+aHdoq4kOM936vXuIex6ZaUy+TNN3eZ/B+g5f6rPzvJPDTQuIuQizeOTeadLP8ycUOjcZKDAGcqENRUSKfyzrHm3VFFQnAIKqHVPvjcdj7THQ8Q4oVaZr2xPmP1RsZSAzrSMZH3Pksrn+t9qCrWGLYGe9P7HY6hTxP53hTSU7jyvYDYug7D3wAC7Dgl3BU+CmgTYstFtXiK+JHX4BktDVIDEHvUhOrIRwIwAFMTPqzwPnhrbcIhJ62NJNg8Cd0/33T+LzQHf0SSItD02rklzi9tbGXmZ9ZFZ/5/Ii3k/l8yITsNPC92B1umJFZl7EkXUkUUYSYPFUDlDmtP6VOqHFqIGnI0xcRAiRlRnBi9RCYExmx0Cpw1an/SBZ64Q+WEnF+gX9v1Baf/6x43NCtp14AX3pqE/zAd3EsKoEC+CodwIeevCZxwgaTkKcFJf5WhxDQA+RaQgPNi8DIOZCo0xV3Br30AVBBEjrEheYGguN0/YyuSoOFI1eQAQd0g7VnQgHmloGul+GLaf1vJe/3NQh3oVx4GxNTnYQQHy204ocS2GngOwTcjAA4AsCqVIgAz2HGb4Sfu170C2RRhV5hYjDSBBBB1AyRbfKI83e+A3N+GTd2VSXSuowRRqgusdPE1a3SoLjVCrjZgacIMYlweWqUMGu71HjumQ113aizi4iFC081rtY9EJ8IbfVyWDfGh/C/k8CfVYWADFHDRA+x2LyQweeNODsjq59HrwXFE8G6rrcKS9yd7xAG77inPdjTuAHgr4jYIADscxi1PSpdhIPRlQbRkP/x60DGHymD+cvS2O4xbm7JbVMtQLWkhV3trfcbcDsrr8uBha9sCXicWfCb9LY8oCfrYieBT22kgPA7B4nB3yor/b5a3dFe3IhXA/wv4Y1MIN6YGGKyu2LjO8DHyIwWRcpIjRC3BVaNxmqUtiaRqKm/niwxTQwq9SQauQhEakmfjDvHCbcuuUQn/LcUFqIPRFPXO1ouh20C3ryZUTRuwy9SE4WVywpPQXGa2KXw4sR1VnJ4jkSws8DPwhlQGcSklQGcA00PNEJQBSfQyTqfec9UxdvSnnTrsrIpSQAZHQuOe8BVJ4bJCFNaElu/srQXx+8a+FF3AlMXhOTWUOT9ARnxmn+4uIFfF+44SBfkVNeLVkn2mzKzOFLce7I9QuDydON61RwQKkfSomgCTr0ukwk7setHhBIZqzHB+pP5u1xZusRHR+2zfvLGF/097HWnge9VhFTsYki/LOAL9AO4mEZvI7xWqxKFgzoTWMvsAe5PpxaSguvD8YF3TV9a4swvJAyhmYE7I+lDHpgnwLVr4vaIP3yzHoFaBNcVifO7LlTPIge9xw0myUdqa4ivrhD2rF2BlKOqNB8YEfkA+v5+1ybnHx3d2D3LlvT7shNqy8TjqqaJJCxbghm0UmFLl+SLZ7VyvR9XOwp8KihbSS5Dw7VpurMixarFzgSiujQyWFcir9N20LV1bQ28GU1CT5L/l/Au/Bbeht91f6p3Ar60QGh8AHxtxNCUtwh0eNH8JApST0o22coDE1AA6gtdyVNDvll9vqkYCRvnsZXwAJb9Sjsl67yDg1749tur8P79uZ3v3slwTzO8iKPdroUvX1rhr389ll39iSaU7OudJst4o7AsgifxfUeBP1n2Lt8DUYHEBFn/PoGxSS8TT7hDpKlJy9KUSTPgx8yYKYbADs4LiBFxXoVP4ZvwS3hb+l29gQuT53sC/UDxVk2dKk4t8Ye5AG7y4GFPRDh+QCzxngNd4JpagIZamxPFdqDYZYUul0xtFPRjZhZSgeeEMPf2ZAn0shO+//7ClmL54YcvMvlVD0Xgv9V0TcB+cPBWFpBVcX0Jbl21Tc9owapcwAcTz/9QzVvlI3n7H6gA/K7R5372COiivDMxHWDvmzITW/qO8WsEDsQROqDHEkdehw/hVemj5PEzcWXZ/UtzU1NLgwjDPRqgOJBlsv1CoHqq6ZFAbLhvieCODPhVQR5xi8mOqx5E5uIUq7Ahxnz50pTd/IGJPhACC3A1mwPN6e1o6RJNnNFUx+wKDs+lo5sL+M8lU4ur2TtvwDuyQRrwyPWNP9vaNw4XfhdiL4kMd8joyNqHkuBbIgDkfEwLkNOPpGl/J9C/1fkC0Ev1iDjkQHfCo9UApWL2Kx8JVK1FYRZXS+LSgUhgX7CnK42RAwFGa9NVqABxD9Hlw4cD67yendW1GtuRiTzffXdlC3Kx+gTcP7uCw8qJfgIOcwH/CaR3Q0lwuKSBuU6lp6U+TMKWuNBXJ1PzhVbBSUJCmA/D8TEZY1DpUk9NgXto3JiO7BvJ9S8k17c0pxZ53zU44NLJLk1PvjuIDqIBjDWJKQ0B3gWcrgXE99XbMIUk4LPm5umplK4dzVDT9cOHjsn2LE24vy8CF+f3gTUxhhyEmi9n9+d6B4HvTTlQARCmHdEd+vWuOPSFBBKAi+YFXXuQ3B4Burga1Ck0Gb9k4s6hQoLb1zVI1VSH9bVk+zfi9kwpNE6/UjuyOMbpryXEJSMiB/oYjyDTM7tS84Vz1JSae6/JHNJUSaZHc8M6Paw7CjHs7WkpFtMCOPDxw/lcjh0EfkSAAx9Oiahjiz3J5uW8dKyBJbi25mSx2oFqE734Kohh4ImQGJFtanCKObMNmSHA4eH0xxJx6rq34z5AkoSJrI8a1R9RlMY8e9SLf/EF11fPQZ1uNDWAH1BfX2tsWRodX8UBNzARDy1eF4f9dL7uIPApfGrLJftYFcj2jH9Sk5gTYALQEKc+pmMq8QGun9Rx9DLzirRus4D01exv5J85vHtqQaqmn/eYZ3pe8+VIsryYvp02zKrwXIjiZZ7AnVDimAGDVnB3wO2n95OyIT43xcdOAp9K8oryCqYCAQh2NHB+5O8DiSoHJQEWji0VJS5XxU4kKbhuRZqauq2XwyjsqiFkIZXjfpwdv3HbowjS8cccAaZOKS8GsOjMbsOxep9HuX1uVD27guDIcC+AMFmJmBRgF4k2hpUXOqN9W3sHosgDG1wTMv5gv3fjurNTv+wt6TTCpmb1ULJ1M5Wa5DlXRpLIXL2ajTmWYfbd87rPBfznlbV5qV0EYVWokIGRMB1dCICxUxMf5gWXeR8Zg3NaD8sNjH0xWBYIYaBq1mFxzP40y/nsdwkdA3ZGkkv2I6drhhtFnulI52Rl2tmTfM4l6iDfbcMRB4i+RgQIYQQX4PvSTn2pOIdmtIaosvzADaYCCE1wFes3SHy6luh0UzrTndveR7HnvoqUcC29kRjsGmNdno9pF5N1j/jkAUe5f9r9U3/OBfynnpn10+fAwPQLVaQMh03ksQkektUxHANMcGez60nkB1ZSgFxi8+kmxh0jAO831KXfOQqHI9bCZF1k1spE60JvQEeeESv3Mf9XeDQw0tHVDX/MAV73mMXdZ71bPR5K0kpzgZdl3xd4XfKpAP5UAcHH0OkzkHUhsJ5JEYlOnuZ+T4u7MtQF78eMDEtMtEGYGNM+cGUVNK6YLmAufDF6YSIT62DWpcnHvdZm1r1WT1ZIbswGQSVEMJWeuzyiVbXTKcAJwRm0Qe1OYc7wRPB3PwA1BEkgswLiO8esb/5lnd8C+DNKDzgyfMVKxU2BlVlSAJbFXAEq86YubZjryIiE2VIYnEEgKEVr0uOjw0dvz0rHtAeIPB9L72xu7K3ICfNjiKUh0wXaFrehX7OShRVaI/uJZsL+wnM5D2MzyuB+XpEAxCQHtV+49+dsnL7YlJfHegSWDTW9L4CfloXdUdQAFVEHLvxZ9pRweezzecf6NnR6aQmYXojEjn1OXzycgSM3SZY4IxUoUwhvRp/1tiQez+QUCAWziJYBH3ueI2tXSjbgVZGefzMcznMBAWC1aSw/5vNrjMUvmavpoywtELzrpTKf73hrnX6ZVVRkQR33GcbMwvsLacKsoVKysfaMG9YxlrBJAiiAP7MS0eywdQ8rF7BJg+61dB/TCiECCAAgA1uAAZCZaELLwBTAPYEekYeWgPduCTQMX2R3T3iIP3SfaRVejz5YCpD991SziD+AH+jmOsCNPMXuQoRuKkIR4qqhxtFe0sOxGTEMDo9h28GB8q5JLmzExwwv7P+zByB3kwmVl7YrvbyUqqAntmKtV9bl3e8L4M8sOyoanT5VLl2+gI48fypeD75c19+ydzTTWOBz3S9dmeUlI7aIMbFPwPRCIMQeVy4UvZCLkhEJM74aGuBqSDyi80wPwI9JMCQv518SUDi84dEYK3NwnycsJxkIxkOgLBKqsvDu9gPoGfxiV8bj4xtt2HAts2aZdYgA2KSO7/EE+LfapomdXf7+d7WSmvU1knaNXSk3xfUL4M+tRxMSBEMXYJDVsbYERmh96AAj5vBMR5hlxtm8AQM3oPNCrLduy4X0RDosAPVF78XPmW2l7xejQ/N3MTqROHVtIhRxYVKMYZt1es32Z24Cxx+IjzSxZhv2mJyuf/KV1oDtaoeDHi6P1slnf9FOyMBZiEML5S7S0CJY0zez73CHiMNO8q9edbSG/UX47jsJi9qrq9GQcCmiqFRUolUIHxGnonX0m/r2rREBJhPDoXaEkfHcJlqgAviz62n8loqG57kWZ/zawEAF8ZXJHqyl80UyP9oc5HxMHSrMiVWfAA3OsdoLuDkiU495veozsOgr4V6WjsyCE39l2QUhm9elQWL1Bez154ooAhO8HEJiFeWhTZaHCFwz5bAHKKtCH3feZkTtFPkj7JoIGXHsLgeg50CWZzM6uDyAZ7/hN2+ubLYXRAHnp0Vg0zqOT5/2zST6H/84lIGcBhRv7PVGfgrgr1CMgN85XQSQgwOQ+J3b+UiPo2VFmHLo6+TQLmPeDKARfQDoyxJL/5VNeOqIWBCLDqUtQrNDLKy+1tGViesQDNu+uXUoCSW29DDrSYWF6MXpLQqE8HVqU1/L7hz89DUYu2Ygri8ipadihDlOgxMUoscy8SN+h2vf3vou67/+yo7r2n/sdC+R89m2pyfxhx0bmd3FBHemQNIKeIsQB82W5WCV7wXwVyklcxPB/rUHYIZxGypOXGHkhi4/dmptSqG+NPTuePRF7/uC/JWeWH4Ea1DGARBv6Av4MiVMikHKZu8TDuP+CcfFDfDkO70JWhxaEtSEvhaPb0xtHnP+kH7S5HOE6adAhog+ECv6LicqD5ZURGbgbxb9oqVhji7zdZHXP36Udktgtwk0taFNbmFz6j/+USPclXSGF8ZxsdVYFH6ebwXw85TWArdwc/hjEPg/atoJ4GF9HgB5MjoXxNlNkWVdAfiZWgKfk0uQiBAIKAAM2RzYeTdXHWLBjb5ERR3kSYh5X8PsfxQCrQGERmvjqzLEzi1fJn3KwcID1yx4AkH6im4iZHW8j/SGFfk9DqVWDnG7SuhwfTqtyO7n52rfOhWbzxtlesSck5Mb+w4xvH0rndmRxk/kL7YYCxOd82MB/JwFtsg5oEU4OZeOH7D6+joYKHy0NXQOS+f6Kh2RQASo2HkF2LhUTshwbHFxdYDh2fBXWhJOBA1IgjMekf/ChXFtu+Fan4AWyLl0dL2adB5hTE581YiWJtQcSBQ7YHKNyFXTzkWKjGC72jWmZZUrAGbxKTQ2qCdvbpQnyf28r4njk39meV1p72G2LR0M1ALqWzxXiWNVNwXwJ0oqwmTiZY4HpjAinGgpQAGEbq2JIQZJ8UkFf6xBLdSc2POYXcFU6EO16VW1EvQSMIAw7RHtvDq8LuBM8m/4OhwY/g8BQUwuaDGuwLr5q/DjqUTYI+FKkJKocyzjumOZXzQE+0OpZLE1RZ8FIvOp1kW28pBdf8eBz7uBTWmEGCAMtDe49dPBPyuVd32XC/iblrPumuj1/MFhImebBvr0c56YUr8urmDWsC8owhsdxIglLAB1UjoVp5OhmrhzloMTgqkNpdmBgwNkCGQwTm8EMRwe/ihw2pIkaJ3csK6qvgEbhGoFTn2lej2Gcd2lyVwpc4wtNMqaXK7BuD2l55B5xZZO+ieeHpK3WrBe7nBwP9QNT+6pk3SWVxKu3nldKRf+Knpc+5oL+GvH9iQCWFSCi77lSzycloEvODbcHz074g8xqHVn/FZfseCU7G7gHaPBFpKi61rTezwYecjCMnJvoEw4dJohFJfsNR9Wa2f2Sy2FyZo67KDiBAJqiDP/AbSlgpRKdk/TMFu6x/JIhhu68zGM/GFGHyQomyjlyRIZr9Hd/VxzAT9S5/0k5eFCpYC9kCeBHrnLJlISqzQavPEMxwekdFhZUQ1rH9vAWXJ0HLHFXZoql8yt6woRZA7cRAKgx8CMsS8KtaJWBl3QvkiOsWUWJY+c2byngWdCm39LHLHT3DAhCq2VCNrSE3OZTfP8sNIvMRFcCSOeCif55Nf0/aaxlwv4acKf9x0Ad5B7xU0X8mTu3M3ku1We0kqDY7NyMlzfgc8Gnk0jAIjhWN+1zrKBn07l+MhEDb+fPHCJFB4HzyClt+LOe+qM9gT5tuKjAzrZCV0dQBGcCoIC0j/EyWqg8Hv6K9lj6jH7KXNPSfgfLxkFWeyPNGTSkQlp3dsdBL4XdQQ/QODe5cssQVDguF2/4OG5gN6HqI7sngkq2PhAEHRG2c3QVkoWZCP4Y8ykIqaEqx9x0OxIgH8dftWKnJ+Hb7WiQ0WGb5dSo2rBJzm0MJTJyEmj79WuMQW4hvMzEu1Gd9baKIKxizRhc4PGD6Tv/RdX3aZPqbdsWlcn1NT/Knc7CHyvKrcNkQqwLqtILY6ExWC73TU9stuCe/FF2/FVCnMVN3RKGcrSKpSS8mWaoGd043sCBANEpsGnc2s1nkVWDN3JwlSZ2vdKxs/qzL4K7eHLcFs7DM19hdGU2YTyVR2b/CrOFYAZY5i+WnkY8Qj8pI2+xVhcJOBZ6ZwMBdDTapE/dF1c+Y2aq6zrbFqzRJB1s+79DgJfXEqVhkEUZrEMif/ww5nMXzU/ShaDbv7q8KTQs5WQp7Dn+aX60cSw1xaDWccKlNWNjwV7zgPxf4wP6A4boJQUq3yu+kNN31dHtyuVZ1176qoLLGFGNvPqgB5Xr8PJN73wXisck5fWvuvBY6cxT/qjW6cXV1sC9orMB/wU9zdTAjrZnN6qzCsv2A3AZxCPfg2jG0zowcAP9S9fOGgd0yMhqvTFxu5yAf++qG9juVkhIMQahs4BA2vAt1pdsx9hI4TLS8nhNnOJgLIVsELAKzqhKh0EDDBJVajqZ4VjX+i1pk5p3Qa4GkpfmQEubcNTrmppQPVw4ZpDmeh2peNuS22J26aQdiQQfTM8Df2KrIVOurJ6vAivXqvDrDDYvIE8x7qL1xWTa85cEicN4tgyMsN2pq97DMuwpa8kxDkf9E4+pB9OD/Bp7yDxa+WCAwEvLfF4xzXem7ON/eQC/sZifaSAAAAcnbUffU33skYKh2YUNRjwvm3D6iQPAzCOuwAFf4Ag+o2A8Gd9UDrs0AV515t/jNLQv6M+1OCT9PxVeShXxM9rFQMYUjEDO6WethEdikgl6hBCQ53ZF9Kzw3rh8i9k797QBA+W+2MUlAVgsWnniGmxh5V/krKQe8uDRCiFpHuJPDInRle6OFziBvzwc4j9xsDPm7rGBfpqvdAVob3CZSw33Y6PWe/GH+9wkwv4izN3h9gf1AucHnBXzc77l18kD8smBNsRTgjCi921Ki4ezEqgV2BSRYkD/FiVjT14RcWwHDix8r1m3T2iD1Y46DtQfbKPFoRgYoHkadP+q+AxccY/WiA6xrZfokwbBhJ3MHEGUnBUjL8ur+q2tj0TOX7/vRXOziRUaTQUc4G16lBZH7HeeFws1mzkFWsk5HHuZ99QcuSa0mDTOuYrsBkGs45R8bKGHSVBGnHrv8mdX+ztJn5yAX8TET5GGF7ZEhOEQ7g91oE//yx7Gok1gILq8IkOAGPDJTw3wymhRLkW4Dp8E4CUpawUR62K69ckXtBSdPsaBRYBs08XxJIgxC4QG5aOFflhodezs4byeiBC1ywyrXjsC8GSP+LOf9C/GPWlzOQqAjAaUDrGRUawC4rP80YulU4FAudnAO9Awh5LuaDU5b0fd0tj4nnpZSeAH0sBcNP8//abZj+JANjsAG1OBIJX4P0WeExL9upYmYyXJ1od06AIyHQgSSd5sM3pdB8JOhsWyIMAcHdz49v0YP7rwJ+MY9LfoieQLt291sYfcoXwBhCSWhojAifZRSHEbxArqt2BWitlz4CPjou5ylAEQ3wPcewQ8CPHl9Wkmn2mtSGfcm5aZZmn4mLHMRKf+xUC9J/KtfDKCC590MfUnz+bf/wQQILv2IoBVO69NVsV/B4urtXTSNKiCTICPC2lh62rWiFrsWIyiH/JgXuc07/B9hTQM1VnIErAsA7BzQpgSTjrfN4h4HuFwyWpuLg3awqudYrxIf2uClxPk7cKMX35/EZfdhXAAbkZLKvzPQH2yUgmvE0+0KPx8Wbke2anMWJNj4VhPOnX1NndFwlgiA3nXyO9kxF/9bRDwP8q7/Zi5Tqb7X2L3yaMwrizQK8ONBNrMLWm6x1HXEULYyXVKoUBr2c6I/I9wGdliqY0Usw+vkUIkoYKBSeyP3zfj80TwM4DPxZtcf26BODqDnhgKM2LkOirS8Dx8xzuGvj66ZzfDLbF+U2FK9UoswoQfY71i82/ZiboTRb02fs88X/ttgD+12VSvElKYKCxDDqi3aE0SVKb9mySC9x+PQDiH1LgFGkZd6dTi2zf0GpyL0QKrGOn9RgyMa0X53SlFsCfLpHi2QDp4gwzwGQSUcIsAvMIwAogfdzgLkUVAe/hOPhjJ5fp9fvS67O8bsN4vrZmSo7Nwh5RqjiKEpgqARNxBG64PaIN3VEXOeJvxkNEcubVottZACYI1KUM0jU0kst4NNod7atoQc3yYx/W+IlDimsEUXjdxhJwjgzkXJGK3Q8iCkTgQgmcf31IxhDoJBMiI9WQG1ePwchi40VcAH/jRbodASJ+2GbR4sBoYQAioKcr6q3A5qAzhra1Ht7xhcSYdEk67uMoRJ37KNVnHmbkvOhy0LIgiTNKy8SZihSPMisT/CX+aBDE24T7yTCkRVru4yiAfx+l+mzDdJA5mBFk2PzaJ81flg4ld7NSHBp37dkLIHNiclXnuHMRKMLe5KCNlmou4D+/Uc6NltWOBJbCE+j3pca8KmlthXJD/P5Ab7AOZeMLbJx05GT5aeju3Z8JJPliGFdLouvYnMRYP242d+QC/uaiLUJ66iWApM36nUwU6Za0ioO0LgemZmS1CBbAzY6srp6bpfAF+DLMZ+IN62eWZZ1ns7siYawe1UKXuYBfDO8vLMut+QjvRa/ClkdxkklVLzFDZrYX37SJbiKOJJx6hdzjctq1E0Lylge4u85SRYAXOsuK2Dn/LN8rRDrHSS7gzwmjeL1lJYCIgy5HljQ2Yss+v1WB8UBbHKWc3oez8mR9FrefJISksyzVKf0LxB2bEGTXPDEtd1sAf3kZ7ZwLk+1lL9/RqmwVyfbskD7SRJhhTVoeceCqJurDu/P2+QD+1+CPb52j25RPs/OXJknRMHkISWPT0kYB/J2D9QoZFqJLVa2foy16ahpG3WtqzUwt2f3mnTZt0L5VrE7BzibMY/C5DMy5neTdK8QyxwnbWojIFBzAHzH5n7kERjJfk82cQJa+LoC/tIh2yYFz35JWdmge9MNrrdTAMiVv317btj1s2vDtt2d2D7dnyx7frlOyOHK53i3Cv/P0yfJ0hWVCNFxs3Aqwa8hMw7kQlM1G3PA4VgH8yXoonlQCLBvSFFd/87Yd/vLn0/CXv3zW2kOn4eXLa61KIVsabeDGsiV+OBcG8ItAj9sE3l/dmWSPZ1EOnD3OHBsyxdHA72EvC9/Ts9pvLuBD0X5wk2Yjvi2u21ICspnRlMy6Nmtglbn9/VvNTdaKCJLzmb12dVXTxmza6fGsaXOX41r2y3IPauIJfvweNY4ArwcsQtEYdZONMXBRkphjWNMlxd+ymJZ/XwL8CG6aHKjOZblJeS66WR7ZbBdkrDgevwSoh7Qu4Lrdru9ZdaXlSliqhKVZOJi4zkoVv/12YCvQsTwL7pcd0UWKGHF3vcTu3zay01U7YtmgGXZBAB6CsHSlnpZFs9L3ucCPIB+qlzEYaOUs7VjByf1Iy995IcWsrBTXlKOsX6ienGXfTTkvHh+sBAaDilajqNvSJMju7XY1/PLLkcnzMMBu13ccZ22iT59atprDKsD3DBgflygvgNseYb53gHbS1R9cX2A3hyYA3Vue5wLfe+v02um4lNXMaa/TWlVNnzod9LRVArNWJ+AdheNAnk63A5vvnKiq4mmjFkmWp30Vzw9ZAsjYZVtpjnq+uGhod/FDyfVsYEE6fHkRuDxLtXBGju/1PiuteHRAA/to3szkFlaKtjld4vY19WK1joMFAITiOSvEdd/NBT4BVzR61mhoQdPjhnr2+yqMruQ7zZORnolMzgL+/ASlhNLvj1RYQ3EK9j0aqOmkJUGMmu+7+HLfJUDhA1AYF0stsuwgBFAT46Mj6wNKpIJ6wg3iCYzL/XBdfjjwMXKWzY/sgAC/WYEqaggrSYGBPrX7J9zNgmMm8J3Lo64qa8vFuhYhPQz/8i/arv5Qmw93tCeTiTue0GxWnRj8TfY+uomEAuCvrrpa26YTPnxoq5OktdwlPg3imh+W/eiruD5MCQC59HBg8yzNiji/6xnT73e7i9ye2V0u4gBukZDArwkorDCle6aiQFTYCzkp3C22Rb5mAp/IAX+jUdEO03vacPfIuPsf/nBo3Bm537mzi0JEMAvo0xFjcISIdHnZlWzYDn/967k4y0hcRbtnq/8QR+mm/RXPD10CkbtuWHmubEBCcH1iANrO+5N1dLReT1eGcdoT0loC3MXDUxTTFd/e/ToH+DIQklyPmHNy0jTZ/tUrlqGjg0vnlgSQqDRhy5OAsRELOQ21jXsn/O1vl+o3lLTJL1z/UmIPYcaCzhPu8pgLF3ctgc0BLabAwe4rK9iev1oVuiETZ1ZrY/vrSzN9boQj9hAwjr/5NJCWOcAXpMXya1qeuqqh61arplE87XknwIN5TlqEvAcaAjj7x4+ayCCrJ7j+4aFkPN1jgQcv8JOQ7xAB3orjyZYAfJ6TObV0a1kjua4FpCAGVoFmbbVB6YWetEmHTXa5v6zMBb5H6aKMbwAA4FMwZoFvDYA88G7WPWHxDWKC66MdcqIC8Km4lILeYy9+t7MEkPR9DQf0O1rcViTAVhEd7f8+Gp0I9tj8d40cvARgiJs9lgB/MrIs2LNfsu/n3Uf3LibFp+K6GyWQAjdyfZgc8GcvYBYQPNM+Xh2dVU1vZNdG7U+jomG+7/0cc4GfBfBmxQ5vNSbDv5/MFaE+vRJAm4+2BmHnSvK8duoS6F+EU+3c2B8dCfYShEpaMtxE3ZRgNp2TucDfdEQxPABfgD6Wxm5dvQfn6+PTkT2TaNPTKm2fRy/D6UibU0ujU9VamkORw/1B3sv8wYHv0XoR7Fa173JuaeUdyujob0rNcD5iv8dg0xtPxfHbkvHZ+7Cv1dSsL3nPyH8k4Lu4YzkvfnamBBBxGLhqaw38klTZQ6n52POrM2xpdlctVPa6vj+vrELZTREt4H0dDw78qA69rwwV4T7dEtD8dCnQtc/vQVWbUNdCTXPZ97UR9XH5VpPKtefvixvbqvStJr9gCl2tykg5IYBNi8cPDvzJavH2bNOZmoyjeHoSJaBKZsmQvYNheP2+F75/r/3YNdHl4FijtnB4zeVlq9KTFx3N+rrSuBGbbWsLUAM+3H+zss+DAx+QR6BH252o+38SFVQkYuMlwPCP1buAXxeXP3rTD9/8uRP+9E+nAvllaGiyC2NF7M27t6eBrYZz+k4HQzmJRLIWdS3P5pL24MDfXNKLkJ5LCcQeHeO2GLyx+Z5NbpHJc1U7yu8J6CVxdHZIZw4vHWGsQz9/bskk+thMo+M+valZy3q5f3DgZ2X8yOljC7BeVgrfT7UEYj0D+q4AfS7A//47u52MwsV5Q6P4An5CHbjFHVuVMrUR4EMk2PxnLQfWzeuDA3/dBBf+n2cJAGhmad3cOCfvayf50y97JtqwVGAKfG8V4kSXL1+asuYF+LLo2aCY/+DAN1kvoe6Y2edZlUWq85YA0y1ub8vhTIC/FhevVrVgVQJ6x0I0gnTwsz8vBIDYk87UyxvrbPcPDnxPxiTpbpKSZ2ezePs0SgBAa519ifG3t0qRVlNAnp9mgCkeJAwJKunz5nLxKMCPs3sWG6xBHLFbdJcMR+JaJ4y7xFv4mV8C1EUCZhxlrH3n+7mfLw8O/Cz1cu+zueLklgjWmNnp5/h+2TULdsLIPi/zW3y/nxKYrgPq5a71u34KHxz4nuRUlkN286m2DFLADTZbGATnQU4X/PqFV4SQpwTQxce6pS7ifZ4wNuf2wYHvnVvtq6GZXSxVcnjY0Lzepp6ZneVLS6yaPcKaRycO+JFkSVZzYAUwJ7ZVwy7cbaoEsgyH++zzpuLIH84jAL+k1RsqWpKuFt692w8//sisGyacdwXOvgE5Esc8UC8CPN9cAzCURmAgfXFb57V0wawO8bhcJn/1bKuPx6+HRwC+Nu/VXN6jo0Z4//5AHHlgKzmwbAnzcTkA7zoHBMOkeFZv+Pd//6xr39bv8eVLHr/Q18nb8/UbK5WR2Xj/eLl5FOA3Gr5ez3B4ZCs5vH9/aEBlBYY8oAfgs9zTYWbBqrOzG1sH6G9/O9PwN24RdwB+Af7Hg9zTiPkRgO+rNxwcIPKwfEnDOL2vqbMckFmwG4ZVjpPgx6gJ2b5vqzj89NOpVonAyo8CJ3w4Dsfjcx1PR/H7GCXw4MAnk1hl0rnF5JQO7iY1ORAD4bFaGy3I/r4vXwJx2H5Kit8JBiIowE997OLxSMB38KXqy80B0IHvmxtMLl2yi9Vb5HleCTwK8ElMFE+iTf68BOZ9T7iIOoTrXD5vCIX7XSgBRhW26nAxJs3S9HP6pbjb5RLYOuBnK7MAfbY0ivtsCWw18LMZLe6LEsiWQAH8bGkU9ztTAgXwd6aqi4xmS+DRtDrZRNz3fdQcfS3zLx8wu++0FeFvugRS1XjUHM6KYSeAz4AWoP8a+LOKpHj3fEsARpbW9aL63jrgQ+Uxw87p4QDo9H1tfu5VNLx5vvVbpDxTAt5qO2Pzek45fbaOs/cLdkTJhPxMb5VR/WMawZZGjb1a0LiWH0YZkwVhH3gV3WTvE2+5LtP+Y3SEn73PFWjiOOs/e3+XsKb9TIfHcyyTaberPE/7zz5Px7VKeFk35l+JS+qTCU2NRl02YFqeUKbv7LRjzC+lhLHvreP4ZveTgIt9vJpao/FYE11evtoPnXay0YAKakZZjAtlIzfZCt5IgM80kEXlsOhbzuyCfU3nCM1WPRweNWWj1RARAH6jjpTZJOFWR9qzdqsOQK+zrM3D6sr0S1l//qBdG0di9zc3THTBgcohKQ97uI+fDVbqfSTvwcK893JIIlC1MoGvsVe17WnfvWtpf2a4f0V1LYvcpFVIqj9US5DJFh2eMc3f1U1DK/H+8Idm+D//+3X4p+9bWp8lbhhfSPhbVOXjrDDDrqpJTicne+Hbbw/Cd980wkFLTFDMHfLI1np12Dkfe9ymm7I4/J42jX7/ehj2/rUROj9obXa9g9+XRBQURHFsSwmgsPCFCsqVkkzdq2H/gPncg3BQbofSjTaSUxNvdZ809dXRr/93W3Jv+YjTTOD8JQG91dG6jENNa6yyhImcWO63KstFZmIJULcaktW0o1DXim11bRhduhHDk4LD5mKAiQj8/qefaQMECCDDF/kcI0Sv8h4T/hUWEcWwLSIii/DMG3gcaMa/wrGdBpRmC39WWKJ+fW7opEA4iH3egbP4PXs/z/2i99P+p58X+c37bdNhZ8PL3udNF+6z/rnnuM8ytggUUamnWKTLKLWVBt1a3y7iRY7+GwwsfejfVNVDAAAAAElFTkSuQmCC;" vertex="1" parent="1">
          <mxGeometry x="778.06" y="180" width="89.41" height="80" as="geometry" />
        </mxCell>
        <mxCell id="_rtk_seP__OtfE_5Taxq-38" value="" style="edgeStyle=orthogonalEdgeStyle;rounded=0;orthogonalLoop=1;jettySize=auto;html=1;" edge="1" parent="1" source="_rtk_seP__OtfE_5Taxq-28" target="_rtk_seP__OtfE_5Taxq-37">
          <mxGeometry relative="1" as="geometry" />
        </mxCell>
        <mxCell id="_rtk_seP__OtfE_5Taxq-28" value="Liver ROI Image Cropping" style="whiteSpace=wrap;html=1;verticalAlign=top;labelBackgroundColor=default;" vertex="1" parent="1">
          <mxGeometry x="623.17" y="372.5" width="90.4" height="45" as="geometry" />
        </mxCell>
        <mxCell id="_rtk_seP__OtfE_5Taxq-30" value="Liver Localization Module" style="text;html=1;align=center;verticalAlign=middle;resizable=0;points=[];autosize=1;strokeColor=none;fillColor=none;fontStyle=1" vertex="1" parent="1">
          <mxGeometry x="538.17" y="270" width="160" height="30" as="geometry" />
        </mxCell>
        <mxCell id="_rtk_seP__OtfE_5Taxq-31" value="Liver Volumes Outputs" style="whiteSpace=wrap;html=1;verticalAlign=top;labelBackgroundColor=default;" vertex="1" parent="1">
          <mxGeometry x="529.04" y="80" width="82.75" height="40" as="geometry" />
        </mxCell>
        <mxCell id="_rtk_seP__OtfE_5Taxq-40" value="" style="edgeStyle=orthogonalEdgeStyle;rounded=0;orthogonalLoop=1;jettySize=auto;html=1;" edge="1" parent="1" source="_rtk_seP__OtfE_5Taxq-37" target="_rtk_seP__OtfE_5Taxq-39">
          <mxGeometry relative="1" as="geometry" />
        </mxCell>
        <mxCell id="_rtk_seP__OtfE_5Taxq-37" value="" style="shape=image;verticalLabelPosition=bottom;labelBackgroundColor=default;verticalAlign=top;aspect=fixed;imageAspect=0;image=data:image/png,iVBORw0KGgoAAAANSUhEUgAAAKwAAACqCAYAAAAwaKTFAAAAAXNSR0IArs4c6QAAAIRlWElmTU0AKgAAAAgABQESAAMAAAABAAEAAAEaAAUAAAABAAAASgEbAAUAAAABAAAAUgEoAAMAAAABAAIAAIdpAAQAAAABAAAAWgAAAAAAAACQAAAAAQAAAJAAAAABAAOgAQADAAAAAQABAACgAgAEAAAAAQAAAKygAwAEAAAAAQAAAKoAAAAAanyI7AAAAAlwSFlzAAAWJQAAFiUBSVIk8AAAQABJREFUeAHs3QmPZEexhuGyMfuOwTsILMH//zcICQEGvGDMvq/39pPT7zh8bnV3naqauRppQsrOzMhYv4iTdap7DC/8zw0dntNzBJ4RBF58RuJ8HuZzBBYCzxv2eSM8Uwg8b9hnqlzPg33esM974JlC4HnDPlPleh7sS6dCMH+Z0Lr5VBvP5Z49BF544YUV9Hb+/8rkpIadjfnf//738J///GcN687MkjLiPamkpo+5zt/kzXXne+etjT350d3qH/NPBrE97W/1szVl7rKXbOfbffy7ZvIvvvji4VOf+tQa9qj5Lr0nyX+wYQPGrFH/9a9/Hf75z38e/vGPfxz+/e9/H2bT3pVINjrf7s9JcGvj2D5/59inw+a0kY899qb+Vi97UybelJ3n8Y/JzTM6RnLZ2O7TOTbXrJ/5zGcODc2Ln71jek+Sd2/DlpxZg/71r389/PGPfzz84Q9/WOPvf//7auLkTgn0WKJ79E/x8SzIbHGYGMyzyb8rr2My08ZdesdksuVMc2rUL37xi4cvf/nLh5dffnnNeJoWHbNxl79r8O9t2By4Rf/yl78cfv3rXx/ef//9w3vvvXf48MMPD3/+858f37LJmks63jap9smZ46VzjNfZlM1GZ3fpTZ0p2/rYnM4xm50d08Mrrjm3dk4/G/hGvObsdG6P0mt+xP3kz3SmDB7Ca/1JrY93ZDTs5z73ucPXvva1wze/+c3DD37wg9WomvXTn/7046b9WOvJrx5sWIn56Hervvvuu4ef/vSnh1/84hereTWs1wQN3atBs9ADa85boNonQy9eHz3tnSGy82z677yZ7BzZaiZn3b44st95NvBR5/HTYydM5itTfGf5a2aPvgZ56aWXVjNYo2TC1YySNRv0yTrv1a048KPWzfHn3Bm7n/3sZw9f/epXD6+99trjmxYvn+U99Z/k+sGGBQDgf/e7361G/dnPfvb4dvU+K2DAeK8lV5EE7cwoObyAtw6YmXTr9DQGuQplz14DXxzTL9vkGmRbs9UoBjbkgKasGGY8mglly7448JA4esc3G9kXp1crc03lTDzsuM18/H7pS19aa75rumyUp49l8p///Ocfv1+S4c+rmtkrnDkb4it3M6JzjJITAz+//e1vD2+99dbh9ddfP3zlK19ZPuUcPsdsPAnegw0rcAD//ve/X68CXgm8HiAfC4AOEGCikp0JSSyQyAQUfgM/HXPNQy95PI3ScKZAMw726CfjbGuLXjGJ30DpFAceufyWs3NNY0/Hnk1YaZQwos82G/mQCznNZFizQ785m+yWu/Ma0C33hS98Yb1TugE1LvJA/OlPf3rsj0/2a3Q22DOsi2kp3/wQJ3JOJ12fph988MH6DgNvvsX6tOnBhhWQwP/2t7+t1wKBSxRAQEWSAmz7iid568YEHq/zGsq+dQ3GfgDT6Zyv/GkcMQKfbHad11B4htiN9tmPR56PYnVOFi+f5cOv4QyJIV2x2NMtfpgpNLw0nubS2Ab/5Jzhs8sffXN7fsiKQazs9aXI3pkHBp8/F43XOfVjW1zlWo72W8JzLk4158+DoFnldUxna+NJ7B9s2AILdIEDz7dGa+ACAajIGZ0GHtAjdmoA+vRqBjN9w1k+zYgevkHWQMVYMeyzXQPiTTvpkys+a76R4ioMSqa5ONgub4UtZ7bdgPY+TpPPD5tioaOhfNxqWj7paApzWHhFqCm7KOiSKz+zm5Yc274ksevLsaFp+ahesGrwFRUjG3Iz84PI0cGbOuk+jfnehhVUQ5CGhBQEQNaBrLiGM3wjXWtkrkFnw2gEe2fsKpR9PidAbJBvZIcv/gGKnGePDCoe6+mPLLt4fJOTl4GcGVF78nQrPP9ixdewzuzNBruIfnrkNKFbzM2ooeiwqVGs5UEGj1744LNJhp4mdrOyqXnFkT+4kte07Jabc/rJHcszXvg1L6Wn/OPeht3GEuAVoHMJ+8gBaE1CJgqQzoBnkHGW3eTbZyOAzMBrT95eYbIjhvjmbPFN1nky9PDNfLVPHy/95s4qIlsaVQOYyU1b9sXcQ9C521fz+bSCn49cv+fWVH1hmjbpZYueJnauWekVI3vyMsMlf9uYJz7W9xHd7bhP/kmd7WrYwFIkQNSAZntPuDPA1QQCr2jWwEvPmh6dwLRXWHMA0a8Y01Z8stbN+dzuK7jz/E0beGJJP//tybY2s2/UrNbp8GUgvGTLNTmNp3Hdij3IsCOvGQ03IjmDTXF4TSCH2KyxrTWwc/Jsalz8GX950xNLZ8vgHT+K2fz/RSc3bEFKvAIBGRjoo48+enzLkgn8WTQ27AHdIIsfYPaBmGx6c7ZOr2KJAy9is0ap0PmZZ9YGXXEla29toGyRFafR2hy1Ti8b2XNenGwiMm5MhJd9N609zDUuvXTYyQc9sobb1itBvx7TuH75Xxxk6WY3e/iIj+J7xPmYF/+YTLJPcj65YQtCchrEUFwNCwgv+71HVbCSsp8jW87ZMHdew/LjzG1sBHY20yGP7MnQiewRWwaZSXzW7M7t6dMja+3BmzbJFaOZTjHkb/rIltno04jfbOWXH7etMzazX4w+wVCx4rs06OHBv6b2iuH3pV//+tdXbcjVtGzwSYeNLiA8ec9BFpElxwfbHgxy5WwWxzHdRxau83N3wxa8Gfhe8gX6jW98YwULMIk7w7fuVQE41p1JjoyRXfJ3DaDRQXPOxmwusgZiL91s29cQyZrFyLYCsGc28Gqiikw+e2aUfDO9Ys1Oevll15o/sm5EtyObctMkfJJpTUcDaUSDnn223LKwZoOei4V9c7EWly98fQeZZ86TYdc7tj/Pi41tnwjV0oNmL3ajXBcoV/xxVsNKooIUsH8YATigSbpEAQEQXyQkLVFF6HzaklfNh29d4hW33NPnH0C9B9ojBZ6NRR+JraKY2Y9npoP4Rvkh50wOzdMmOYPczIGN7M918ngzN/pyqBnMsKupysmseeWuERt02YOzc77FjNy4cBIfOYM/uuRcNnSti6+ZP69977zzzsrfr8rYKla3tx7gg464kPU1aXfDlkCzYADQTWtf0SQObKSRJQ0Q64pKlq0JEhDsnRnIfo78s0OGTkUj75yvbGcDr6Lku5mMsygfxWZW/PSTu2tml870STY78Gjg81cuHn7kVUtjZMsFAD8NafhodkbGzWfAhE/nbkX+8MJHraxrWH40Nx225Uin/J3ju11/8pOfrHdkfjQlG+z5twZiMfM1bbNzLdrdsBwLQEITME+nRAUKPE+aRAKUvOZVIAQca2CjCY6E555uAJojMulnr3O2xdMgR94e+NmrkBPg7JtrDGs2skOejYZzlL/szvg6E5sYDGuxs6eJ6MFPM1jTaW3u00rj1rxk6LIlR83OLx4fdNgqFrdhDwF5Mmyx0yfhNi+2f/Ob36wczelj+BR444031g2sD8Rp9KqylK7046yG7UmUpISRJxkg3bSeQO+1ntzAJaeB6QMEQICwpstWhTaTM/JhjewbAcsOYmfaVoxsmPNpnay5gmoc5NygT4e/msps5Ns8bcdnk17nYuwBaF7Obn6wJw5NptBGPvCO8TUHO2a6iM/eV+nDm4z4EDm2NVw3LX31IyfXRhib8fxVjoy/oBWbnMSmiT0Y7L766qvrCx6ZbCznV/ixu2EFXBNKQNJAAIwANSpwrCNBewoBUwPRMZwhRW3dvsLjb4sPQH5qlArKLx4gzYj+tMVvlKw9XYN8sTQ7jy8Wg81tHOwZ0we5/IjLoMfebEa3Ev/hUsx8aTJkTWfax2fPcDkgMgjmfKsbv2yywXcf6xr8lVdeWbww0MD0jlGYOFdPdvWC99r5Z2bxsHdNOtlaQUpccIIFSjcqPlAlQBYoAibjLKAlgG9fYSREB5ioQrUnlzxeQLLDX8MZf84rTrrsloMZn7w1O9YGP1u5eHQaZMgjM5+NbDlLjo9G8cMCZh5mcecnm9MOWb7nR23+8TUmcpnwg4fKTSM7o8NWvqqhf3uA58wQNwzxIrwpE5+cC0tfaPR5MRVjspfOJzcsR5wLTkCaUGIAAaIzyTgHTL9WwSNDPsAkDlBnrc2NfJExArFCO+eHTzpmwzk+f53zgWYz2efXOt3sO7PG38ZpP+WTYwfRbS428RjZF1N2YedjtDjpkiPPD2pmDxYa3B8GkD0bGgW+Ht6a13nxsAETfslrVIMtvt2yztjDp8cWu87p45GZAy/b/KtzNShucVyLdjVsTgO0YPElVWMJtF/FJFsB6ABE0nRKPtvO6TgLVHbjJ+/cIJt/Z8VUgzg3Ai+fbGbLOXm66U/5ZPnBJ1s+ydFjO/3mbJMvzmLg3w2b/WwlW9704rFLr0ajr+GNbjiNxi+attlw05KrWX057oa3Zs9AGt+/8iI7qRjC2z6SQ3nEu+Z8csMWRAGZAVAzVCBPl0TxrYFHjrzEPd0V1lzxpl1r5IwOYFBAKQL7+SbvzODLQM6tPfVme/4NFODTPhmUjWI085OdzqcN/lE2mskWI/k5aig88uTmyCa7+IhsjdVtyY5zeDfsi18MhjOXCT2/MnNT81EDa3y2yLldvZOS5RORPTa2Z0v4Cfw4uWGnb0BIHsCaQQI1p4+FikCH7CxE4DgDZrJksmk9deLTJQ/cCsFOuhWEz+IRXwUkB3xFIRPwbClIebBJ3x6f3c7JovQrpD25iC9+2Ziy2SHnDMVrj0cH4cXPjn0YhJ8z/uAvDjepOTk+yIgLJr7Ru2n9blVOblm4kCfnFcGvv9y6NXG5rsBufxTb5D3J9ckNOwOTUMWRPBAiZwCQZF/InOPXBH3ksEk228llm7xz+9ZAC2D2FYyec8Xq12Y1i7lf7bDDt1j4zFZrOZCZ+TkrPsWkE6918hOHckm3xrKf8tYom9bsGlF+7Kc8HJLjT67Vgz3r/NK1hhNZWPme0QPspu3VgJz6+S2Cxo2fLzEUB7uoPB/tPplPvGvMJzdszgq2gGsu54AwJGYoMAqkzpLLVsVqZpOMArBjD2DndPA0HmCBqnB8uFXIKBQeWbrO2LIupnwVywr09kdx2aZfTvSsaxZ7MkaxZXvyxGrQw5cP+Si79uzbo+JrT8c6X8WCVxxmGMgbpTMxIdM7qpvUQ91f1WCkYedrx8y3WJbxIz/C6sjRxazdDStYQ1BoruceH1CAUxwA9aRWBICSC4wKhU8G37lm04z4/aWHbQC7IXxsIWf0gI+sK6I1HTYVQkEUxt4Z2/w74xPR7Wwxbn/QNcizKb/ksmEfX6P2kWstHz40DH1+7Gvo6R9+zsnhsy/mHjwzfrlY0/FfOfeQ4jXClD05w9U7rfdVOLoA2DJmPPT4niObYGldbPTVxv6atLthcy5AJIG5VqiCd24NnAAPMHIK0Z5cYJRkds142aCn2D7SAKMwzvFaAx5pLI3TQ6BxDPLs9K7Hdn4VCtk3xEYmO/bJs6M4xYfvnKy1V5ceVnzycjLo2Gdr8p3N4Yw+X7OZ8JBcNZ18NSFdmIjDGmWjWR3I+G0AzMTpDD/f9NK3jshFHhI+/Ze1P/rRj9ZDw16xild8Lhl4WOMVe3Yemk9u2BlwgZobW0f4gjHPBrDGq2GBaa9gyWpCe4ON9nQMPAD5c6DbFABkApiefwfqoy6dZjLWbmNFcrNo8vw4Ayag2XTjZrsbS4OFB72alV/68iAjVzyFUyg64k6XnDVZgx+Elwz77dkSW81vnzxb9PkpV3H5F1ZyzC+dxlK++eHMFzB26TvH6+HMXjGZ+TOKT9PT0axw+uEPf7hiDUN2/XHiO9/5zuHNN99c/7ILjw3UvDb3/Di5YaeNgp281iUhEcMeAGYA1ggVM5nk2ZGkAtLrnD6g8JsVwkiXvAYDhCYx7HtgAA9YN4FbCLDWgObTOVlrxJ41Hr+Ib3L2/CKxkTMXX2f4cmaLvwY7ySwjtz/w82Fmk//mGtYeJc8WH4a1wXe2yBZzOXUmJjh68H35cl6+7OSLDdTe7BzBkB3/60Awhr24w9OXN40KdzGqi2GdvWXogR9nNewDNtdxyUhI0MBROEF6kg1750aB02vdnAzDzoEJHCD5SO/9lpxmdbtqKvYBBTxneG5WN4e9GYDsiRHVANZ80SFHxhme2d6aHTMSr71zJFd7pIh8iVXcKJ/06aL8mfHJGM41Uh+lydHhw3BOjt8ekm4+8tb5IodnwNIMG69Z9KctsuyXp3muxQAPeWl8+ZvpJafeLoceCv8wysPBVzLsPES7Gzbj5gqTEzyJlWBrcgYQBChoCdij7JgBh/KzNuMHm2TyDyQf7V4N8NlVGHLWXgv4MZyTn0Dmq8agVx7OFELDlkN+8RD5xtTDY5NPDTGbFS+M6BgIn58aiD47xa8JrfGKix4eG2x2CdBlSxPCo3jpOSOL2OLPuYbSsB6KHnK2k2e7hwEPFTtfbNv3QLJd/mrkzL/k8k8RuzgmrsvgAz92NWzBZdP+2JCMRIESMOQkq4lK2pmEJNoMOHuJoHzaW8cHRgAGnqagz66bVrPa0yNDtwLYp48vLoUSGxn2Uf5a2xdr8SRDZzsqWDedeBC5bJFhK5/tk8MXr7zySWbK4WejGOTnE0YDwRQfRpPYQJrWQ1/DkuUvWzDxha5bkY5PC3mhiQE98dKtnvxrUjevIQ6+01tGTvixq2GP2SsxYAmyAawAjldTSH4CLxmJ9aTbI/oSMmfLni77Bv94fPgSpjgG8GuSdIqVLF3xKChy62tYfOf5M9MTUwOPzYq9DNz+IIvEKCexKE5N05mZvpyds8duo4eGHQORqeHDaHuOzy458vIyI3m5ReHCLyLLhlkcmslDKw4zO86t/Scw3/rWtxZO9P3qjD05N8QNR9jikRMTn3yEoXVxrUBO/LGrYXMggQKcjSNYoBidByg5SUuGHFuCnklIRoKByQ45ugBkE5nz44wPcpqUjWm7tblY6NNzC5NHAK5Q2VsHNz/s8509ceMjvOw3O9ekCmXUlNkqd2duKiSmmevWZ03IB8rWlKuhYUhOXvCeD4Km1GjO04WDGN2C5A0xVgt7n1j+3Syb4qbvo37Wmx85hKU9u7BA5W2OZj7x7ppPbljgNAQhIKM/6UnccIYEUSAlIZGSE3Dn6dkDHHgNPvMFtGLIn7lzMz23io8vMx1UsbvpxNE3WX7txWnYKxRbxcMG38VPxrlZDKic8LKhsN1qZOjnizz7fOGJtQfamt3pZ/pIXrz5F8+MQbzswJ2M/VaW/+zS9/DQgSUSPz4/fGrW/sDAl1vWr86cT6pOx+Ypt3d9csNmWMIB7uO0/+7dueCQRBShJpngSqzkKra5xNJpZotPoAMrwJejmx8VG8BuTL6KC7D02GaPrKfdjNhzzkckNrIGUqxi49vanE7x8YtqMHwPB3+awKCnGcg0yFk7E0sNKw6+nIllrvHELmd+i6uGFQd9fOfWZoOdiYMYyRn82HvA2MarYbOFD9fkuxi8+7L9pOnkhgUSAribCbhuV+811pKUMLntoCcZSQKPDXPFIm8NcAS0AK6A6+DmBxtGPsiRoW+Nr2H9klpsCovXTQfYXvrxi4tNxLc8isX5LDg5Z8mwgce/oRnoWPdwkCfX4IdNcvE0AhzlwJ6zhj3MsksneWco/87IIXN58EfHQ61u4ndO3xn7MKqBzbDqYeshFx879QFbmtYfHvIrhmiu4835ofMpa31yw6YoOUkb3mkMTr37SMoaeBWVHh184EhYsqhgA9uM0iWniGayQET2wDHw7T1EGhWYZnGJkT573m+9bwFWIcQqnuzX7JqsIs9iJodXYWtacRRzMZUTGYTfXIPwGR7x2E82efl5KMWA2CZvtIdDeNLPDv/hSp4d+Ii3/DzUeDBy8cCGjr2H2xyPjpjFQg/uBtz5zdcK7OYHXnHFu2Te1bAcB8YETPKaSbELDlCSRHRKqAIVtAQDz5ocG9Zk+bFnz6gxFLGCObcGYg+SJ19xnIlDk/VlQwHYJ2822M2vfQVntzjETK5RPOViLlbrioVn2Btsis1gS3z8zZymbA0LG8Qve6hYzKi408938mxpNPLFwp6c4eJhdvlYG92wztkIj+rI3ox7BXH7oxjMd9F9Z8d0djUs4wKXoAb1NAJI8hLTFAVARiHskxGAhA0UCIGKBwiFRMl5EPhjs8JWcLrO+DHEQkYzskUHT2ziNSczY8ETDxv4xW3NnjP5lBefdLK1Ar75Qc5AxW9Pbts0brXsmvlMxrpY5CEfg51yolM86Rdv8bOXXTJIg/lCGpb5VEPN3OVin/2lePOjuOacPpnJnzqtL51PbliBIElroMCSENII1sAFBOAkEmDkA4yt9mZFMCefztanJkEAJ8MP4ps+/87MdMVgbQDfDZus4tM32CKTTboN9vHFyP9sVD5R+WaLLh1EBl78i00ziEvD1LDOPQxhsBRvfpRDTVicxVFu6fGPamr7YqRrsIkvf8R2udao7Lpd1RLRY0eMBvvZm/MSvvmRveb415hPbticCVbRDUBLrpsMENYKAwgkITqCL2lyJeoMn53AwCMDQDN+xWGTreTZAa69QvJPPjkze2S8vzpjkw18gw26ZnHXIMUpPnJ0DXLIOeIzPfvyoQMjD4qP2W4vMhpG0+afTXpmo2LnI99w90kh3mIhy7842INFtWETdV6c7JLPT3iUi1kdqyW7Hjq+2a7h2S5m6y2xe03a1bACEziwArobw2woiiEhSQNPkoATPJBRRSkZcj0EZACLxw5fdPHSK5aKQ8daDAClg+jxzbbGwa8IZMXIFhnD2uAr/c7NkYKzXeGzWYxsFZtmzbd3bDGQkxsZNowtsY/IlJ8Hz6gh6dVYZrYN50gc7MizGvHLP93yJccHPXMYVEd8fn1xVU8PW/HxExZsWjecXZN2NWyOBQMAjen3sD7a2kvE+yXwyElewTSM5AEBUGfIHMgVBXglDli2UEDSwTe3VlR2PEx89VB1Tr/CW5NFFY4cvyg78RTa2qjI5KyNbBSzeGsEZ51nm/18ZbeZnjUiUywaRl6apvzkQ5Z9PuFrts8eG52riwdGjcrJucEWuw3+8Ixk1FHDigEfsa32/Jpb24tBza5JuxtWUQQjef/y5u23316/88QDgiYuWElJ3BPp40TwCiCRigsMvICRnKT7UsWeItbMZFGNwhYZe76cV1yFqVhskkVk2HTGj0JXFLpirSjZ6Kahn+zMA18MCJ9tQ15+Y1Ej0i0XaxQWa3P7g7w4xaJRfHuHY806XwmolGdNy6Yx85SLeIqbjnPxzLzlblS3fBWHGY/9atXtXQ+YxR/mM7dL1rsbVpIaxC+L/V3ZPxXzDyJ6sjSAhg0IgNs7l6i9M4kY1gYCQLI1Er3OaoDkAx442aOvEfgxFJA8fs3HT4Vl3wAuyo49O83FQBbfyL8z+4poz6dzMcsFZhVeI3hF0IRkNEtn7NDtYYcZWYMeWWeN5PkUmzwNfuXJPr4Y+GDb0KQ9hGzlv3zN0wc/HpYZD33En7XhBvepK1/ybIhFHNegkxtWkkjyflHsH+D6a5LZL+k70zwCFyBQBGsWPAKEM/xJ9hJ3VvJTBvgGHhuT8PgVm8EGf4rMliKzDUiFQQB1hiqMuYKxyQ6fSMGKwRwezqzZJUPHQGxt8yWnUf3vAbAjrhoITmIwi7nG7qbDc8YmHYNPA/ErbhiYi5ePbLOfbQ+wQa/Y0582nBejS8BrgX9D0I1NFpYeCp8mPnnhS45f/sVyDTqrYQWnSQWneWfggitZyQPXfgtuAOEjoKSn+dihj49K2N6gn27n5Ok5VxTEZk0jVgDGZ9OZMZuVfjGzOSn/ePyXVw2Bn44YDXuYkdGwYvMbC/7lanZWQ5KZt5kmwRPjzFssaOJQw7NpyINOJFd+fOTDg12xkUNmGIa/ffnQ7SLQjOyGJxk6bliXmBmPvEZmp3iL5Zz55IbNuCCA7AkSyEwWQIKqkHSsJRrQ9mTszZ2Rpc/+HGQCnw752Vyt2Q0Ua4Ugi8gAblvAzsm0JgN4NvgTC544pn3yyRQD+WJ1lgycyknzWSu0j1dxIbMmEjc7znuPdMZW9siHi5iKi14jmeTs6YcL++I2NJd6RuVQ7u3Zpi8un15sy5MNZ0gs8vXKiMTuf+5o/luDdXDmj90NK3gF1ag9hXgCRRWxgk1gJCXJ5JJdjJsfzrajQvNBPvCySzewshOw5oqiWFF+2Zi6bOcvGfHks5ktetuZ/a0+ngLWFIotJrYUMzs+9jWwmJwh54YbkS8xRfyEFeztyczmcV48yfOXT/LlwC4ZZ0gM2S9v/tkXTw8enhjzS1ZveACsyWpePLJsXkK7Gpazgg+ImVRACF5wwPBEloxA8RHZdM3sIWsyzvlqbW4d0PmpGM34ZBS/G8WZwrKbreXw9kexHDuLRxdV5OIo1oqlOHynV8PaV2wFNxS7dY0pVrbEZLbni355iMM5yk9zcR7Llb0ITh4SeuyLG8162YeNPLz+uajIi1uefRkkJz6DLDn5pcNuMbN7Du1q2OlAkpMEglezSEgykqqgyZCbwEkQOTfI00eB39qeD7YNdvrCla4mVXwzGf56V7RmY8bSmk/nqDX7xeMsH86NbPWpo+jpOEN43vfFgOfj1JcuxRQjjOTkgSLLB2KnwTd/+SkPc5iz3cA3un1hnC08PujxT8fMtpFNfGRP103pi6t3X/bE3xdDazJsG8WpWd229uK/lHY3bECYA6dA4tVQs2Ekg+gkL2nAVaDOs0N2q0eXXYMfBfY01/TF1MxmNqwRfzOPR9xHP+MXV7L8GsVKLrt8i0NDWmej+BVQ4RQ68i27XDxcqFsp/XyRk6t9+YYxH84npYfHFhny4q1ZyeD3YJuzLYdpkw3yXmt82ZYHHh0Pm1uafbb5IGtmR6Oa8YxLaXfDBoKE3F415QykoPEKXjIoPWBJZJtMxWKDTHrWfHmSAcU3W4ZC54ePitJtgRdg7Fib+aLPVyPQxdW5YpBD5JyxbT151mQNsdKfcZWb2LudzBW7GMmJr/zY5ZO/GqDY8kE3am2mh9jjt7UzOBrl7qy8s+uMrME3rD18iD3nbDfoITOe3MyT2IqSb//QvKthGS8QYApYYYySag4EsyaoiSpoCdYw6eUjoEqWHF0F7iOULD08M0D5cVOkDwByYp3gZa84ijd9NlC+ZpyK2msIPZS9MNEI/M5zOImhL1i+gJETQ3mb7bNnxgs/vsMq2+23czmJrzzNYkTFyibs8l087LGRXWtx9Hol9uIq5nTZmjlYz7MVwBk/djUs+5wCvQYoqJmUNQoIidLrdqAbOIFCNnDYjKzzUXHpZEtj5S9bQJz2xMsGn/HpZxufbkMc5PCRuTW+W8bHI/nwmDIVtmLKt98OtA4D9rOhoa3ZRcXKThRG9nySTY7ujJMswm84j58++3CEyTyjA6PsVgd4bvGpJ2YOxVY+K5ibH8Vovz1L5q75YyTukrjlM2wIWuO4efo4w+tcctYBA4jAUmgv4O2ZlniAdasFTDMQDHuAapYArlhsADzQJ/Bi4ROo9Azy+PlwhvA0E0oHr/z4c8P4WKTTDUyWDNvyrHDsw8lft/hsz36xs19+4i9GduThnC8+InyDjXImozYoXjrNbKH0xSQfvujIIUzEBAt7+mx78LLdQ1h89UX4kWOXfXGGoTkqnvYPzSc3bIYErgBetA1BC0riQCio5NsHjIYFQECQ2wZtb/A1C1VxariAI8u+vXlStsVRg0zAyNqLnT+x5duc/3j2RkWlg7IdDuxp5mzAjIy9Rsiuueam47w8KjQfYoSZc3Js8dUshuTIlJP1HPjZSL8HJBv81KziI4+qmzMxlMfky9krj3zl0RAn36h5bXb++GR1T1CWQOC7ZfwZztxHJBMVMXMlrAD+KaK9pMxkJY4kjviwbkjQQyFpNgAd8Gb7gAEkm3TZd56MGTnrgbFG9BDfETvb4azfXbLHR01To5UXPiqe5PMvb1h66OnQr7DZNNc07LAhVnNj+mAn//hhWR7pmvmDa7kXl5jcljCix16+sm0mz/4cGtZvQPzptpr1YGRDXBHeHjq5YTNcUhKaiXEqcYnMpFpLHPgaG7Enudk46U6QydWQbgINy09gsVVxAz6fZvr4bJizzW8Foa94iN0GfVTu9vTljugZrfNbc9CbY56zo2ENcTjLFnvTZ3pmOZDLLl8z3jDonE4jXjM7cHEenmIJo/JYCd7GxD59RK85WTXVrIZfgfGRTrGlt5R3/ji5YWfSgpgjAPgWVLISLxEzHa8EQNJ4kjMqGpl0tknxUeLWzsnHa28GvrN0AgrP+SyImMmhbNRI5MUsXjO5ZKct8vLghxziw8Dr5sWnh19j8Fl85uzXQPbkk2M/H8mYnaNuaTJ4dFGx85Ef5z0s5MSGkrEmU65slgt+cs14sOh10YXmlsVH5bY2Z/7Y1bAcKp4g3JR+gawBu/UKqFmiADEbkjXI0/Mq4eNQgt3W5ADDxgRFfs4qzgRhAuacHP34Zryp7zw/zqPkKmAxkCWXDv3ZMPSQcxiRJdOnAj6bRs1KhwxMzOnxybbiWxvJFse0QzY7sGWvnMMj/ZlDZ/lgg33krBwW4+ZHuYmTPfviIYvEpaZe+XrVke9dxPceOrlhM1rQ/kxnaNreVcgEroQNCZjx6ZolV3GcVUAzmeyQCwhgxjcHlOLwT46tSVMnYLJZcaZMRRWbRrMnz1fDGSpmPsmVF7mahm36bDknCw+NaMYjTy5Zttlzbkbkso+3tUNGXLBwEfCH2BBnOnjlby6mfIulc7rWk+yTyRbdeNZ88ekTx0XEjnVx0CN3Lu1q2ADWIJrVO4ovUUASRMUTpPXcC7Abg2yFt54JBJiZjDlbbJDtDFCaQzz4QEkecBXaGjmjg5zlm30xkyOj8Eb65OkVDz9ymXa7ST3A/dqtc36897px0q2A25j4LB569hFZPHb5Z9O52MKihmWDvLxQ/uhPO87s5VZ+6ZI9Rvh3DfLFp2HFaK72W3t3+djKtd/VsJQk15PsI90AEmAC2yxoQ/JGe7MgyczBNn5gBqBCsF1iNY4YNIlBlq1ksmWO72wO/M6tixNPDPyg4qZbbPHNNYom9fB6kK3xNUlDweThtjEUMszIsi8O/prj8RPPmgzdsKQPA3MxWtPpYcafTTvzoQvHdGBBdzvKZZ6zk60e9B52Dyjyj33kXz7snku7G5azigiEbrieIGcSFxyylyCAawp6BopvHc8a5Ss/bLJtANk+m+yIwUDO6JEzT5CyS7ci0GMj3fTTy2+zvNlVHA3qXzH1L5kUX94KVu7e0b3XNZwZ/JQLe0a+rdkRwxx4ZIqFP3Hg88OnM/rOyCL87KVPpkbjAwYwCUt7OoYHTfzkxRzlhwwsfMrwy4YHk441vfBMd+/8sdcTNQVVcwSM4ARib0gAIHhTHk+iwDQHUEBOPeHQRemklxx7xwDOj6ZKp1jYbM1v+opUcZzzkZ+KLxa2K3BrBeq/cVMw1AOgKdntZm3WWAYfzmcTsJt/tsSMJy4DOYc7bORZM7AvFzerc3LOxIPoZ19eZMzGFo+JiRg0n3x6BWRva8sZPMQkrx5Mtvi4lE5uWIEhSQFaIGZBGQARVIAEAh18QDrDrxErFr71lsgZ7JNBZkUiP4uIb19zK0QFxRe3OMyTyivbzvnMVo1kbk22HKyTVSQjCgMzmXKRTz6cFad1OGRfXuXuzMietZjSnzozV3z1EQNZ+tlwxj756lh85UYPTd/x6MKskZw6tE52MS78cXLD5keCRjeERIFhbx0Frj2+hpUUoJAZ2GxJKADX4c2PimQ2atqAMNOjX5NlV1E0DhlxJCOO7JINyGK1z59z5KymqGHZy07y5SAPPPN2FG/6bIvRbVg+ePTlFNFrOM8unQaeM7YNeNVE9sWXPFnnMCFbk04s6ZAz0s+3vTjZzg9b1ijdKV8+l8y7G7ZgClij9l4mWHwjkFoHCP1Z5MBIz3m8wEt+6npInAPJR5W1YmiqCWSFM+OTmwOPb8BO3eIoFjJIXga9KJl5XvG28lOWfH7FXizZLS4y6YXT3JOf8ZDJVnw2uonpigsOfTJal5c1PXL02LPODyzxavZyzCa+0T67y8CFP05u2BIHrCTcYHheDQRvlugENx3nRk+3xqAPwBpZUig5ABmBF4ABB2gPSq8mdN1UBll2yQaWNdvs9Q2dTlRhzHQM8tlgD7V3bi0nxKci4Zn7BOqTZ9ojw3Z6ZvvtYBtGDXLiYB/xmd3FuOVZy2PWAuYGH2wYcOiTjw5bCEZInNNGOYZfMz1nKLvqgtfF0vkSuuDHyQ2bD0lIHJiC6N1U8PYAKVFrRFYj4QPfr8Ls2cGjZ1TwQIoPEHLZAwpA/CML/2yPb2fs+tIDJH6Sp1sz47FnWGeXr7meRZCDvUKmaz2bVQweoBrU7Nc5/S6SPH90DDnWeOw7azgzyMlD7B5w5+zOOPCQ+Jvl0cgXO2zShR/fcDLoshPezcXDFl66dNgy4zmL4JNtfGv+pkyy58y7GzYnBVbD2gvKCKxAADjg8DVpv7+tKPiBk745gPgkg/AUTSP0jyxqWLPhm2oPFb1uczz6QOTPmVETsm/vLJ55UnFlgz0+Nac1XWfxzNmCQQ+OWLLBJpp4kCWDV5xh1EyPbefIGq8xbViz1RlZ8bYvdnbwmjsvh2YxJGMupvjr8OZH+vbZ7eyc+eSGLSBOBe2p6QkFhPN5Zo9v+DWHGbBmT/t84vEQfXaBZyi2PT3FQzWDs/zjTd/ONCkdfsQi5uw4U8AKzVc2ipM9/FkgdiJ85+LzANl7iMgUuxvXuRgQnxrWA9tff8jzZXZOVlw1GL18FW9xmFuzUcxmeZjpGNbZEZ+BnIV5ezP5qdPazCf7bOSfTnyxG51PGXKX0MkNmxMBC6QkrfEQQDSRWUICVSAf0+YCrxjAIov6eKlJ2TecJ58+2wrrQcCjW8OJhR7bziqIc401AefXvvjJanJ6/HaW3/b0sk+uh4ecQW76K36zh6Ub356dbKW/3fNXPNO3df6cN/DFYF897NkVVxhXO3IwS4ZNZ53np1jh35osst/ytzLJLoUzf5zVsBKUnCGIApMgQMzdYj6e/cnSrRIw5BUrYOg483rhY95sr3kM8gDtxmRbs/ofHaOrKHR8LPeOBzyDDuq2sw9Y8fNjVCxxITl0Zkbm8pVX1INl75x987xZy5n9RrE0i4GtKDv2+bamz1749cAm4wyxFx7J5wNufFWzGptNg1x1YYu+OGFvzp65UVx0ETudZXcdXPBjd8PyJSDgFNjcWxsCrGEkqHjAQWYAAczTrpk0qi9SGs+M2JkJWwPFbV3RybDFBjB9CbMvBjoITwHIGGJDFTlAZ4zO7Mu1eOiya985W3jZMW9tw6G/BIlXPMXJjjWim/32eJG1GAxrujU6G/wia3k7T79z8uS2g942D7p4k08OFbO59aOTR3amXvxL5rMalkPBAaIReHO2jgKGvCbVmN7j+iZt7zYAZInng41A1/jsKrzGA4iiaAY+gKvh8eyROZt0jfYVwwNgnV6++S2mdOjj2+eTf2PeMt1Q7Hbm9YhOfuRtzR67ZItlBX/zI7/OUHu5k6VroNY9DGTpNfg2yJmz5byGbGavmKyzYU1v2sqvOZ/sGIjuNejkhp2JzQDwG/gSFORMdJuY28X/op3/922/mrJno2JXMHbwA8Ne4RUDL394mlczxAeQRugmCUg6+SpWsp17aMQb0PSzQY+s2cgWO8gZPXPNwK49GXGavR55TappPcDJ0bOemBVL/pKJzz7Miivf5plj59kxoxk3eQNPHGLkh+6MyXn77cwmnUb28LcUjlv+XfuTG1aAyCwAAFUAPEOA+KimK9GKoPhu1l/96leH999/fzWugvmY978/pZjssoWAka59IOTTecSnxk3ezLZR09WA5NzWdGocZ248MTuXZ/7ZQvm3FkNzebKBKiJ+A48+uz4hPGD8JZ8Nch7KciTvLLlyEdOMgdwkZ9UInzw7xdCeXDyYGHhigE3+xcV3fs14xd2eL/r08m9/DTq5YXNWIAotIInOYOxLPr5EJF5DeF/1P4b2wQcfrBtW0v3XC2wqJBsBFhBsIPINhRcL4s8aSDU9XU3BFh1zazqBzXbNzQ4+G8mY8Q2x5XMJ3PzIthzTd0YWORdLpCk8nL2Pd8Zv8dGxzydb9mT5QfASi7POzcUXDmwZKNm5DzN49hsdnzZGdvnNd7xl8OaHuIoXb8ZsfRfdd3ZMZ3fDbo0ItGALEog1szPgGj76/Q/balavBL4g4UneuYQBrZD0vYviW0f2bKJsdxvai8GwZo+8BuiBATh+sVobmpWcc/E0WydbXhU3H/RnIcvdPGOZNtnolvV6wE+xiMOgL356iA4ZlG9rPlBxOEPFnW38Rmf2MOdLo8Lew8SWs3JgrxzNWzt8RM7I8FH8eMfoLv4xWbzdDVswBQ9YQApOcnMElKdUw3z00UfrVcDrgC9b3Zh0DURHAwJRsmTwnAMxANKNR94QV4WrAdvTRcVqjtecnQrFdzl1Zi439vjM75QNF3GIAWUvfc3KN5v9lsSePVjjF5sGpyduwxqRS8fMV+fZMSezjQXempV9g88e4PzxEY5sRfyEBx4ZfuRs7kslPhuX0lkNW+DmxrbAEhWgxpK8YngFePfdd9drQLcnGUmbA5XNAFd0trpdANAXI7bJAqZ3L4AAq2bNPns1U7HRyxc958CfcmSNzjovZnrFni3y5PpoJSMe/PLCc04n++wUu9jgIUf8/MIhYguxYdChTz6beNb42SyGcvI7bUOzal7kTI2Kmc38mJ2zY06GXnF0oag9v/hsbKkctvy79rsblqHAKGFg4gGz2xHY3Ri+ZPn49yrgtwJuV4lIipygrcmT03y9xwLRx5QhaedGN0AFdRYogSRWsbEhtgpvzSffdFCgV4QKQSfA8+HMcFYRzNMWH/yGlYcseXJhJ0+Ykcs+OT7zK0c5ySW8xGkgM910Jk+jonLlhx0+xcd/wwMkLnbEoA72dAyEH0b2+PblRleu8qfLb77JX0q7G7bgA1xgBr4Eu1UApVH7n63x7mqN55acTUXX3vtsSfqNgf8qF5hme6DwBSBf3CrQLJi1Agc6exWHn+INWH5rNLoGau0M4HzLyWCjh5RsxTJHNQVZMcy4yNjDS2zWZGpYc774FqucxM8uWWtjxkmuXJrZKb58qpFXkTDudmWbbK9w4pv+8pVvsnjlXdwwlZfc8dILm+Tb75lPbtiC47yAA8xcYcgBSfO5STWWZnUrzm/r7AQGXftuoRpaIkDrhiUH3HTpk1UohQUU391INS47dIFYY4jZmo0Jas1Ah81GMmaDT3FYy9lgk7yYnOG5xfiQh336s5GcGZoIXx5hwF5+asiZv3g7Zx/Zi8WI8MKSH5eA38xoWg0Mn+JnB1bFlQ988YiDrFzEO+Miy1Y4zhhmLK2Luf1D88kNK+G7jDtTFLPgNZ6Pd7epxg18yUkYSYhOTyKeM3p0yHYOOGvNCgyAI4DxWdPSoW8ouhG4ioLINxc3v3IzAIzPdsWx3hJeMtmpiOIRiwdGzJoj/2z2IGUXFoYHk578YQfH/PBP10Bi5beYi9+ZOGbD2MPNw6NJ+z8DhKNPsGTZgJdB3oA7feScfzHy3dosTnLk6amZPVtkr0UnN2wOBSYIoBsFG7D2gJYUAoYk5oinQABUTDYV2qjh3Mr0OiMLZLx8ABE4QAlYsYjDiAJbE+MnGx8vG86y4RxV1MDHL+d45vgVtfid1TTsw44+ebLsG7DQRHJ1Tp9slI546ZVH5/zgsWtNHz6a1cPTf47OPvx7kOhvm4v+pHybG/wgsvnm02i/tTNt3nc25VrvbtiA0lRAAGbABT6eQJxLDAGxBKyduXn8/9RqQnY1qNcHf7LtlgaiVwu/EgOyAWQ+NLcis6MYfGlI8oZzcmw4K77iFQ+ecwN1Rr54NZqYzfyhCoWPyDZXrHhyY4++4VOlTwB8Psmwxb6GxWenPMgkl71inrHQsTfY46uLwce/AUM+NDJ/fKVjHR75y/5K8DZXudFtHMMBr0E+PLJzzryrYQUOLAkBXDPYG5KTLJ41WcUBFhK45DSbGWA+ml577bUFIhkNq/EA2b8x8GD4iKSjkZ2zwT5/CvDyyy+vIvAnFgXxkdpNrflrYnoBJ6aKJebyEksF4YvdgDcjetbZak5O44iZrjN+ndlPezWuuBEZmKWr4eQvB2P7ALJbTnT5ZR+GYoeX4aGGlcuB/WKQR0MMNSs/1RKPTJQffssTrzyLqZmeszDKzjnzrobNAccCLMgCEaCkJWpuLykgAR+fHkABiWeUeAV1A2taTazxKphGTJYNg00F7mGgqzA1g2Yl0yuG8xpRITSEWDWtWzl7bPMV8BXN3rr8zREsxEKPD76yofB0yZORN8p+djqHBX04TQxqWnEaxUWeTX7h7VIw17T2zsTDR3lkR/4G+7Dr9cyeD/Lyow8bezmxhV8fyIm84Zz9cnR2Ce1u2IKrsQQPfEOAgitp6wpYg1Q8CdABjIZRGDbdAkAHspvSn3D7TYNmraHIKoBGVkx8PPbp9prBPj47SBz+X8j5sRYj+2KpAAFcEfADH88a0bF3bp4EJ3nMphdLeTsTFz2ybObHOn0NJ5ceWDM7GgHOZMWL2GO3JjXby1MczhE/5UifLWM2Kqw94B72/NGFbzbp0gmD4s8eeWu+yF6Ddjes4AzFqnkFEgg1q0ARmYCUaE9mYJPTbGwC2HmAALobxln/HBGYQGBDs7qJKz471uyIkX08QLPlIfDFw+sIP4A0k6VDRlOgeD1kFXkd3vxgt0LIE9mTK75wcp4+e4Y4zZ3JB46I7fwXIww0j5EPZ3TKMew8zHJhw8heMdNpsGHASu4uEM3q+4SHGY8/dthnVyx4ahexUVxmvvKRzKXz7obNYYGYC1RiBuAFW/NJUnEqEBuKRA74ntIa3O3YjQAY716a0pPuL2X+SaLGxQMKYPnKTkUHKLsA19Di7Buy21VBxYP408ivv/764z9s0DXYLadyFrvimcufnQoED3HQh4FY+Jg6YpezhoWPtRE/TPlIhlyy+XPOb7Z7EPi1Zq+4zfZs00nXTB9frjCFcX+ZrCnLxY2vTrCBIX1EXw5y56d6F9sSuvDHxQ0rQIUxV1iBF2wz8EosgGeBnAWuBBUGD8iaSZMpPNAUv/dboAEY8eVco/PXA8EPHfyalRz7hjP8CiYPdhWqL2tuHTw2EVmxZQNP3KgGCQ978nyKMcKXp1gjcuI1EPvphCE/hn284ujMjMdesfKH4G8gMviwV0efXrANX3mLRQxi1aiGWiD+2coGX9uHQizT51I888fHSJ1hoCC7iRRUsIIL0IKVyARpumNn6igscIAU6Nubt6b0bqoxAOvWFQOA2Qtkt2l7zVkD8Ivs2ROrQtCXB1t9PM4i9oCKjY6RzfJlmx15iy+sKigbBj4dszNzD1qYOReL5kBygZGZvBkVB54hvnKJRxY/XOmREYtc+xO6TyZ4ioUu27Bxu8JTfZzh5z8fZoTvnK9r0VkNW2CBL/BuE4UuQHLJWEvASL+5ZDq3T7c1m5rNx3pyZPirKIoqDuDjK7BGpGutqbYAs5+9fJnJGwrDhpmcfOYXEfbIIed84UXF194sXrGHUzp4bCB+yDnDN+CM8JwbnccvT7Mz/ukitsVmTxdZ92DKq/fWXrmyz56G7XYtb/x8ZW8ZvvnB3xzxL5l3N2xAAcJoD9wKISDreYNoFsEHQKDRzw4dRQFgPOcBXqIayLstGTrkfXx3S7gpANut2a0KWDGgbBYPv2y5WcxkxUyXLQWiWzN2m/OJp6HZLK/k2A+jGi7/zrJJn46bk81iwDPIsY0vb7bsi38ldfPD3kgP37582GmEPey8VsndDD8+6IirWKzhYbDRK07x8ZVtPlGYNC/mBT92NyzHEgWYUUMVUPtiwq9RJOYcAURhKk63IxlnCK/mtQeQjyOzZnTb0gcwoNjWSEB3GwCNrCEGAxXr2tz84E9RFO7DDz9cPvPljxJsKZYGZoNPxS0+dsrLTC5ZcYmDT34Ma3JyrZma6fFFBs8+fTEi/rPD/jYfMnQMPthA5U8HiUEN4Scft2ufHmyKA/nUyk54sm3Ndnmw26BXnvwci5HMXjqrYQHXAJyAC/TYLCgBA4d8QGkuYLHVK0W3IRkNhO+cvsbRpL4g8Yk0sKay94WBDzPga1RnilXh2W6wK+b88ckG8lA4o8sWffGLWez2BvlsOJ8YOEfsVzRzJDeNr/AzRjEXN3vsIms2t7ayme/s80vXKGdn5MXNN6z86dtvBqw9EHzIOTl7o5isi7m42c0f22TzXXxkLqHdDcuZoGpYgQlYcChgJesJdQZEBIhAUnBDQ9Kh7wkPELxuMDp8ak63p9+haiY+yPv3CBrd7ahZ2SXHv1HjAZktQ/x8ALL4rNlh19yXC3pk+ML3gOB5gBRakdnc2uKDHJoFs86mNTk4IHz75O2ti9lao5gb9MRH1hCngaoH/IrRmb16eEB9ofRfg8jFw+gsW635ivI1Z2syYmfXUHv6M85snDvvbtjp3Lqg+2gQMJ7CahTg4Gk+YDQ0FZ6EEIDs6RqApgdkyVvTsVdc31Y1jHdZg78anCw/NZ3G68ERM9uzAcRYgejwz7b46SE6YrV3w5NLD48/cSL8cqjg9mhixiciI55k8YqHHh22xcCXQdZwljy+OlQL/C4EcvkoNmf9GkuzujBgJ/5s8EF++ovHZv75KtawmvE5My6lXQ2bU2ACp1tU8VCNQE6x42ukgAGKp5osuW4zM5ts4wcQAAFrAEfh2GDTlyHAuvGsNRI5N17FsK4J+WCPbaQwaDYHGf5rOvJ82afHp1g9CBpbPs7wxEjfnK/skanAya0Abn44M2Ys8ZINGzp4jWzwQ0as5VZMbMG8mOCoJrDsv2CWJ3kYhIMmR8VCv4e9urCFj/hnA0YGPfsZ+xK8/SGHPbSrYRkOfEH4uFUwhROYoCu0JtG0kjF8RHuKDXIA6RZzQ7KBlz5fgawh3K5usWZgAZgNcmZ/YMDnL7kaNrtka4B4ckJzBjDZbqVka4hZWLmyKa8KkJ49nQrGRzLN8cq3Ard3nr44u8Hok0HZWJvbPZ64yRjiM8QGH68CXqM0bJeIXAy14IdfVCx48OWbDYNuuYdLr2P0ymcZuvDH2Q1bw/VnOkloIIk0ahzN6kn2TdRTDUQN6lbUZBrWWpKS24LMbjcmG5ow2+09zWJixzk/gKxhndc4QFTMGqF4Ycn/5CtuhROXka6ZvIdF7AiPffH2aZJ9c2TNbgO/osdjOzxqHPazRy6b8fhmBxZ0Ed1iqsHg0p9fe/DJq4uG5Qc/zNjhAx5whb/8DPWVL4IzPLJDHmZ3ET97aHfDSoCTebsKEAFQgIYEgNTN6il2Q5Ih7+N7/qcaFV3CEgycwO8Vg1+AAkpTBry4yDTYqKnJKCDbirItAl/iklf+5YMvB4OOPSJnbbCL2LXmlzyfbBpywJs07WYvuYqcTbPBNlmUfjbtw51sOIlJnM7g7wFXE8MNC0d4vvLKKws7unwUS77ZZwemcNf4Gt5gE58evy4NA5aoninWObO5h3Y1rIAawCuQeOZ4ClVyigcgoAFQMv37gL48Aa2GYlsi2QMae2xnny1PulvAwxCwbNTcQHfOP/s9WGSyZa74/PFt4EVisXcujoicArFXgxSrmW96iive/LBXfvGyyQeKX972zjpPnyyec1SjyUt85ScWDasONS382Be7Tzm4ITyDXfZgp5Z8uogMdnr3tXfGjvrC2aAvb7OxJTp7aVfDcmBwLiFJSNreGmgAUixy9gKWkHOF1aDdrBoXSDUQHXYD32zgAQ6xTYeuIrDtluAXSB4EAPNDx7mGMcjTN8TMrx8v5ysAABjuSURBVKLySx8FrH1r5w3xOLNnp4cguzUJvi+D+BqkVxQx0E3OjMzimT6TKTZ6k7bn8k2WHXs65jBQL5jAVGw+6WAJM/bkZ9Z4cLYWOz47ml5N3c7yYguRE7+mpWemM/PZxt/ZzOmh9a6GzRjHgtGEgED2+AATvKQkSMYAUM3aP6AOqAoVuNmnM4cE2a8hnQUaUIHpDNh8iYHvHhrg8pW/QOavHPiwNzc6K8fk6YunuOyRuVuLL43RmZjhQg8/sidLjv1isM8H2S2fDUMM7JIXJ7L3gBiwkT8e4qvGEisf5eXMA4dv3e9nYcmOpoe7NV98ioEsHTUwl6fY7qL7zo7pfIzYsdMHeBIUlCJUNLO9JpGQIVEkEX+pcsOavZhLFFioYpIHLqADGCgAIa8h3aT2hvcosXh4AG04xxOHZmbHOSCdi3OC1ZocPTHVKMW3grz54bymSDZ7ybZPJ1v2cqPXwHMuNzxEP525nucwqVnIWpvlbMCvm72Pf3h5mMl1i5ITEz/wUZd+1ywWcvKFH3zIts6/uXqY6bBnrsb2qBzWZuePkxs2Jzk1zyHg9mIILIBpREloFGC5Wa094YBDdIFi1OzdnpKmQ0byNS0b7AIx0L2vAp28mJzREz+gDbwejnw759tZuYqtJiq3Znps0CGX7MyHHfHJ2SweQ4zikCf9fLfPHr5hH778xkuumNo77zb00e3SwJuxWMOV3d5Frftu4UIhA1d8uaolnjjti6uGNJM1G+Ligw6+PWq2FtceOrlhp9ECLTgB4QnELCGBSBZw+G5XDWYmjyTtjB0joAPHzQlsTzw5INC1NtuT1fh8ukXY6S9f/KXnTCxiYpOcM0PMyBqJozMz2WSclesSvv2RnSmXj2LNliKKp6atUZnSwFEx2Gef/7nHR/getj6dPBTe7TWjnOEORw9PDzrsnCFY4vv088pGznk5sC02sSJ+5SHfcjaTN+Q85+Jcyhf82NWwFbIga6CCC1SgIQkjibn1NBZZ/D5SAGmQSR84zvu1i48n58lV1OTFg0dHjIoArL6AKYT3MMVj281Nnj45tpG9nDqb+TnDnxjQkUt42EfF1swPqjG67cVsiFkzsMdHMeQzu83sRmTosclWzQo/3+blDP8+efq0goOmpt+vGd94443VsOrEjrMGOzUhzMpJvAaCRbiJiYwx4y1u8138KTPXJzdshgUmEElIYA4yAgY+8DSuc3xB0+udlh2gAA9Y7Em0W9ANBHzy+PaGNR9sWTuv6ACmrxB4GhWwZqP3OWfdFPx6EAKfXbHx4WxSeZdn++IpVzoV0No5Im+tccz55Megb84uP3KEUw3CrkHXIGMvb3nBQJ4N+LDZLU6Wfb7g5EF2887f3IjPOXvVy94oluJhi212xYLMDXm2XocX/ji5YfMTmJLpqRWwZAramacbeDUZfR/xmpkceUkDyugWJQ9sBUAKJmE+nKFuUHyy/geSge9cTP7jOR9pbPAhZmsF5peOGD1U1ppZIYCbX7IVRwyIHYNfsvIo520D4UcVzT55c03amu35sOMfiwM/m9ZykovmCjv88jY7c9uK3a1K3ieOmhR7+asdfPzZ1ugiEC8ZAyb02DaKqRzJ4kXWfF9KDzYsJxVIgNaKKokAV1gNJXAUGN109CQINM1Ug7vZgAdI75092faaT5I1C5/4gASYM/4VqHddhWMjHQVpL27x0RcXewrT7UuugsmBDXkZ4kezCOyJoUKQoY/imxF+Z+2TF5O45VvD9UDxR684xJRfczlp8vTN+PIyw9q5erHDdg9/D60blkzNLh7y/VfK8KJTHmEjl3qAL/m2Z0Nu9Mz44UjvXLq3YQVhCFBS/c0fKJoHwBKTyAxMM0g+AJwXrMAlYAAwoLrlJF0BAMquBwBPHOyIKWCc8WPGc6OayWeTDl/iELeHRIz2+B6cGpY/xNf0V0FqwvYBzxZeRC7Zzjo3TzzEy+/Mu3ySFQs7xqSpKyc2yNA3qxGeWDQRv2b+DOtuWTMdfNiHFVv8+w7ik8uwVkO22Sxf9sTRw9AnLZsoTGYOe9b3NixDEhCsd03fHv26wxNnBA7QBC/YwGgtQKCzk5wZ0Tc00LYg2SMLEA+GmR3EbqCbyeNVNE1MHtHRmD0gHjg62ea7hsarSdJfRm5+4E86Bv5Whjxe/GZ8+vw1W1fw4ktXDuWezaknf4MNcnClq9k6i9c+OxoVJvJl0zlZusXhgfba1qUFr7A200H804W/hndL9wqS/SV45o+TGlZwAv32t7+9EgOEBAQlQUkJWtJ4gibj5tIMArUnJzFroM4CAQeR5Y+e27JCpWNvXWHIiUUcjc6Li12fEH077hauMMXEFioGvhBfiF2jtdkZv/E7m7LxzBEdfulX8OLPX7nOOf1mZ4bY6SO+04Ele8Vjzr48y9mDogZdONWKHdgZvmu4XeGdH59i7NXcmrVbXaN6LdMT7BXfUj7zx4MNy66kBPvd7353NZFb9q233lqBCUSwmtWT6j+18GQhDduvsiReAwFK09iTNSSK+KIHCMOaLgK2c/MsuMIbqLUm8LGEAKpZ/YskumR6nRG7WBSkB0xBWqdfkemLRw5iwO/Mfp63ZmNbLDFoDjGKRbz25UGHvlFjtc9efsXjbNLELH7xFqe8jS6bPsadG/yqX5+sMCLPNt/mBvns+PQVj4ZVW70x8yqec+Z7G5bTAvdkSUDQ/lGHYARSYwjM/0MMGU81XbIaRdIarY8ZSWsKzeIbvuTp0SFLx8eP0a0oDkQOSPZAoGs24vUQick7lEbwkGnYbgdPvV/pmMXmE0S8/DeXBx/GjEEc9p2JzV4O4nNerM7IbQl2YjQ0LTzEyk6NYBafwR77iD052+cLvxhnHPhoxutcHeQIAzFY82OGIRlY+G/m4JP/ZjHIQYx6wd6sN1A5sXUs/yW088e9DTtt9WSZ3XyaVrCCkbCnSuCCBTzS5JqOPD0Na1gb3ksDSkKaxS/72TZqIkDzM4tBvka1noBYi01MbIpHwwKfffEAU2E0tMLgG+R6yMToDOXLGq+iiWkOZzVbMtkwN+hoTtjVMOIVK1/TT03EHtuonO3xjeIohvhkioEev+ZiYQ9e+GR9urBFvwsEFjVnPLJwFC9ZszqZnZWHNTIXx2Kc8ePBhuVA8GbAcarQilrygtYEGlDRvbfQkRg+WSBIRsPSl6A9e4abT3N7mv2Pspnt8SXe7cNnwASOvMXHZjGSqzk1RD41rY84Z+XEjjidaVh+xUuHPXJ8KqjZvritkXxnEzhPrll8hj15tjSB3DzoXqk8wHjOyLBDp1iy6wx1bsYz2Be3kc/85lMd+KkJncOaH/r29PMrd3HiuUxg6Kx3VDrVtxprcjLsVusV9AU/HmxYtgN4ApFPRQKWhBS8QuMLWLAa1wCWBMhbo0Amp1GAoVnNmog8W84DuVcRjcivM77yZ89HsWgCOkDjzznb1grj3c2ajhzNbNFXIDwx1LBk8egaMw/8xlZOLkb2slkOzuAk1vmAkheTwV9rfPti5K888BrFSZ4vVLO6ZPgTi3wN+GRTnZzDnowYfXL6TsMuvpnfGtZejPl3RheJ4RI6qWHvcyQQQ2KG4AJY4AUtUXtnJTZf8oEEiG5FCQOXbXr0EaDpeff1Bc++b68ann0+6bPptcIasG4DjUqerJmM282rQTI9TGzJB+GJJfDNxUUusk5P/K3FgOgZEy98jVI8msjDGD7w4putLaZ4YWQd5SN/zZrPAwwLN7q8EXxh4rLo08dD0+uKdZ9ObleychAPsq5ebPXAWzuD7TXo5IZ9yBlAENAUxyzYhiZKRgEkp9kqqnNJmvEAlK1uaPbZBgDggc1GPjSjsxoLmGw6Z1Mj9EVAI3tA2CZHT3HYI4NPT8zbZqv44itGsSGyRg1Wzo9O/+8NQ1/OYiiPZrHXtOISI3vmcKDPF7KO4tmHt5k9DWt4Z9a4HhavbfyaNSx9mJW/Mw+UL65em/okSI6suNDEnZ59GC6BC35crWFnDIJTBLcX0AUMzIpnlqhBtnOAAhKo+JLVhABiJ7v4Bh4y21d49gFoVCRNqMlrAGdiAnx2KyR98mYFFAPbCI88Kkfxlw++85qH/CyYPXKenWTJGfJxm3loDXE37DUvOzUIe2zlN7tiSs4NJ/cwsE+/WNKDDVmfPGaxeEXze3gN63YlKxbnhpj4E391h0+5lbP5ErpawwpsDkFJQPIlA6AaSJKBRs7aDeecPNJMwEGSN7IFMIXlM2DYSVeh+GbXTew20YT88uO21eQ1rKakU0ErFnvs5IvMtgiKxLczQ2zm2RDyqiHTpxNmK8mbH/b0FZ18eVs7Y1NOYqKPsktvrp2JQw7z0yWMw5IMYlP+7Hp4vTLgada+jMKLPAzhCieymhdfvGI3rLPN/lzbo2O8RyfHf16lYQMZYIEKDE0CYMUG5GxYADqXuBF49DUV0DzZgFIg5z66AEieLQ1H3sDvSW9PDw+o/kTIJ3B9DNJlUwGsEXnFVDQ+xCDG+erAdnnSKzf6wHceiZGN+DWTeRKdRrbt6cqrBjOLUXwaxJoMoqdB2G7Gp0NWHvJnL9v4bNGBhQc6/2Th5qxLgz925OPcdwj/E/7wpCsWvmESLvyRDwcxXUIXN2xAF6giShoQkjM7w1NASQNKQzjXQGQMfImVvFvPmo7G08CopgIEu0ChC3Rkb80mP8A1k7F2c9DlH7BuA3Hj8ZcMv/j8auyKUFHlVW7x4IHYku9s2tlMyc2ZDQPh02UHJkZNBTN4GHJ1Rp598RYTO3TkTaeHsBr1ANiTQWzyWz1cEtYwweeHTXuXwHvvvbcamy1+ycNq3rB0jGN0F/+YLN5VGrZAFdaXGU9kTSSRArYGjKYwaqKKWmHIWQMPWQMNEIrCHl4AWldoa757MNjgE8iKb61R7WsQIBtssykutwZdMvzWsIpbDOmLZ67tZ8OyaU8GVvStySFn1tmNRy9dPGvxi6uGkmsybE/7dGApV3jTRXT4gpVRXfDFYt9anJpTfAY+O+y5gQ1Ye5hdMD6NzF0C9HvQy3cFceaPixuWXyApqGb1S3/JCM47DmCBABjASVZDaBqJSkhyFZCsPXlrxXA7sNnt0cwvvVlo8dAFLF3n5OOLS0xGDwZAPWzFIUZFIoNq/oqQ3wpgbsw8xGGIAzkr3uTw5Uk/3sQLZhMLec3BtnOEP7FgBzlnPxyKY8acnXCjxxYbsIBB9bOGTTz2fDlVf33AD6waascGe1sqxi3/rv3FDStpgQjazfrmm28ugASrCQQLDM2hSZEGlCxwPJGGJCuaNZDdJPRrMLp95MynGL9iWyP+gce3wRebxcq/xjTnzzmd4jDXPM4QP2xoWudbwmuQpWdG+NZz4PORjrkiWtMXI/zKpfPspN+eTbL4PVx45WDNdlQ+zidOdA121MJFY4YbueyrhS9mfj/LFjvVXxxq6PKaPvO9d75KwwoEWBr01VdfXR8BEtCYmk3QQPefW3hJt3fmifVU+v+b1ShsaB52AOJj2XuSZPtY0ty+iBl0AQMg4NFHAYNn8Ndt6szoY98MZDeEB84vztmz93EnRkVTFL+f5N9Dwy89gw86RlhsYyATiZNNuqizYjOzBTPFNuSvWbpx6cOKrXzOeMqXDFky/DTSKRYyfGafLbrkNWifNuk7pwOXLh24FLt6qg8SO1vhs5i3P8jvoYsblrOcCtLHq2bVcBpFggIF9jvvvHP48Y9/vNb9r4mQ9fs9zQAANjQO4H75y18+Lgg/QPJ7QP9lZ//egHwg81Us5BHfNayYKrAHxl/LPAz0gO6G+N73vrf0fJnwgGkWNp33J2PNzK+mrajdgJTFyQ+qwOIwUM0g36i4za1rWA9O/xBaPHzxq0F6P2SrwQ9ds3N8cUziQxwGmRoKlnDqHHYaDl7skJO3GMxqBZuZM3swcqngw5ismMptxrJn/TFie7Q2sgWhSD2xgg4kSZNxcwJZ0hIJYLLxNYIBbMB5uisQEDS4xunPq3SBPB8Oe+DUROKYcc1m4pePcpAam+yT8xrjXKxkDLErAF1rZC4Ge3L5sUfhUSzmeOGRjvzhxK8zAy4ap4eILL65UXxysE7fGpmN5OmTNfIZdvBzs/oUMovHramO4mYbBmayLiU3bp9UGraHhp+oWOzLv7OH5qs0bE4KpHnyAw5Qzhv2kgEG0Mx4iq8wfaOn70kGgmZyIytgQJBHgd1HKCDZI6vhER2g8wVwPrq56Iuj1w2ybogeIOf5WsZuf/BBpoEtZvzwsJ57xapgZMgbbPAx9fDFKjZreXmg6SfPp3V+zOKfezaLIX5+s5XtbtZe3zQj3Mij4iPfawOMYedS0bg1OtlyXcpn/rhqw94VQ4l1bt8AaIBpIHtnCiZZjaQIgNKwZkUj4yalW2HIaSjgzV+5sOlmdise8wdwfugpUg2rQfhh3+0B8GJiy5nZecWo6HKNR26OzuY5XjKtzfLDL26+8MQhXk0r7/zWsOTJRtnGa91Mhh7Maz63qgcZjjBhXwNqRrjYw18cMGcX30UC6+TIoHLdrsWwh55Kwx4LSKCSBGzFUAhrZwCULAA1ck+3NWA1mCbSMBq5xuWrhvWeTIaO0Xvy9Kk57RUe8IoEeMXhk126CqeIZBSQjhgRG0hRKkzNUI7meb4Uxg/yztncytEtTn7lrFFqWjEZ8KqBw5C9bM8Y8SI6MKUPVzdqDzw8YAgHfuFiVhc6dK3xNKkv3T4FYScPZ9m3v5SeasMWMLACLJ5ErI2e9JLVMACjU1ORV4w+2hWSLh49coCuqe0BZ0z/iuSsBtAYwMbvRtcwdMSlmGSLtUY0803GbD8peWfIPmK7uOiXRzrO5QcHds0eKq85YpGjRkP0DVQ8sDOKi90wYFf+dNjyMM7BtgtAQ5LtwaEDI2fsugx8IfYqAD/kjC2xqUl5rcMzfzzVhgVShSx4haphgCYxQADK7LwG1CxAYAdIbHiqgWgP0AqvQIqKnCsyGbaanSlS/9JfHHT4dptqCEPMCqYQ9Om4edgRM37NhCcusZj5Lmf+8JqtG+TFPGXZQnjOsolnzfa0R17+YWpPl6z4DGtUw5phOhvfGi/82ZGnASP4uIFhYC8OF4ebFV7kNSoZv2nxHYDcJH7PoafWsAIEVsALFrAlD3hnDUnWtM4kD8SKgqcY3pfoONNsQHVmPT/Wgcof/XwrDGC9OvCHAO9G0MRkNSP7xadxi9msscnwpyEiseHNhp1Nwp5YxWSuKc3JTVticIboNsoHtjVjuMIEsScOo6bFY4M+DFwG8vFAhqFzRMYIFznDrAdck7IrPjy4JuM/TIWlWGDH7zZHvFPpqTWsICWliCUIBIn5HSOwyNTUGhSInnIAeprJ2hvAVEQA0XGmcdgAmKFw5Oizbw8cfgGoAHz0nsYOG2Y6zsSq0Hh06fUHDb4UQU6zOfkkT0+M9AzyBioufsSF6OQnnWb8dMnGt2arm7/mEzsM5EoP9scalm+yBizJz1jF16eSvGEPrx7o3mnp80GXHXsybljy7PIfVhMXOqfSU2nYAFB8H+E+Ovz6QzJA0DizIACWtESBBVTAsWMteUQOH4h+0Q8QPDJ4ziJ8I3LGhwY02ztXfH41IlCN2Uhsa34xo86Sy4ZY4+XTPIvDl1zKx9l2kJm8aSt7zsVf3vIxwsq5uMQqpnBg24CBEV5bf/h4P//5z1dTsu1hoAsLzQl/zUiO32TIWfPrPdevJNXfJxke+XLc5nZs/1QalmNg1bBezv11S1O5EQJqBqj5JOYJngkpbnvJVghrdpwZnnYjwpuULj81TLbMBh3gG/Z0kLVcstmZfbmQTXf6tXaWrrl19pO/b59O9szxenCznR1zI3kyaqPZJiWXrjNySKPJH/UQsKMxUTWCP1k11KD+nYn/ARa/SXBh0c3PUjzhx1NpWEEJTpKa8Pvf//4K9O233143lcLWNP/bnrmoRhTCUJD+/0+3QxnIhiiGXa4s5IKN5nESj6lYWtXsQWCLc9YSiqRxqg8bcTHWuTJiiRGxneuf69VubIUXbc7BEzNj5LUxSGOY64cUT4mdT5//1evPiPVq2cfhC27GNjcSm2fPv765qGhamtgnRM65W//8gb5ePTvvN2wcMLePbyCeAtyu/FZ6M2Z4NpvLi+tIFPq4FktdjNNWSXPqz7qLUeGudKu6V/4rfVWjeyBGexUf/Sq7uh2GPsqIScNy63PL0qg8DZijw9b5HmtYNsCgcWla3ky+M9HFDbKBTI72rMdX7CoO3ckXcc2FzPq4PsHd+Zjnk5i7fJ+yWa/1K9WbR/7Q8zTgRqVJGaxp1hxj7Eo+2rAUwSYY3Ko2qrpYZN4IPnxZb4x2110Zcd/F6ub+Jv/IE3WfcEUMgydbHBnrhIfHGjZv7mSjJxsYn+9iIDZpnJ/u4tGGPS1q/IaBFQP1n9Ur79EPA5cZmIa9fACTvsfANGyPr/G+zMA07OUDmPQ9BqZhe3yN92UGpmEvH8Ck7zEwDdvja7wvMzANe/kAJn2PgWnYHl/jfZmBX8XbOBaoruj0AAAAAElFTkSuQmCC;" vertex="1" parent="1">
          <mxGeometry x="753.17" y="355" width="80.94" height="80" as="geometry" />
        </mxCell>
        <mxCell id="_rtk_seP__OtfE_5Taxq-42" value="" style="edgeStyle=orthogonalEdgeStyle;rounded=0;orthogonalLoop=1;jettySize=auto;html=1;" edge="1" parent="1" source="_rtk_seP__OtfE_5Taxq-39" target="_rtk_seP__OtfE_5Taxq-41">
          <mxGeometry relative="1" as="geometry" />
        </mxCell>
        <mxCell id="_rtk_seP__OtfE_5Taxq-39" value="ResUNet Tumor" style="whiteSpace=wrap;html=1;verticalAlign=top;labelBackgroundColor=default;" vertex="1" parent="1">
          <mxGeometry x="863.17" y="377.5" width="116.59" height="35" as="geometry" />
        </mxCell>
        <mxCell id="_rtk_seP__OtfE_5Taxq-44" value="" style="edgeStyle=orthogonalEdgeStyle;rounded=0;orthogonalLoop=1;jettySize=auto;html=1;" edge="1" parent="1" source="_rtk_seP__OtfE_5Taxq-41" target="_rtk_seP__OtfE_5Taxq-43">
          <mxGeometry relative="1" as="geometry" />
        </mxCell>
        <mxCell id="_rtk_seP__OtfE_5Taxq-41" value="" style="shape=image;verticalLabelPosition=bottom;labelBackgroundColor=default;verticalAlign=top;aspect=fixed;imageAspect=0;image=data:image/png,iVBORw0KGgoAAAANSUhEUgAAAKAAAACiCAYAAADGB8YmAAAAAXNSR0IArs4c6QAAAIRlWElmTU0AKgAAAAgABQESAAMAAAABAAEAAAEaAAUAAAABAAAASgEbAAUAAAABAAAAUgEoAAMAAAABAAIAAIdpAAQAAAABAAAAWgAAAAAAAACQAAAAAQAAAJAAAAABAAOgAQADAAAAAQABAACgAgAEAAAAAQAAAKCgAwAEAAAAAQAAAKIAAAAAzxSrfAAAAAlwSFlzAAAWJQAAFiUBSVIk8AAAQABJREFUeAHtned2HEmanqO8gXcE2XTN9j2ze+bs/pF0pHuWrkI/pNW66enx3c129PAob/Q8EZVAEQSIQgEgQRJBFspkZmRkxBtffD5yQ0q4Ltc98CZ7AMgNd3dC7n/+r5B/k/e9vtd1DxztgWsAHu2R6+9vpAdy/bTwXgPwjXT39U1O6oFrAJ7UM9e/X2oPDAu5WP81AC+1m68rP60HrgF4Wg9dH7/UHrgG4KV273Xlp/XANQBP66Hr45fSA5kUXHz+vBH6I5HYO6mXzuUSg3jWOx93bawqVjeqN6s6U3/zHj/6nv2W3Xh0bo4zbJOHhwP/HhzIPh3UkV06yft4e8c/T3Lt+Dmvu/Z1x8brOO7z+LXjn487N/02DPl8PlQqBV7FUCzm+Z6j706+4m0fKX7zzbPQavYi8MYbk2GB5sef0V2PH+bXo7/7/fCceJQnzxfolAKHoLW5I/RWwOUGuTgBhv0RAPkt1kIFdhz9Gd/9PByEMODldfFajnncpsTrPTZqJT/FEkE9+pL9NjoUrzv4/B58EKTVajHcuDHLaybMzZUjGKclKJfZJUrBjkfx//7Lr2F7u8VHqMxoQONgc9TvR0ETG+UxP8Q/8ZcIsAgG64nXcgNnX3EYilVAyHv8nWNDrxNEEVC5MOjmQq/NbxGEHvC+Xu91IxAC4mGXU3pel6hhdtx6+x1eHB94zHoEI6+c9/B21smNHSSJaI6Xv/sei+++bF/2WzryTvy1zUMeeGGhGr7+ei1Sv3I5H0oliECkAFfzMYr/+m+PwovN/ZArD0KlHkIJsBSqDDoDXiiHUK7RcICYHpDPDJAD7vEIjhEKc6VBKAhYHrgA2CLlso4KddT5zrvnZ6CN9QkOwNJv5EK3DTh6gIPvgkLgF5wlZa61niIg7Q5Dn/MGmRad+oqlBKReI4TufgjtfepqhtBjTvUA5QDAWucAgPd7gj19F6R9XsPR8dBP9UbgjgHw4OPBh6s5kDxJnFzr6zOhViuEmzdnwtJSJdTrdNAVLsVvvn0Wnm9vhfLCIMysQsKXh6ECwASOTa+VoGC8+lAWlz/RJ7hKAoNzLJweigC1VEvg9fw8F+cAjr/3F3gH4DlAlFmfI5URGFC/fjMXOk3Ax+cBIJRqeZ4TIM+rZEMAW78zBFwCle+UPPcp0Fjr6uwMQ3s7HxrPc2GfetuAr+PyzrmCthsBKtAZqE6iuFLdSDVH7xGwtEEQxmflHgcTj99im68sEAXgINy7Nx/u3p0Pv/nNWuh2B/x2ZRscx7DYGXRCca4T5j8ZhJVPQ1i4AyVcAkAufYCsDFUUcGkghFqiTlKeHPxd/C5g/Q5YIvgAngCKVFIKyCtHfUN+k3pmJdYpQKBKJajbECqU8YKRytoGqR/XBe41gILFJVjg8pNttF5W6lCF6rV5VW7nw+w+YASokepJ8XhFCslvPc6RKnalkAevRDU7ghRq7Dku6Z5n2zpxgjBJ9vjONUkQyp7iKr0PQqvVBXj9xFfTwVccf6FYAGTVhWFY+XwQ7vzzMCzzPrMOFWLg5bF8T8smyBmbTLBoANMHBDR8ltGN58fPwoPTIxPJRZkkxrFXCofjLOUSajrkyeL16WyBm/doXB85j2sgbrFkDLaHZlmapVxS0WH87LIKaABSBGOL7/KKUDypXwcwRerIe3sPgO3yvpMLrR2OA0Ipost6awuqCmXde5oLzQ3qsg7u4+BKra/eINOwd6QUB718XNbauwxAIzVcipWH8hXg56LAMPYwGdPu74KC/h8VwCPZiidIsrJyHOqyY9n78ecc/RWIZxcE58UrBaQO+OekSAJHAkiUnAFh5DHlM6WkUDbVT4NOHt4SULVc3gEc1E6WoAtAXep79EmDpX3vcQgbPwzD9k+AEIC2pYaRMnJepJZOkHdn4F/pu7f0Q3EAX9WCJ9r+GQqyng8zN+AB5+D9XC4RJrQZS4GOFqFgdx9Cgs9xfR3/5ehVl/sdOMVJkTVq4CxxCQcYOVgEpd8EzvQeCaqgcRZJKeM7AO7zwHz3uEBs7/fC7qN8WPhrLjz/a57PAV6T14sQmttp2ZZS9uAfrevtLtH2/9sbg7OOcLFPpzVYevI/5FGXMIAsm90G4vz9YZi7lQu1JY4hFbu8WnIjvUxcDs96tzd4vu108qTiB6T07Gt8f5U/goWlSD3jh/inL8Vk6a4twqowMWduDMLeE/rsWWBJHoa9ZyzPfN4HjO1NKSPUk/PlZRPLYmUHDTmsOB0c+36ej9Y/1uhj73ee+i/v2qIztsvyux2XpTx8EB38tBDWvh6Gta8GYfmzYaitQkWQNjMQ2pwMiJfXtLPXfNY2RYJ99DaM4xAEZsM5VH9Zy4U66C0i5ddvsVRD9ZrbCYS7j3Nh5xf6j6V5i5fUsbmhVA8RZWmPFFeqmFV4cL/jQHlw8IP5ULSnZciVCGXIO808TDfSFKBs77v2DsMia1d9ZYCahW8FepOSBu+YtTkevYp/JmzrCBcZXnzOqGAvDlghkLYX6ae11F+trRDmoXzzd4Zh/nYuzNwEhN/nw86v8I0vEGboQ6XvpN6h76IZMeubywHg4aSy/su5R/YE53k/sAUftBFcCUL1aP1WITR3h6G5yTDAqHdag3DjN6g31lDPoKgercLnuf+7dy0PPcyjy2SE81DIMjxlCWGthgZhbj2ERViWlU9yYfPhkFc+bD0MAJFl2uVaPhHBpQuvHfnNV8nhhfWHVQ8Aeq/XRx3TC51OnwmkgDT9LdIkVP/LKsiXQ5BPX2d2ZfGgYXyIkiE8oUrbFuoI1RQqg5V3y/KH8IG1ZSwdLEX8RHFAJqQsnv4OleOeKj4rGCowEFFLD0UszqN77KG6uhEiEFVhzX00DAsf5cOLhyzPvhDwth8hPUMx+/CHWmQOEcHnCyuMHfrUnZ12ePJkH1twNezt9VDkH/c0k99Upwbtyr7K5QIWquTkMHkNr555YAt+9VDqG5eNFtTw8R84A7zl4Oi1hqx9MQwzt/h+vmc67rbv5G9RGAOQhQqTEwW+y7RgXPqsH1bhD/cA4NNv8+GX/wzhxXcKLEx0zIUHTOaFPjUgx7Hkhx92MMf9Gn78cQfQVKJJMxGas5NBr5uZKYXPPlsKX365inmvhnlPinoxlLB4LDm1nUhx8i97zNwXLDWlGTq5iqvPHLwg0mB5NllL0pry4aIxo4oKLvlqLlRQ7Jdm4BUBYx1+cYZXqQZ/g061xPGnqHH24BG1rqiXvOjSbvfDr7/uxmX4p5928Y4pxKVzmvs4udRtLi/XqSNgX54FfOXocRP54mkqHV1zyAOeUInIj2Yv9Fs7gDAPGVZNM7ue4wVDDg9UwAx2XVIPxIkMCGVNHJxoyqR/KghuegOVZnXKAHTwZyqwfYdFu3BC2On0wrNnDZbeLsslqqhox5x2lFRVDaNjw61bs9TZgbek0SEprKatdfy6Qx5w/NfRZxWxyCDRHCUzvceSooqhxxIygPmO1gY7/brQA2OrgPY5FeD8VMBhYk5AMmZ9TDLtXVRdrCyaJ/fgBeN42skH0uC0nZl4ST189vc7cSlOq9vLPGa24klgLEe/p1+zv54k7w8Pi8ue1LWPtj5de742v5YHzG4f37mPSlUN+l1toL7ouJdVCi9d8cF/ORDMHHtByJI8y0TtYe7T3qzyf4h5qY3jQ/A76q/Uny+DZZqOlGIJkIFG8AspUGq8ajRbZnVfSLWjSiZbREcd6UxQ+IjOotnUucjWvGd1QQdjiSZNQKi6pvclAyl/DRjbe4Owj4lvHweHPioaV5zzFwdL6nRx5XCozz9BjrZqIgDaAD2aXUYK8DPFir59R6u6/n5SD6g31C5YRnibv41pD6BFZwdI1ZNvBqGH7bmNnlAvnYsD4UmtOcvvFwvk4+48GYwiAGGmkfBUMySPaRt38TPiuEa+F78BQs2ZtRUmM76NOchgAf1cD3amhf8iv4S2ekJYnMRkXZ2+TTzfqFkXNBinSsHj93FlkKUYyvshBEX24vInx3gT3unP+kXmVGmgyM+XUdWgvJ6/K1UcJIEECvjkmxA24Q1bSsboW7NBf6cffILGT0QBo9Ml4NN1S88QvYL1Fr4uk/UAbHNknqPSGkqovrCG25shDD3Nc0iavVYe8ye8ISC0f1WBXRVKeMgD+iAXUyaXgrmffInqAk1zbf3eeOkVbAfZfdfE8PhBicAbO5RJx/otGmQVCNZauE/nEorQ1cEV59hnqG+2fwWEfI9u3+9559oNp5a4HOhaBOiiq7pqAyiiM/e6nL0HBKIgdDmeXYO3Zil2YiuYxCCtNscBZYxfuShtytmb+coViRJOgphXLj3xh8mWYO+pN6fKVa8wGGnkoPqeT9ATO+68ByI1xLvG6MMK5rrlB1hI2ujbunkU1vYvKkIsUFFpfQU6OWpCojdM9uQXA0SUK6cXdX8CTwm4OJN4F6Pgrsv5e8CBLaLemoUnjOGoWhoU+BBMYnwzPKFGgLfJ57gCppcqJCYKbUy24MlBmFFP39PnhLzJKKAAxNvDEM0yCtUiNk3jfpMWZhIIn3+g3scaEk8IG8PKoo7QhVmXuB6UUJe45mYhBkzp6p+EkrfTC1pAericNZvd0Gh0MfV1Y+YFgRTZswmapS+hiQZKJdy5+JzxxxMBUMN6yawJeMBEozoGdrX7xvxcl4vpAYP2i/UBcTiADRB20A02N1mSEUxeoHkYAEgp49ughJrhdETQyaFWK0WbsD6Ch0UgZIQofRaYOq8KXo8Vi4WYpWF2thRq5K+pjHjbCQEI8JDYynh0VKSALMU6ZFr1IZb5cl2m6AF0hI6Z628Fx1+ySGgtae9DcVBM66Xe2iHjAy7+HQSVLCvEFDea8hLu2xlEB9dvv30eNjZaYX6+fOBlMwkFFISmCFlfnw0ffTQbVldr0Z/Gx54IgPJ/FcBnAHsJHjCmzICcHqJ+yme7vuzlHtBawsQ27mTpY6a3caKovwyKVzkdMzzIHzrz32BpNvvhu++2yLrQxznVjFvFAy+a05qRKGA/+hT+9rc3wu9+tx5KUPuFBfEzIQBlOGWUNSXZQabLyNFZb7gfTnvWd/y4lDDxg9rc6zi0hntmZSAY/jGfMSDrNdNEPaO5Lg1sGsTxB5eaxpQljJFLtgaD8wJW/m9zsxW9YnTvLwKgtLyO3/mkzzwTSFlfrwPCarh/fyG02qQDhPaJn4n0gAMBJx+I+iV6xIyeO1OsnnTr69/P2gMjvgq9oIKeOsLlT+AFt7WUFGIgvJKxPn9SxmMLY1XQCRa7vWEVAefX8wowSr2NRpuluBspnyCPbMOxDTjuR6XmPiBuRgGmy5KeOV1AS4+74OXf7BaXYV8xZ4wz9WwteLnC62+v7YE4sQkDLSD4zd4IYQ0XrsYLXLceo5qR+kEFOwTAH0fZXKnmUOlU5001QpwyYaPd6HPIdRKjMxXBwUrHjXSaMNLu7MNu4JpJk/oAuBelaVU5kfxR+2s9og/aCgLjsktcg5FxAjI17eCM6w8X3QNSGdanEnz34sfE5jwfhn0yMbQw0ZmlKzqzjiTJ8VuXEBAXjFPm1dlDt0ic8h5qjxZAjOPuunemcghCLzsO9K+vLgUvxfw8B2oTHy5dBU2boDBz9IAxMaQZSM25Eg0ho0omqOH6lDP1QCJVBjqpcZCnW8B7ZvUrKCGS8T5hEW2omsvxUalYy4oUcPUzqBamvQJ5GWOSKcx7WlVitoYpKeGZHuHgZEGSSFaKKX45mu74qLiDi9OHmE+Pxrd59Ujw2EdLDwx5+vc3LvhIF0z51T46vNQYGnrsiAU9rSgOkYA7WlTgqvSfXwVwpM5rbeFBDSXUtb9BXpo2CQQOyAmfBGsRpfYcKURMDlrD9UsQ64G9+xQwAOAIwldvdfTWR75PS23SjQRfVsZvPREF7MNz+KAtIvw7JnAknLAAJRzPFZNV/iG9jxMSAXS0qDoZzdOoRpF3k/+JvNjoYgE24GLDHGRvNHuOA9Fxs+4yS/HSPYgAUvEuYZ1NrCMDvZOMKxlbiqPGAsDVV4Zh9iY8JFlvXcrNe2jZ1p3Oe3vNOBI8+BbKRDygruI+gBFx0XXcsEJ82XKQ+w+1jIPvaB9kmcP65F4coDpRfdJj4DWxxeyrrCIB1YZMWQ7ls/6BRfrSDLMFt1aA4glES9I6SCWTYOFSfOM35u4pRKLgchwF4hEIbZegdSmukW55FiAq1PQILBLK5oF0RVPBfZIqx/tedEn3SrWmqZA+T0YBaXATqcuMUB0T7pArRrchJa4DvvKiW/wO1Re9nWlv5I3FFWAY0j9d8l4rNHS3kUhZQboEIXV3u2FI+ruARCgVKtYZgll0a6TfypGUsYA5rgAoo/cRdQpAXfirLKdao0wTZw6aBhRw68dC2H7ISeJ5BMCs29RW1LBaGRxvFtx8oR+Jh/lqdH5VRxidYaNUMQ6JrIY38z4RDxhZEzvVmYMHr/mVh5GO2/A0s95Mc6/OXUYECiri89MfCmdQOiPd2hsA70k3tB/3QutxNwy2AN1OJ+T32yHfaIZ8k3fyOOdR6A2xiw4wU7VqldCvVlhZymFI5qOhQcV07wDq1Uf/VVkthuqNMrZ4wMOsn13JhfmPSBoAr6fbVlJOJ+oX2xP5TdpFNVWsDvP3oZxfwzfStgIqno3v0oqWQmzjI1zqn1d4wNHyP9ES7AyLUjBG8oHJxAHiON9xqS2/opULvETxGHz6pQ+162yj63raC82fCQz/rhVaP2I9+LkJAFuhuNcKpSav1n4okTywGNMiUAfJfgaVcuiQQqHPq1ephn4JEBYgYSCwBynrYn5qYUnYv01elru1UL1ZIjsX6eDk8wAhVcbEmFHhzGDFsQW88Z1qNJ/OQWhXPmNywEr1kYijFA1bMOTaSEsuuZ9fWYJHRHeiJdi2eb7657i8SO59urMrhbjoPSr67Bnfi5K48agb+j+1Qu/H3dB/SIzlw71QecwLE1auwU4EnTY7AbTJpNVGgOtC/ZSHUWsphJDnpCuVA3g99r7oAzh/t/SHRY6VQ//RbOj9NB+ajxZD55OlMJirsySTNvieblvpFVDLHJY4QJFFkqc0QZb6wcT/JWlaFmFP0x4T6G2ViQFoA1VkKrIZxZ+wB4PLT3GmecJ7X1Jaiph7miW3uwPFe94Pze/bofFX9tz72zapjjdC4eetUH22HYq7+yHfAXyMcAGmq8DSkee9qPBhX9Fx8tBxBygkhz7Uro/Nc8B76lPAyRraQ7fS3poNracL8H5QVrQR/dsQhNkaapYSVg8i7XAWwWfgQHh5aSiUrqnfkNAC/KSC5B5ZutrsrRJ3C0CodEV74/SEhzwTAGOH0Uob+sYb+1KPvsUvIobBMs9f88dO2P9TI/T+iHLtT5uh9NOLUHq2FYqbeyy5jVCU2kXQSe3g+WCm5acFn5KqZcRCmiomDob8HVxaOsaSo9FelLbarVBpNkIBZm+XpJONHcxaN5dCD0Vfvgj1XChg6joegErB0L6k1F6CEkI1179OABTMCpd9bcxvmhKOnjk+7Gl/4oyU844vZ5TM96gXT7v4vTiuAR2KhDXI/H5t0hg3vm2Exv9+EQp/fBRqPzwO1Q1AyDKbF3gIGErHXEE3xd7L3pzHgCp1yujtAJjqAA1aT6d4VFThhQSQa4NmKCNFF3AKAIXsDEVc8WKR+9UI8UxeKo5PGpVsbBJPaE2qdtwtwB2xVr4QgCkfuB43u2bGfdMApE0TecPYGaoDUlCSUpQPwwPSMSOW11Pe0+JEgzrIfzBA5kxsId02f+iEzjcbIffNr6H8PeB7/jxU0LkU0crlM7LGdYcwiNUc/MmAd/DD6EOikOnoCLccUQ+IxIxBtUauXzficSJ0mRBG07UrK9wT/SH8YqR2jI2E+gDlfIoODkyGvClCcFSYv43DK/ufrD1GMOHdvVJUscVyUuPS0Qv9O9kSbLsAoIJZXocEZlGmp7rQ1lzhyvLyfBAjLRF737EM/j/A9p9PQv2vP4Xa1laogQQWwVeeYJqxPPkaHIK5x9xgNxTwLtFHcNBA1TPD4JCwOt+tQxhMnxtpw0FbHL5UJ4pxVi7dtWq4ei09gIqjyG6xM8L+CzfjgQo633yd3IiDei/iw0RRcfJ7Sk+SaLe80gSU+aMdPtxFNOcq1iHp55nxYWs9Z6AQONrfbIfBvz4Lpe+fher2TqiiB0FZAgW6/HGTKiIXh9qwERY6mwAG23CYDbtF1DQd6EkfQQbpfIilBSYgdajUO5JWnV554W/oRpMzqzmcFhCk9ophF6fXJpNLQOr6HxNDZtenWi7l70QU0BVFSU3gaQTvsn1DH0Y4x4NBGA7XmUtp4tuv1Ec0E0Tr6SDs/qUT+r/fgPr9EiobG6EG+ARETuHsjTVV0aQTZocMBn56u42FsJ0jg+mgzrjUaKtmP8ZIixUEAzwCPJavgzU9AdP4nqX7nItudxcLSQsltckHzOAanV7fwPNMBEBJst617gLk9lTuEFRfy4WqdkaeS6Vs4jHeQIvf0i1UvvdZqrrPeyH3HEXyxk4oNrFqSGfegkpALKE9hBK2wtxwJyzktnB0WQrNNiB8ShDT33phh5M6T6GYCChuuMMg0XugUUDC/bsXtKmW3Q1r5UHyN9x/grWEzRlTJv/L7+yJAKjyOScFQH+0Q6pec5fMsBWBW3lFhb2ZEt7z4iqgDby/y7YHpMAttZR0AeNbevREw1yOeyzAe2wmtBVe5PbCoAkAfyEb/++hyi+glEsIJoRS5jDv9SIAEWgAX9z9CSKycJPvgHD+Vog+hM++ZXwBoQFQ46788VJuGh/XP3HSZa2YfvAnAqCdb2P0xDVh+Yvvc2HuZoFXP9RpmTHD771QIh+F9Mku2MmOC0mUBWGopu/9C7iykGMMsKcthM2wONwMw2Yx1B4haOjC9AjKwe4G/Qq2Zc17jFWUpzGLDLA5D9b57T5RbmvCgLjdFcb0IxxeAe62rmOs8FJ+x9Zdsgo4Q6gvjJuGc/zcIKT7JgKg/SQIO+i/5BU25tm4ZI0g6hvJhy1KxZCCqGhV2fSeFWHmhBdwuZF+Ly69URLz6Jsv3lU45dQPhkZYJNJ2OWygE8Rz5gUbkO/vhXoV818J9Q2ODQN0Z+Yp5IrQJeyuQ5qL7vJc2LqzEArssF67B8IqhRiT7Ha03ehGhnoGSdtIyBrs1jyS874e2Y/BQnRIyUjilM/P5RPrAb2Fk8qtvLa+Z2LhjVFflJngkYp9ki4CRvzaDveSez+AGIEn5WDE8/g8FdDFFFAHwLoz4ZiVbwd/ccQzEMoLzrAMzwdtdDiv4nEzC7+EXBwqtNPEmINRTmUB2EEb3SZzerO+EJqPl+ETO1BO7Ms35QuLROMV2WJMB2SuYynWt3AeN/8V3PzLqmr4Tc9qCVKkkLE1r/8Tl/DRKeNdNlFUXFa1y7CKzx1cu0t/ZFYxO0wp1iNuc/F+P4YRFthZ8q0xRllDL/g9mseQFEMTuy6Ch94sZdQCcR/it7wE+6jGaDshKggkNRY14BU/V4a859pQ7dQhaeALoQoa+qyl7cFeaCBJ76N32W+jXgJk/RX8+VFql/BP1P+wx+aVxSpju4757itcu4xXZog3f0zgw6ssrcSn9jkXjZcRCidzxxpdGHlBANciq/tzVO3tPXRKpBhTp1TCrag6h5WEBOYDZlwhmuq88N2mhLJ5MVcf2WGHeLUUdpGAscs6yDoWOBhXoei+UAZslSHAgSKWAJ9Ka19H9ZMKTrkcNuxOIVTYabuAq5ge1p1neOF8zs5KLMUlPLNLxCZ3kfx1PK5jvlvCnauymFYDpWRdujJhRWy8roy7Y8XzRv02MQ84XrlSsbGme8yk539GoqKBZcBXZwYZAGMGhXccdweP6xIj1e9s9EMP3iqggskhBUcJWMozmskHF7zhD97esfRVBAVl1BXqJc07IPA8clRD6c+JteiHalQUwvTto9dECbjBtQ3NJAN4w76Diae2FrA4xozzPFu1zabINvWFLxjoDsuxXjXTlIk8oo9WLNq94RCWw10gTS3W+ALegucYLHM2TOtUyD56o7f8PQ4sADQlcYdMVYMNljMoYJ7lKs/k09ngKhTBJAKLuR6sgeDA88aZc8rs8HAhhy6x3wg5/BoL5GHuwk61kEea7AtYMPpxgIlPtQ1jmnerNsZ3hliTmD5OGzLxLdsovuULYzsi6F/tlXGP6PGjU+PEm7kCOQs6xDv0UFKbXNsN+Aw/fF+K4zjY74X+Dj2MB0p+vxUK5DaJEvEJnf12nh1WiAFhAeU9ObumUXh9I1Wi56GaYCvkGLs+bJXLartdYoUrAUohgh6RCacjQ4WYlBJK7S7Zu7qMeQ+nVpfiFgKJSoEIwjN0wJl4wOPq1XhtnEiPD3Gw0A/JtNOU405/Z35LsR4oWxiUbqMfBgAwt4NrfVRAY/eVfFypR0yuX8AHYoh1hvZFCj0BLYiUkKW3CnoWui+iULnTn4nmvcIActhHZ0itathUyZglbfEe/CHgayAp72OcaLJKuCl3XIojCl++8TgPOH5kagp4gCTHwVeUhq7UiBw0cdoPypZS9IEbyRhURIKeEgFFBUS/TMa6Sk8MkYqTwndBdZYipxh9DnOtMNvbjea9en4HYWYOiRkvm1ifIKRXiNqr48iwhGZgfxM7MqbZNgrqrZ8gRKpowMKkZSoeMKs8GgIEnkuxvBKhiH4+Mx3OKrxS70rv0BKXJdLSDnQE5b3QhcF/U5b6M/UHSuYR6CJBAIRaPc5WdHJAnROwL/e3cfvaxta8GFrDGSYccnYGatAYN2C8kbJ37T/DMdZdQOWVZcVYEY+CcJwHjNWM6pp+CaYCGyTzacoObxxfMKUo39+L0oeVQNUJiwGPK5OOGe6NhJBN3XvSMagU/85axINXyRMqSc+FnbCMaW8bI19+WMfOUmNZJ14lnkVfsBRjhMZ0NwirX7DJDt7Z+8/ypA4BD7r401UHgOXUV5bgURPPtwQ7OAAQVVJKmkMa2RaBLvVlaufu8aHO3hc09+2XSN1h5qOgyzMOWW70RI7fZfLTI779hr7UAnscEE3Z514t+45HIQDchQ4+x+ChYnoGqmilGP1HlfumJ00dqdgchsaW7PyETyGWMrMuTLoUnw+AgswMAFBAN7TeeIiTwke81ofRNJcYB1Aay1mXg9Flb+nNiAOUGdwdWypfBrgZD8xRRzn70hYvu/Q/giK5hiUgIr+f+Z5SLZQrULx2NO8tAME+VLAyRB1D7InpRvo9lmPvxauA+BxjTD5mA26yd6kRMRvEoEuGf7yH4oQ9qRXxXicdnOh3BobYhB6qmP1HOCn8NccsyDTk1B75QQYs648T6oz+hBr6x16x5bb+tU9wQoUX9HMBXkfVQ96gWiw9OawDA9NPnZm3uqAGnVKNgoL2ad+z1ymXvHI4DZWu/+gHCTTG1zrMDnZCBfOjDq6oDElQBURJimSeG3n+MhYTl+L13/bDOnlr5tZQ3JBiJM5XQHpi4dj5KGCsWUYdRTqu3FsPQ3jxd3zMENFNZF5XZ6Srli4PJzTEGGP1TpJs1TjyDmT0jw6TetloQ3emvZ0iAFXAsrcFRvpAcu4BjTOb1RTE5ZIfQe5MBTTKYxpHK6e+n92tGsdYZvxmAB8xz89aYffPLfSExJHghBJ9G+ibYq1AXhv6iRVCx9blj3FcIIFSA5WMSZkGsGeRFzuhNRcAwESkZDx3fgGAf8NVC2dVcxQHgGi8jH5k4ynHDtoCHdem6Kwya5N6Jb+r6DS3XQlftvhw1JWlgntzntcOKB0NBcwBwNwMs6GKrZSNVga4N0Vd52mk/eBB38yH5Gwlf5o0wook5ynWJyUs4gHU+bURmv++Fzo/o5wmI0NgNRgyGQvzxCSTs6Z2Azsx41VfhwDdkReEUoIJ+UHjiU4qFwJAUyb0QLuu3Jvfj/g/01YgEesxM39bKsJAMquiZwn9EldWyLc5VXbhH3V0VaGp278ALJFYMeY+gZ+s4frl/hnuMEmN1CMJutyS3cMV1w7PzzPdAaHOnX3so+oHr1ahv1nQcENg2kgFO/QTy+B5GolJrwhVLbeaYfhYXhDKal+wusVJiCjcnauG4TpxKOSs6d0lrw2eKSbT3L8NT2j2hQb9xFJ90ip2MQDkIVVX6C27iTu4PFIHtYU56RzI8uwg0ExIGiDkzXNdbuMmLOQ12fwep4a/JOq5h6uXAoC57RZvD8Py57mwjBfGKlSQmJvIk9G7b6y41JQI3ikz07ts0NKv09llLAOkONPm6vNchaJg1GHBbNHTRSPIAJ9LqF7Q01JCnRnyUNMKA5XfIBiInXPc2bNAxnsX+Z4ArNZDZ4mcNXeWQusz1mCclEv1SphZS4SjjXTcdLKeMGYXBEBq5x7ycYNNpGHduVmeDGAvltArQZpnb0miaYd35FzzG6sz2sbB8cVfQ3j6J0DIa5d4E6ljFbef3UdIVLgDGXpXg++Y4bHz1DWU0X4DVFBgSQErc7AHuKv3V+ls/OU629t4A8H70LT8FQGhVuBGbgb/vpkowcoPEgUSFcuxw6ecJYb7FPR9xBey0CQeBueFEt8FoPSxja9+88UOapgmeuB+6MP/5fGwLpC91J3hK6xcjvU4AKnyoFwQAEf1UbOUTb2gaplimQUANAnMpXsAiAAY3bZMfecGzZs/sw/aQ4JgHvL5BwDHNXpcuzm2u4ebRKdDCKiCwAwhAJLGOVgxl/PxBzp4mkv4oMJVb5/qjWJo3ZoN3Zsrof18l9cWDH8DuvO2te5Mdiaj1G8Xdclufg5t3V4oEUNbhR5aJD7jgx5/nOCP18UXfzTTVXR0ZZFXRWMZMjv7MPBtBmv/aYP0v52wt9ll7GiPG9rAP5uvugChcQmWZY5s81hjLhaANgqc6LovddtCyBiw/60eE9sEyizcgUnFkF1go2YBuPGQc36EVwB4+0+Tu7/xCBHEHO+Sy85wUKnf8qcawZNk7c6dmWb90ikh4DcgpwwPmCdHX/8Wpqmf8ZUrzLLKERDES1rwNorgYHEIbajNPrax7fxy2M0x4ozBXH+HPmJ4Vdids6hb9Bl1wtUTvAwVzIskgqXFUpkxLpB+rr+Pz6QJOvt4zzBWxdos58IwijIcl49jSC8cgD6rbROEbranKL4H+1D7C2L6Co3FfEMWiWjCM82sue2iBAzYUDXFzsvqkHK2AeLeM5Zq9IsquRfvUTn/Y7e+gWWYKRR5UqXywioNvz0fWt8RR1HdoU/lbXFO0EP3DZYMUprderhM7RQWwvPKzbCJ33wTINbx2Bk2mDlM3qlI3zHPIi+pSAOMYpo+gWfx3SP2w/Jgg3gUlukfcVebbYUmIXbdPhOiAwjpuixlSHatF18KAK3YMTGTghSsgIqlhZ5wFypnMu6YW5qGq8j0ZcrfuK0UTxel49GTRUEFhWcDkX7zB/RLdwDjfR4ECqoxPA8TdukUkNG2wwzMKcEHVpH0dm9DBW/cCDPP5Ht2AaJUkLZwpudedvEe5hDUXtFEQtpfXA2NhfUwXFliOzXUJC9KociqIpXCS3/q4n3iC/Ap5AzRMfqUA75HCjiqWUFMJ4YcLEnOZOi4aOmit98psQEo53bmuGo0bXhzOY6F9zNFxY0um/zN1mMp0XnE1GbmMe4CeQmXVFItui/BOuS8EV17qX5BaED8xg/ufZGPYYMm3Z6lnmiUeOnsS/yCBF9bZjLfw2P407mw//ON0CagpwmjWkDRlcedPfKDPtclNcNxs26pUYelbS8/H3arK2Hv9q3Qv38LHnsOCbgX5v+G2oqVIw/r47jb12+iOAkNjDI0YMBAt/YqCEaFsIs/IbIa7VAVR0t8jcqZouKyi872nu4WVS8AMIb0jVdA56T+GWvV2HEtI10oqNndn38HCNfhNwh8KlWZkwokSNnqQi6TEtq+vMpxpOEZJkHzc9j7zUWU5sthXwq4BQUkHiHnQ8aSnmj05ULeZOWS6gNuDHLcrM6H/bmV0IQS59gGtfb5AhMEFcz+fpiBrSkQzhHTpnD343t2smZF2gegUj5I+uG1l8krEsSE8DODT+FC/0XYytVxdF1AY0AdkepQgd0z6qLp3bFe25BjDnLDeM/RjY854/ifGNO4xRRLyiYArBIU787tGsArvEe+4nIYiVF7Rl2OUqzE3igBPnbxC5JC0rHNxjLZpIgRwZZY3iJOhMSRDsBFlgw8faLdNIzJ4zXnFkNzdTm0794Iw0/XQv0f50LlAY4Cqhcew27NANWSoDlfS7xcz28Xe6l7pPCnKD7TYs04Eew0lweE+BRWSRmS57sLePKWp+ZR2y516M73+OnqKFVDOTXn7KAzLP0ZBeeSHjfEJ6CVr6+mKK2YWVQN9iUVE3Kq1yQlFcIQJihNUU9YAp+TqZTObRIQk8cTpII23oi5gyl+zvbI65k7ukO4YQdFanMJ/vPmWujeXw35z5dD9YvFMM+EqKwVghqEHinWpHwWCU40YU45JzK3/hEHCGYmox5Sa4Oi6kOcGUicNItX4QB2pUioaKrjsJ5zeUSnx7z8vxm/2Eaq1tvmOQCc4eUSvAoJnHUp1vas6j6W1y8U07bYwdQcmGPbgzoa//ZXNXSeMIY4cDZkcH9l8PcA4QD9oMsWA5a1aJp7Rv0eKpaWVG9pIXTWluH1VkLu86VQ+xQXqQcsb3fLTEJ0pfRBAzOmiQIKaB5UjTh55b2nnZbRbArDzlNBu3gahBDL64AYn9ehgOmrCkC0k0u55wguz6N+MlHTw1658hRwfOBcis3KUP475j3Mcgoj8oO+q3F3k+fED45fdZGfMb8xBjpaFADjzMeY5BjgRn8VSZ7E4TCsRTo+DxUqoYeKoZHx9ocdPklrosqDG3Xh9VpowXfZubp9bzX0P1kNxa+WQuU3c2Hms2rcC668rMI3hUnGaDa0BkVeJUEI43+eYqt7bhOBwGMWCK3MUa94CqK9zglYIr5kZmjmrg1A/CL6F+rcIKSz8uZ4wOyO53lnRqtf3EEvmPsTnRGVm/QGvy99ons4c9U+wl6Z+B++XELRQdV8exU8vzVH5TpQqLAW+jV0nn92Y5lKqG+iE4McFZSOj5jrxsfvcCjS2Mpx9dHtNVE8NmrsCbKOzvHT9VD4cilUP58PlU9qoQLVq67BC2tlYAJan1tHOEHVGJR5r+HBHfktbuDx8fuc1iXxXOrTkLcP3dolMKnKE0bHBJSLSq6vo4Kpfvhz6igDuNncLveXF2wASrUFKHip0fJOUUB7UbVNG53iBl4WZgJ1WTD8UP1i3BeNATFo3NXivEx47KGT/sCMKxXPESFWYGvzXB21CNtusTlDaPUrqJZQvO9swIxz3qiN8u9Kk0fBkIRD6ALshDsjtalvr7oUdlZvhP7nN0Ppv94K9d/Ww+wXLLcs/SWU+QWl/9H8UviW7YwbWeMClSOKL9rlTaF2xpLAqq6Pfh6i88QlfzO3xFKKDpQlVYUzR06t1XrkIctMwBrAQwsc08iV4QOToJZ64Z3gAV96WkYrZu9kn45dFNT5PwFKBlgHBZeghbtaXJRY6QAGSWp1GUW1D6ZO/ANd/vlwF1MdlKKJ0r+zTkaWv+Ga9OsyFMncK/CEbNOVZ3suldY5dZ6izuJkMX0a2vkuW3b1ZkmbtkQo5NpCKN1dDrUvUK/8jg1pbhfCDKlPCqTF0D4NaY2UTaQYMNUCeHoSmeE07ABkIxQB5llKAg1gdhIBte08WQdzK2GrsBSX1EGfpTR6456hTxmXIlRDRzGdW9MSTB/QMF+mEHnHCs0egbCj540OrUStmanVxNy6eC1BDSIIdd+CX4uUgtl4GbpCBRO9fXTbL1TLIT+HnXgdOnFjJrQf4rTAdl35Z+yYtA0QiSvOuyxjLYh6dwcBFA/ZaKZXrYbe3EzomZ3q1nwo3kO18tlMqD0oh9lPytEhwrw70ZsoexYQphLf3S8NCtKerkNHIaZVm25gXbb7SDSNPHlXC4thR0U3ht1ZPEwG7SReR0oOfCYRsQRZAZcuXcQEnxaTl3nAdwx+qbmCkI6H4iHlY4DPhSd/gBJg/2ySw2UHN67FB0T539InDWoYqQbXjNQTF/nIEdQwMm42XUYyzxEqVsQNvERq3N7HeEE+g5qRUyawYWHY62Ce7ME6AJxRI4w5yQHe/GwFp1tey7WQXyXJGiAu3cKUhXqloqANZT3OK1wq12XJbeMMvI8nURO7+wzfjeA7SxEomtiEyT4uLLt4le7NrYfezDIAqobCJpOLrGg5nIzt+9Nqj8f9Q8UKJOatwZUXABo2cHj1u8UDHu1RnkPex5QQ2z+gFkFNs/ckT4T+MKyTYLH55SDGKLhzuL5pRawnJmu0XDQ1jNlhAQmrVkwKXlvGG+8BntN7NXgzc0tDnfGXGzQBHxTbAXd0VKQXcC8rzOrejo8h27HmZ0iPBogLSPV5qJ4qluPAF3PwsNR2UP0IvgZhsU2A2HU/YJngCQtEjwmhmhmhQ/DNYeH5CPCt3wilBagxVLb2kPZgkVJ+EPTSv0mK/Hl8RpZhGANeST0Vr6WKdxuAPgUPYeB4zFenFIgvovyQg+5OQC0oohLyInEKAlETVaKE0qDJB8lbva4o8EQFMFRWl/UwQ6JIHXOhRCUIYNwxHVWNCZzkVS1mC1BqF2BFJGjjX3TUcDMgl1pzLx5mFEiQTVfyl4FVBaT6UfDt4FvZgAdM27Fy7jEqGIFmcQnNir+5I6cuXS1clfbmMe8BvuHXmPfuLKJagCLvtkMdoa/wE+1R/og8bFbD6e/e9vDlzX2u9OO7D8DR80vVHVgDYXYYdKmAybaNNVl7Qianf2RgUc/UiS+JQVIKJxfqWS2YM1BLInixvMaAQN+RztFHxFOMBExFvlSqjACTXI9ppKDkN5s3OuvoW0ycxAmwVTEGd/sXeOHvACICiHkb/d2JGXm1YyqJdXs9x/p4dHTYOmkPfaO25cbdj0L4YjXU/2kxFO7UaDKU8Ve2CHsIJWNypbjjoy2a/vt7AkB6kg4XhGZn6iGY6FtoqhBTRrgH2pDfpCruhzGLZ7YMvTEqqhvGy/loYro6W97BHYDKlpl0o/G/4/dNi/KRxhyBYMrYxVUgx43D9aN0z5bNH/JpB3SW4Bwx2qqqjisCUtDpWiXwesTOulF2a242NJdRpt9aC/kv1kP5y/kw+w/woGyEaJC5uaJz6D0j1Tqu4nP89p4A8EgPQGz0L9ThtU0QdfSsxjVJCblHXrs8dlyFE233BnKbPf5NFTBw7iIV8lmUeje/z4fnuF+9AIQtWI7KSeDL7goCe8zENoJFA6rXXFkJrTtrIffVaih9uRwWv6yTMb8cZrC1k4cptGBrzHwRAHafpTc5E2SVnf/9/QSgo8xA6Ieo5WQXRl3+LGPMXYoXoIRzt7AaoExWVeOyl1Gu83fr5dWgAGBWXT3JN78nmOvbJIAZS6MlBDnrCN3ku1SP33swv13CJlu4yjdnF0N7fTF0P74R8kSzVb9awNIyE2aiHjUFm7P3TXQCMflUnnsmxT/PZv9eUHk/AXikc2TUd/GkIWwBph2KyPJ8C2Wt8aELhH6WiFOJgsOR667iVx10O6hZ9h7niSTMh0f/kSe4Kwkf8sCZSyILMc0HrWOFHAdhtzBPZgOcaR/cDLmvV0P5H1B0f1EDeCWsLMW4k6a2btkVQRt3QcC2HFMyy6+8XOVY7ad9zFaZl9mMDwKAKmtdRgbwgS/UBaKiMKeN37uoMObu4O1MSGsB8qGVQVXN1aOGsA4sn04epd7tH+H7SINiKhTDHQYot7VSCDtazwKATRnx2li2LpJQD/v03ixOrAvLoffJjVD4zY1Q/O1CmPm8Fur3izEMtoIOPFFL+sY+w9qkVG1sTwEQDlD0T7MER2FIdQxtk+UZN059EAB0brp0SQkbz6ANvDuj21DBFtaUdfjCpY+R9FbpIAeBARvq6EB520DMBI8oAMj7xd2qBB5hCt9jjkQCNou/z5cKQEHxZgxbB9DlSJ/Rq+BKUJ8LrdurofcxVO/rRZxY2R3p0yrhpoVQJuqwUKYCpKYIYLQIsi4d+kfFtst7Cem6h1pJqniWIr2LTq2g0Fb5ooUHVXwwAPSJHSQpyACeUB1aB6Ww2Rz6CCrqDheIuJvFemL4J9vvRgdUgfi2QahGx6XXtu6iatn4LlG+HYL4m1CoQ6kXyoWA1Uey7cyQqaCOpRXfxd5CPbQX0Ok9YEOvzwAfVG/2MzxqAJ/JoyL4JFORdnI9K0PcGZ70u9G+jPdRVfUObRCAZ8TgCGyp/nT1qAbePigAZiDUhNfEdupmz0OU2E3UDFuY75Y/5fUZW1J9ynYE5KSp4HViBN7bAmGkfgpSAKJDG6MX0HcFeD9A+DfAx9IbwRfJkrSGESWNXG91PrTv3AwtXLkC227lV6uhsjYTSneqoXybjAWY92orWFywtET1SlwTvV7KxIQDaKp49lHr7AO+PSjgrNtyjXCTqLG9OVnRVawP2xMNcYQWGNsSC7dUT/rhFTpSi0QTIPbhbUyqpD7NZDoN9wPRzQvD+8B0IlBDVrKRj2HGSF9ul2WKZhwDoUTs1M5k2X2MkwvWjid/COEZKUzkAd08/AAVsUm0nV2Ohh/NYcmAtnzCsne7FMrrWGWIaa6sQMmwV2uSzCwt6UlGKKBffMIOLIpmzQbg28e60kLijrkARwD0Gq8Y++pPLxWPC1Q5v268GdI3/Ki5FQaAMCtvICouu9XVeo+zGeriro9Kjgok6tbUpcl4N54Pw43f4t7FslxHZ2hgenJ0vUwQSoEoUAyzb5k5TGlXQUOK9xxPcHV+m3zfxzHAoP8EA99TMW1J6RYOsV8RwvobLIJE8ZWXoHZsWu3eb26rpgOEZpJIybILeRdQ9kVXPhOqt4sVyQ3K3ahHtsW7pGsO7zd2+bEf9ahusJt7Ho+aPd3VyDetU1YmzLxbHtHHPuI5fqTHHWjc9JjhSnt0OkLKPuBrbSXeT/1gnmxQmGrZnsDB46I4eBcPxGyJM/XAAAlUyrPxQwi//EsuPP0Dape/mMYOyofzhZMlpSd5GQwFPGsq+CPWv2Tr1a+R8PEhLNagjPyzZFTrEHyHzyGvafCXer991FbbvyiEKHnDMzNZ48Xxdlktscpj/8QzlNpx4yHHKm3FtSuHCogESj1+87ivD44HfLW30gA6+JlXscy9GT9dCvdxel37qogJrw81QUCBrYoOoUrJ8dLDAXy17il+keeDLTAz2PM/58Pjfy+EH/+PCZzS5DCnjtL8ceDzbow5s4RJw0QZ+qJ5h5YeJtVBk460m2cVZB2XezyJXvxAxtsfoYDwmXlYEsFpibLKYSXpxyN/PZy5du2Rq2ajcAPH3fWwXp4PvTJLMH2bGZ/ePY/oIw97oV8dfCgL24HE5OtuVdomwMhwR7ejWiVH8gIUszovH0UnM8CHFHG8JUcGd/zQMZ8Fek4lL9SnC/gEvZlmfwV8j/41Fx5/AyWCGprqxEmSKOXxKIiUzUOclPndqRdM5fh2ZcKOVFehQ/5yCwDu/gJLAjtSzbxnR7WkxXj05Zg3KVuP5aKRZxfj8iLZG1ZJVoStGT3kkDTH5trOyjUFzHpi9B4Hl0E2vkLriQPe2kU4YWneY/lb+cIsX/BWODRU5uCrUHMk5TXUIRvnI3We9lXwqXeLaY5/TRKuoHv8H/B9UdpN6qMk8Z5W2+j4hG0RfIZuDnA0VeGscvvZn+EzobhKwZnwMWF1UD6U/PJ9BK5sz6yFvcVbYbi6Gmofz4bqRwhE6Fmjl/qomR82D/iasYwb8ED1UurhpMBWSt6FQqyiqln+RAYfdzncu4qoazIrimp+/fhSOZzpr96KcyQVDL78XBtmf5ulXwlX4D3+FuHjO0CAi726y0nB5wSaFCxZmyIfjOfQHjrGpyz7z3jZlmw/4LSuZ2f7nj3f4W8u/SlhEkncCMjZW4Tyra2H7u0bxC4vhLl7hJHeIbCJwH73F8naeE0BD/vwpU8OpCCMfCFLkyCJUvJmHskUveFPbOB83037ACFArGNFIYoSWyoLHrgTW6cWxrGDo6emNKVcbbtPvgGE3/Id/msPqqvyGSJ1aUXzntTXZV+vcieAVDAKHzzz6+4tiHxOwddHsFDF0qrOAT6CsUgbMvjkZqh+jOIbv8Ilwkjxf0jpVIzoo3j9iAccf8KJui5WcPKfDN8nn/HOHLE76B5tyaYGkR/c4/3FdwQ/fQwlfJAU1ysPTB9HnjxUNjFICVVXdDa1K3iNL8+CW7XPoD1IIQQP4ff+LRd+xbHADcBNU2yCT/I/vhYAx/Wh94kjOMkwuvzCYijY7CLxPkPKlupuYd5T0kZzPCqvVpbxlS65PSLCOpiOmszA/aXlsIdTa+6LlVDD1ly8WwkF1EDzSOI10umpU3WCWqyVJVjw+dGXvXUR5SLruoj2nLMOHicOFIOla738ofxSiyVa3jAqbJEclz7JAUICoUicZOaGEoKK0XrqGnQH071e6VWdmh4tjQ2WWRJ3Pv0jQVXwfFIfo9qURGO+xCmaLbgTAl93sU4FHAdgZq/dtx3fQ4Ghwt5fG3nPffGOLf6OhgCoGMPcRRpr12ZCh9iR1o0VMuWvhspX66H02Wyof6ZTKxSWfwUEGTciit468eYJbUU7KIY02qBzFStI5prMJehc1V3Ri3WndzdI8nVHbxHBt42yeOMHqCGvFfjDhbvYlNcQUuaT57X8Yb6COgOpOVJTBx0Lg2qOn/9FYQOeS4kTpl9PbsdH9/ezFqFhypBIRwAI7CWf07iM13UAPpbY5lY+UtwNpO4NKGAbabtvksmXihXxDLz8JABTAL1p4hZCA6fWzl2dWvGo/opkSf9QD/XbRRT4WEEAA/H5UZmtvrVPX4xvNlpcvzFLeCNGeRPxTUkBJft6y/pqkKLVV6+X0e/U5Nju9+IPk8yu4pUU2Dw7VNHdw3VdV1CZ/Y7wD7J21fAzLM5gnuUV37FExKAoukYAbuPHJ5/nNqeMKXujGEJ6vk6awYbthtLJ4iH4xkuSeHU0aOJ84eTZ+QnTHiGtT/5E5CjtaWMFeVXGOKzHsE0uD91anaysS7jxr4TBg5VQIFNX+Yt5nFrr7JSEhw0mvwr8cI+l3NVDZ9lun34SxjqDsEK4EhcffLocZolJFTzjfMp4s1/3OUVtYU0gRqHV6oanT/fD48f7YwB83dXv/jGHRilVgaWFJWXzZ+ytdG6FMEt3BNDbRO8at7qvQxW1TFQwq8jjKXwUoIozNxBglhPlO0+PSNlmqT9uFqlkjqU/jmkmSUgLGGfbufM9wBst/26R8fSvBHEp9KgDPcTbWHNYPiFQbNkdOnjv7i+uhxZZWfP/sBZq/7wYZsgUVkfKjZm6tBgRQ6IS3GXe/gkAWwD2aJDOFZEw83Pxv/2XO2GbrejVBU1TZLRdcjudftjcbIY//OFZ2GF38f19OOgPoTBYPr8+hg6esRMy8GX5P5ddMvpLAXX2nLvJuSx78+sMEEvR/F2kZwBjGo2jJRsgeS3L0e/pV/5y71gYbIEj2JdgA4x5kQpmDL/rscKGO5xvstQ+0bQH8HTt2vwJlgLw6SPJKpteqdb4t4/log1p3qushsEcjv1LZAV7gF/hZ2uhjKBR/6qORzVOrUsEoPOsYsKYZfld1VhRoELKbsFW9GRDssWR2ov//X/cxVW9dwLqx1pxwseMsd7f74ZHj/aggr3w97/DSHxIhT513OIfACE3o6dNnmUnj16wZawvYHD/FJMoVVlql6B6c4QDFFmm9MfTQSSDYWaon6YL3SSyugS1BYimMY7jA+XRxqtbleqex/+WDz/9P3g+PqtsFiCqmA7A/NKNMdERQdesz4ed5dthcA/v8Qc4sn5B6pAvZlEwV0Ltpk6tTDiiDE3k6ZO4UZG6S7fq2qj3ZmQAAA3NSURBVH+BKxYsRxOHjm4VoNOWjCgXP0ZPM4j830t3nfBLIvEDGPM90k6U2ZhmZaXGuxx01p0TVvUenZbxiDLbkUBBWfKY2GATQwX9YYkl2K0qqgvJ3SuGiTI4WlTi+CU4xyXPVcxiPdnn+MORP/E+/sZJsR6WXwhXcq0H+Po8uhPVo/9E6OH1gs8qm+XNkm35SIXjXx3Pm6zpnzNhcHKofYmzw/1yqNzBqZXkmMSzM8GyFozGHUxEzYHSPsDvIl23kIi7TA4nQ1aKM3VdY+L8zX4707szLAkw8DJs5lcu4wCZevFM9byXJx9QRjqdJcn45C3srC7VXSiDFHEVdUcRDxb3Viuy+bMULFERqERcd1nKzjiXDTd1TJ0IKrLjZuLfo2vErvzLvybKtwMgVCdF23KGnRMGIVfFw+Y+PN5/KYSFr9mr5RPy/qHbKy/g5qWEL+U7WOtHlTD5XNJb7Jq0j2DWeYbXOe1Sg5BRP89EDePTnfEJR/fwTSbXmxfdupMnl6lOgsnYSR/8xxE/1ELyhBo4MEqi6tvIax7tsAv3ECDw3Yt7LEsN4R0VInQePnar2xP6VN5LnlQldtrkB+WyPN/vcWz4D8M4ocQsh4K/j+CYyuvH30lRuKGLF9aMLzFB3lWaB3ijhS7KASMMgbH4yWXWCddGBaPE3xWEM/SD/F92Wz5iCXn9zVMDT/vLbBtVeh7+5bS7vNvH08yX+unJ7B6MbZZlXd93f4SqPEgZvTTvzX+kEyyCDIJLCSAaLKSLVSxHKc1Bp1Ahp8gOaVprEmy1Tb3RtozA8eT3Sc2i2kfwR/++CQmPS7le1LE9CBlxiY/gyzQnwi4V/Q49pLCl0+zeI95xLRvAa/YRwizjkLtAW/AhCNNtrv8e1wMuPz08T6SCDXVxz1M2r4UfkV6RRve/HIZVXotQmajTUzcY+cNEDZN5D6QdAWIkAC57DLx5E3fQ6T3GrvzLvxBD8gdVLokFiGoWQJro1HEtfPW3AYiKO58yGVSvxFsr6R5pg1fKNVi7kXqaLLdQsEsBC1h3DHWI5G6M5l0gAF9t+PUvp/QAYNSt3uAic7208D101/lnf2WPZCiiXjeGBGjeY1+aGCQVl0MGHno6VjlUj7piwPpT3fZZalEuK2w8+RZqq7ABpZ0GfN5EZ1SBpSQU38funH2UBmZ+her5mlA/t+HVtqwv4wySuLiT+h20nA+XAEBv4y0ObsPnacrYNJnm8it9zejZ6CKFAKXCjvwhlGsPm/Lur2gVWLrkF1ewVjQ2iNJDX1hfYklmCSwhLcu7S4BMjMmwRr+9XVy6NqCkmvaUdp9hY94ikEle8JD3mq5fwV4svquQJvRp9Et6S36FHIOyqwc1Y9cLYlh2HkINkcDrSP4JgQmE8Sp+ulAAJmnahmWvl9p4hi/TddIZbnB1TqWr4lCqsmF02yiM+5qsdBBVafwQy4bCCVLyLHyhCm13bEqqnCSBat1oI+3u4NHi/ssKHVtIvbssffJ7qkPOXWikK3eihhkcU62CL+r92JtEneIL9IvP/khbsC8bWqCqZ4ja6bhyYQBUmFH9Uq0iqpNqdmkJU8AURZNgt9uPmZlU77ysInq/gSkfJzWMtlqVx1CTFsrDBkCsY1vdxpxnrHIJabKCic99UUxoyWYeCYAste6pZ0yLadUUXNTRlc+qxxkbN6Gmn2MMYBct8IMpxuRlEBpCGqP4EHKeAz49fIxjMUOZQlEif76PSpx1F0QBE/hIeVYrhdXVmaBy+1AXeDbQtLHKPH/eDBsb7DeLy8kAsvAyCLMneD/fIwgZnJg6jqW2RKIgldamt4hu+zy2gfW6yucBWREdnKTJJEJue6vbV1yqcXyIyy7nZxsNTtNjajXqa1ht1geYFFG/0CYFocMCEDnHAH+zSwj+R/CfCj3msHEy9Zkgr4zhCBYXQgEhfvAkPDhK7Tt35sLvfncz3LrFHrEciNJZ7ATaOd7uwyd46dMu6WD/8pcNbMu++vGaSa57qZJ3/IvgiyY7ltuZVW3IgHDWQCi4L0ZMidT8NexnE92vlKxJchrtsDo2ZBlYT+o3xys7Nv75uG4TOHr1KBTFIH0ork4GBxIwY5oDYMYOG0Oz/QNLL0KUW6q5aY487us4sgsBoA0vEumkJeT+/cWolNY0N015xpYGPR7oyZMGTg1sAz/uPDZNhe/gNREcDKzvUjT1b3NkaVAtEz1s5KeibvDlh8uojKDydRHFNqgG0pFCR4fo0TyqW95PnjDqHZF6tx5C+eD/jKYz24S/OzlSe45v0AUBULciGGV2C7p7dzHcYI+MZJ477ILYmce34fAkPv300w6vXbxqniZJb4JrXqrgPfjioDl4hgGoL1Q4UQ2zeD8pqdlEKVpK4goz1j+ujA72WVg+rzntfKVtHSaKOBJoa47sAG0a9vDto30teFT1js//TNJMVC+qlTQBmgLvtHJBAPTBBSEMa43IJ2yHNO+0e79yXH7DJbhOVicBrQb+QyxOVl3yYw7oJ/Qt/Ro911l2fS/D3+ntEs1hKIbBAgV2ZwyMF91vkc8f8X4xjBRbtmGkZuty2TVT6+P/TO5dhirEpTfqXRIOMup8tF0XAsA467iP7xYba4dMU/IYGNP101z9flwTKSAAxLMNF/1ku22S8V8zWmuHdD+kGC7BD9YBY9pDhOlO/wtEqdNlljiqqIza2+j44PMUOB4TUKWNeesh1g9VP+g0fYZJyoUA0Bsl8E0HOq8/nCHJvvihUj/7IhYB5TLHEqceT51eZGNGHaM9eele4g3ZWyb6FRZRg0X4HWMiy6qd9j3xe1hUoHwt+L1nLLWGjxpM9YKldwswqkhXGj8OfK8QldE8uTAATvtgr16XQGxnf/CFPrAfZKUMFpKyRB9DvYxxc2qxBYX7xM1+hICCtIzCL0rHF5nPUOBZ9JjX69t4YbMmPPk9dmacWg0j3UP10tCplePJ4uLgHSVG/jZWRoevIACPNHSszR/sR7okbb+qdwkj18eNi8g6ebAGbk7LnyGgfIy6hLgSJdW4cXd0GjgKgkl7cAQ6hwLGMmZMheLq3aJ9V8qnnTmGkWJyi8k+0UHGkYt/Xr3vOEEZP3oFAThpJ31g5zGwMXG4+jZAGOM7WJY38bBeexzCDYH4iY4L6g5VGqMnhCJGwQS+8EBvN2G3xeUeHKpE7pHIfQegad77BX7v13/nvt/BA+rUqq5PyheBN2Hl2Wlccw3ArDPekXc9WpQwFU6aWEJc+jp7KYuXW5OtkNtwkei0ms4LmO7Y+xp3eaRnshIcdeE66ZEz8BnN1tW6gWOEuQkVNJ78PgUzGcSkk0Nyah2naSfVeszvXHYNwGP65cr/BEKG0fYKTwZvZlo3Qzy3f8Z54e8EPLEcLz/AyfVeP8ze1pYLBTRuA+l5mKRFwHgyydIenfF7W98DPOy6ChtPAKBxJLr4Rz0f5523XEkAOgMPpeLxRzy508bP+iA+00mRGkIRY05BhBQzd+2OnBF2H5vJqxBWtvpE35EyxJgTXLnirlDoE2PwEnpWl+hM3Wq/61c4aChUDMM24JPXczOcp38M4Tm+ffoVqhyPrjEHHX3auHj88DV+9pUEoI19GYQ2mZ66Lsf2gH0VY0AiP6Y6BPCgFnn2FxMoFcMqOQ3Xf5N8CqvL2JVxKtCqMSxhSkN1E60b1Kzap8/SbkJ0U7Q9QrH8BPC9oB5TF8vvxa1mo0f1sU055scMeBKV9BpnGK8kAKPWnY7Ro8ZUuQY6XQPwmLE98tMQl/cuAoGbM8ZgIPhBpeTWFrsmwSfOE4esPdksDaYAKZG4PHpYQwJVL8pbmhPQREWPEDSkfk9Rs+xiZsvihiUDKZDtyM1f+1WrVgoTjWrMMVpy5QAoi+IDGmNsiGeP7aGMsPJ3NxvMWBhn03nK0XpS/dPVOH7tRdV7XD22btLnjm1iI54WlGsTy0V3w2wJRN6tEIuMf5+OrSZP0qxnumGBYco4c0JvQD2165qmt4dTgTkESyLlSJ9P9tyQVVavFDXJvsjcKD+mKL9yALShS0s13LrmozuWPoE6qWYU8OjAcGCqcrSeo9/PUulkA3GWGtOE84oMcGdtXyQy/DF00hDPEiCsosIp81sZ1UoJCbfI96LLscFGnOfyWgJws0i+fUCn82sXYjBEyZ21Y/wpJntu/TkHOKjUw02C23VWrrCXSRb7fOUAWK0W8aiZD//0T8mnUJ9AQw1fMeWM98T151d7IKNWAE6gRIcGRjsGvqOk1pNaO3KBz76Dt6il6c5D9TjWWQSECBspfPPV6if9RWFSp2KB9/nnKxGEuu3h7x25+isIwEKkfnaaSY5cgpNEzA/XZaoeyKhnvFigjddyVB0DEiN2RwA+jvKNX37aZ8dOL6ca/OYa24Wtr5PIaKZMGxSlr6Ae0Lwy+hPqktVuf5ge0acN6tTHAdUBuDKAWdnoc6xXgI5eLyN16rtGAqLDsmOqz6irXK55xQDoEutssaHz8xVyFrKbTpw96cGzWZzNyOz7tN1ytJ6j3yet9+h1x32fpq3H1WObzlPXcc/kfU6r86Tj49ce116vG/89ScIINRzIwYNartQSnPF5RRWl1+X97YEMlTxhpgR/fx/2+smuZA8Mka4t1wC8ksPz4TTqGoAfzlhfqSfNjQKWrgF4pYblw2vMNQA/vDG/Ek98zQNeiWG4bsQ1BbzGwFvpgWse8K10+/VNj/bA/wf3NDaSU1n1swAAAABJRU5ErkJggg==;" vertex="1" parent="1">
          <mxGeometry x="1013.17" y="352.5" width="83.95" height="85" as="geometry" />
        </mxCell>
        <mxCell id="_rtk_seP__OtfE_5Taxq-43" value="Liver Tumor Volumes Outputs" style="whiteSpace=wrap;html=1;verticalAlign=top;labelBackgroundColor=default;" vertex="1" parent="1">
          <mxGeometry x="1143.17" y="372.5" width="110" height="45" as="geometry" />
        </mxCell>
        <mxCell id="_rtk_seP__OtfE_5Taxq-47" value="Tumor Segmentation Module" style="text;html=1;align=center;verticalAlign=middle;resizable=0;points=[];autosize=1;strokeColor=none;fillColor=none;fontStyle=1" vertex="1" parent="1">
          <mxGeometry x="843.17" y="450" width="180" height="30" as="geometry" />
        </mxCell>
      </root>
    </mxGraphModel>
  </diagram>
</mxfile>
